SplineFontDB: 3.2
FontName: Dyslexic-Italic
FullName: Dyslexic Italic
FamilyName: Dyslexic
Weight: Book
Copyright: Copyright (c) 2008 by Christian Theo Boer, Dyslexie Patent B.V. . All rights reserved. last adjustment 2018
Version: 2008 / 2011 / 2013 / 2017 /2018
ItalicAngle: 0
UnderlinePosition: -205
UnderlineWidth: 102
Ascent: 1638
Descent: 410
InvalidEm: 0
sfntRevision: 0x00040000
woffMajor: 1
woffMinor: 0
LayerCount: 2
Layer: 0 1 "Back" 1
Layer: 1 1 "Fore" 0
XUID: [1021 706 1424211205 9806781]
StyleMap: 0x0001
FSType: 4
OS2Version: 4
OS2_WeightWidthSlopeOnly: 0
OS2_UseTypoMetrics: 0
CreationTime: 1502323064
ModificationTime: 1750671075
PfmFamily: 81
TTFWeight: 400
TTFWidth: 5
LineGap: 717
VLineGap: 0
Panose: 0 0 0 0 0 0 0 0 0 0
OS2TypoAscent: 1931
OS2TypoAOffset: 0
OS2TypoDescent: -690
OS2TypoDOffset: 0
OS2TypoLinegap: 717
OS2WinAscent: 2488
OS2WinAOffset: 0
OS2WinDescent: 690
OS2WinDOffset: 0
HheadAscent: 2488
HheadAOffset: 0
HheadDescent: -717
HheadDOffset: 0
OS2SubXSize: 1434
OS2SubYSize: 1331
OS2SubXOff: 0
OS2SubYOff: 287
OS2SupXSize: 1434
OS2SupYSize: 1331
OS2SupXOff: 0
OS2SupYOff: 977
OS2StrikeYSize: 102
OS2StrikeYPos: 512
OS2CapHeight: 1914
OS2XHeight: 1214
OS2Vendor: 'pyrs'
OS2CodePages: 00000093.44000000
OS2UnicodeRanges: a00002af.1000204a.00000000.00000000
Lookup: 258 8 0 "'kern' Horizontal Kerning in Latin lookup 0" { "'kern' Horizontal Kerning in Latin lookup 0 subtable"  } ['kern' ('DFLT' <'dflt' > 'latn' <'dflt' > ) ]
MarkAttachClasses: 1
DEI: 91125
TtTable: prep
PUSHW_1
 0
CALL
SVTCA[y-axis]
PUSHW_3
 1
 4
 2
CALL
SVTCA[x-axis]
PUSHW_3
 5
 3
 2
CALL
SVTCA[x-axis]
PUSHW_8
 5
 145
 119
 92
 66
 40
 0
 8
CALL
PUSHW_8
 6
 74
 60
 47
 34
 20
 0
 8
CALL
PUSHW_8
 7
 50
 41
 32
 21
 13
 0
 8
CALL
SVTCA[y-axis]
PUSHW_8
 1
 73
 60
 47
 34
 20
 0
 8
CALL
PUSHW_8
 2
 51
 41
 32
 21
 13
 0
 8
CALL
PUSHW_8
 3
 44
 34
 27
 21
 13
 0
 8
CALL
PUSHW_8
 4
 38
 34
 27
 21
 13
 0
 8
CALL
SVTCA[y-axis]
PUSHW_3
 8
 4
 7
CALL
PUSHW_1
 0
DUP
RCVT
RDTG
ROUND[Black]
RTG

StartChar: e
Encoding: 101 101 4
Width: 1397
GlyphClass: 2
Flags: W
LayerCount: 2
Fore
SplineSet
1069 307 m 1,0,1
 1059 258 1059 258 1039 215 c 0,2,3
 1028 195 1028 195 1017 176.5 c 128,-1,4
 1006 158 1006 158 993 143 c 0,5,6
 969 112 969 112 941 87 c 0,7,8
 928 75 928 75 916.5 64.5 c 128,-1,9
 905 54 905 54 894 45 c 0,10,11
 841 3 841 3 795 -13 c 0,12,13
 744 -30 744 -30 706 -37 c 0,14,15
 690 -39 690 -39 671.5 -40 c 128,-1,16
 653 -41 653 -41 631 -42 c 256,17,18
 609 -43 609 -43 589 -43 c 128,-1,19
 569 -43 569 -43 550 -43 c 0,20,21
 459 -43 459 -43 390 -7 c 0,22,23
 321 28 321 28 274 111 c 0,24,25
 228 197 228 197 216 306 c 0,26,27
 202 418 202 418 232 565 c 0,28,29
 262 713 262 713 322 836 c 0,30,31
 351 898 351 898 386.5 951.5 c 128,-1,32
 422 1005 422 1005 464 1052 c 0,33,34
 546 1144 546 1144 639 1199 c 0,35,36
 732 1253 732 1253 836 1253 c 0,37,38
 907 1253 907 1253 952 1237 c 0,39,40
 997 1220 997 1220 1027 1197 c 0,41,42
 1042 1186 1042 1186 1058 1170 c 128,-1,43
 1074 1154 1074 1154 1091 1131 c 256,44,45
 1108 1108 1108 1108 1119 1082 c 128,-1,46
 1130 1056 1130 1056 1138 1027 c 0,47,48
 1144 1002 1144 1002 1149 976.5 c 128,-1,49
 1154 951 1154 951 1158 925 c 256,50,51
 1162 899 1162 899 1163 870 c 128,-1,52
 1164 841 1164 841 1161 811 c 0,53,54
 1157 776 1157 776 1147.5 746.5 c 128,-1,55
 1138 717 1138 717 1124 691 c 0,56,57
 1097 642 1097 642 1055 610 c 0,58,59
 1012 579 1012 579 959 562 c 0,60,61
 932 554 932 554 903.5 549 c 128,-1,62
 875 544 875 544 846 543 c 2,63,-1
 416 514 l 1,64,65
 411 489 411 489 409.5 463.5 c 128,-1,66
 408 438 408 438 408 411 c 0,67,68
 409 357 409 357 428 317 c 0,69,70
 439 294 439 294 452.5 275.5 c 128,-1,71
 466 257 466 257 484 245 c 0,72,73
 519 218 519 218 602 218 c 2,74,-1
 720 218 l 2,75,76
 747 218 747 218 767 224.5 c 128,-1,77
 787 231 787 231 800 236 c 0,78,79
 811 241 811 241 831 256 c 0,80,81
 847 268 847 268 860 308 c 1,82,-1
 1069 308 l 1,83,-1
 1069 307 l 1,0,1
578 965 m 0,84,85
 530 914 530 914 495 839 c 0,86,87
 478 801 478 801 464.5 763.5 c 128,-1,88
 451 726 451 726 442 686 c 1,89,-1
 864 713 l 2,90,91
 948 717 948 717 983 774 c 0,92,93
 1019 831 1019 831 1002 934 c 0,94,95
 987 1013 987 1013 938 1056 c 0,96,97
 889 1098 889 1098 810 1098 c 0,98,99
 791 1098 791 1098 773.5 1095.5 c 128,-1,100
 756 1093 756 1093 740 1087 c 256,101,102
 724 1081 724 1081 709 1074 c 128,-1,103
 694 1067 694 1067 680 1057 c 0,104,105
 653 1040 653 1040 628 1015 c 0,106,107
 603 991 603 991 578 965 c 0,84,85
EndSplineSet
EndChar

StartChar: f
Encoding: 102 102 5
Width: 1015
GlyphClass: 2
Flags: W
LayerCount: 2
Fore
SplineSet
351 1028 m 1,0,-1
 152 1028 l 1,1,-1
 189 1213 l 1,2,-1
 392 1213 l 1,3,4
 422 1345 422 1345 446 1452 c 0,5,6
 457 1498 457 1498 467 1543 c 128,-1,7
 477 1588 477 1588 485.5 1625 c 128,-1,8
 494 1662 494 1662 500.5 1687.5 c 128,-1,9
 507 1713 507 1713 509 1720 c 0,10,11
 518 1749 518 1749 526.5 1771.5 c 128,-1,12
 535 1794 535 1794 545 1808 c 0,13,14
 556 1826 556 1826 568.5 1841 c 128,-1,15
 581 1856 581 1856 595 1867 c 0,16,17
 621 1890 621 1890 670 1904 c 0,18,19
 681 1907 681 1907 696 1908 c 128,-1,20
 711 1909 711 1909 731 1911 c 0,21,22
 751 1912 751 1912 767 1912.5 c 128,-1,23
 783 1913 783 1913 797 1913 c 0,24,25
 814 1913 814 1913 831 1912.5 c 128,-1,26
 848 1912 848 1912 865 1911 c 0,27,28
 899 1908 899 1908 937 1883 c 0,29,30
 946 1877 946 1877 950 1873 c 128,-1,31
 954 1869 954 1869 960 1861 c 0,32,33
 968 1852 968 1852 975 1836 c 1,34,-1
 896 1651 l 1,35,36
 896 1708 896 1708 878 1723 c 0,37,38
 869 1731 869 1731 859.5 1735.5 c 128,-1,39
 850 1740 850 1740 839 1743 c 0,40,41
 831 1748 831 1748 805 1748 c 0,42,43
 792 1748 792 1748 781 1747.5 c 128,-1,44
 770 1747 770 1747 759 1746 c 0,45,46
 728 1743 728 1743 694 1710 c 0,47,48
 659 1677 659 1677 650 1632 c 0,49,50
 650 1630 650 1630 643.5 1601 c 128,-1,51
 637 1572 637 1572 628 1528 c 128,-1,52
 619 1484 619 1484 608.5 1432.5 c 128,-1,53
 598 1381 598 1381 589 1335 c 128,-1,54
 580 1289 580 1289 573 1255.5 c 128,-1,55
 566 1222 566 1222 564 1213 c 1,56,-1
 807 1213 l 1,57,-1
 770 1028 l 1,58,-1
 531 1028 l 1,59,-1
 403 219 l 1,60,-1
 292 0 l 1,61,-1
 129 0 l 1,62,-1
 351 1028 l 1,0,-1
EndSplineSet
EndChar

StartChar: g
Encoding: 103 103 6
Width: 1389
GlyphClass: 2
Flags: W
LayerCount: 2
Fore
SplineSet
1283 1213 m 1,0,1
 1272 1190 1272 1190 1262 1167.5 c 128,-1,2
 1252 1145 1252 1145 1243 1121 c 0,3,4
 1234 1101 1234 1101 1225.5 1079 c 128,-1,5
 1217 1057 1217 1057 1209 1034 c 256,6,7
 1201 1011 1201 1011 1195 989 c 128,-1,8
 1189 967 1189 967 1185 947 c 0,9,10
 1183 941 1183 941 1181 927.5 c 128,-1,11
 1179 914 1179 914 1174 893 c 256,12,13
 1169 872 1169 872 1164 846.5 c 128,-1,14
 1159 821 1159 821 1153 790 c 0,15,16
 1146 759 1146 759 1138.5 725 c 128,-1,17
 1131 691 1131 691 1123 653 c 0,18,19
 1108 580 1108 580 1093 503 c 0,20,21
 1074 413 1074 413 1053.5 313.5 c 128,-1,22
 1033 214 1033 214 1011 102 c 0,23,24
 969 -107 969 -107 928 -245 c 0,25,26
 887 -385 887 -385 834 -469 c 0,27,28
 754 -592 754 -592 653 -640 c 0,29,30
 628 -652 628 -652 604.5 -661.5 c 128,-1,31
 581 -671 581 -671 555.5 -677.5 c 128,-1,32
 530 -684 530 -684 501 -687.5 c 128,-1,33
 472 -691 472 -691 435 -690 c 0,34,35
 420 -690 420 -690 402.5 -689.5 c 128,-1,36
 385 -689 385 -689 368.5 -688.5 c 128,-1,37
 352 -688 352 -688 337.5 -687 c 128,-1,38
 323 -686 323 -686 314 -685 c 0,39,40
 295 -683 295 -683 279.5 -679.5 c 128,-1,41
 264 -676 264 -676 252 -671 c 0,42,43
 225 -660 225 -660 207 -646 c 0,44,45
 198 -638 198 -638 188 -628.5 c 128,-1,46
 178 -619 178 -619 167 -606 c 0,47,48
 132 -567 132 -567 116 -488 c 0,49,50
 108 -449 108 -449 105.5 -394 c 128,-1,51
 103 -339 103 -339 112 -268 c 1,52,-1
 305 -343 l 1,53,54
 307 -388 307 -388 311 -401 c 0,55,56
 313 -409 313 -409 318 -415.5 c 128,-1,57
 323 -422 323 -422 331 -428 c 0,58,59
 350 -443 350 -443 379 -448 c 0,60,61
 395 -452 395 -452 416.5 -453.5 c 128,-1,62
 438 -455 438 -455 465 -455 c 0,63,64
 480 -455 480 -455 497 -454 c 128,-1,65
 514 -453 514 -453 531 -451 c 0,66,67
 549 -449 549 -449 566.5 -445 c 128,-1,68
 584 -441 584 -441 601 -435 c 0,69,70
 637 -421 637 -421 668 -393 c 0,71,72
 685 -378 685 -378 699.5 -359 c 128,-1,73
 714 -340 714 -340 728 -315 c 0,74,75
 741 -288 741 -288 755 -241 c 0,76,77
 762 -216 762 -216 769.5 -188.5 c 128,-1,78
 777 -161 777 -161 785 -129 c 0,79,80
 793 -98 793 -98 799.5 -65.5 c 128,-1,81
 806 -33 806 -33 814 2 c 0,82,83
 821 37 821 37 827.5 69.5 c 128,-1,84
 834 102 834 102 840 134 c 1,85,86
 824 105 824 105 803 80 c 0,87,88
 782 53 782 53 748 26 c 0,89,90
 710 -6 710 -6 663 -25 c 0,91,92
 638 -35 638 -35 610.5 -39 c 128,-1,93
 583 -43 583 -43 551 -43 c 0,94,95
 512 -43 512 -43 476.5 -34.5 c 128,-1,96
 441 -26 441 -26 409 -6 c 0,97,98
 344 35 344 35 300 102 c 0,99,100
 277 139 277 139 263 184.5 c 128,-1,101
 249 230 249 230 243 287 c 0,102,103
 232 401 232 401 265 564 c 0,104,105
 281 642 281 642 300.5 712.5 c 128,-1,106
 320 783 320 783 344 849 c 0,107,108
 392 982 392 982 469 1066 c 0,109,110
 546 1153 546 1153 631 1203 c 0,111,112
 674 1229 674 1229 714.5 1241 c 128,-1,113
 755 1253 755 1253 800 1253 c 0,114,115
 847 1253 847 1253 877.5 1247 c 128,-1,116
 908 1241 908 1241 919 1239 c 0,117,118
 929 1236 929 1236 937 1232 c 128,-1,119
 945 1228 945 1228 953 1223 c 0,120,121
 968 1214 968 1214 981 1201 c 0,122,123
 984 1198 984 1198 989 1192 c 128,-1,124
 994 1186 994 1186 1000 1178.5 c 128,-1,125
 1006 1171 1006 1171 1012 1163 c 128,-1,126
 1018 1155 1018 1155 1022 1149 c 0,127,128
 1031 1133 1031 1133 1037 1114 c 0,129,130
 1041 1104 1041 1104 1043 1095.5 c 128,-1,131
 1045 1087 1045 1087 1045 1078 c 1,132,-1
 1111 1213 l 1,133,-1
 1283 1213 l 1,0,1
904 426 m 0,134,135
 928 482 928 482 952 591 c 0,136,137
 978 707 978 707 985 803 c 0,138,139
 994 899 994 899 971 957 c 0,140,141
 946 1019 946 1019 908 1057 c 0,142,143
 868 1097 868 1097 810 1097 c 0,144,145
 723 1097 723 1097 656 1045 c 0,146,147
 590 992 590 992 537 890 c 0,148,149
 528 873 528 873 517 842.5 c 128,-1,150
 506 812 506 812 495 768 c 0,151,152
 471 681 471 681 456 591 c 0,153,154
 448 538 448 538 444 494 c 128,-1,155
 440 450 440 450 440 414 c 0,156,157
 438 343 438 343 463 296 c 0,158,159
 486 250 486 250 522 234 c 0,160,161
 559 217 559 217 618 217 c 0,162,163
 643 217 643 217 664.5 219.5 c 128,-1,164
 686 222 686 222 704 226 c 0,165,166
 741 236 741 236 764 250 c 0,167,168
 778 258 778 258 791 267.5 c 128,-1,169
 804 277 804 277 814 288 c 0,170,171
 821 295 821 295 832.5 310 c 128,-1,172
 844 325 844 325 857 344 c 128,-1,173
 870 363 870 363 882.5 384.5 c 128,-1,174
 895 406 895 406 904 426 c 0,134,135
EndSplineSet
EndChar

StartChar: h
Encoding: 104 104 7
Width: 1384
GlyphClass: 2
Flags: W
LayerCount: 2
Fore
SplineSet
972 990 m 0,0,1
 958 1035 958 1035 924 1066 c 0,2,3
 892 1098 892 1098 828 1098 c 0,4,5
 724 1098 724 1098 621 992 c 0,6,7
 597 966 597 966 578 929 c 128,-1,8
 559 892 559 892 546 841 c 0,9,10
 532 791 532 791 519.5 736 c 128,-1,11
 507 681 507 681 494 619 c 2,12,-1
 378 0 l 1,13,-1
 146 0 l 1,14,-1
 383 1013 l 1,15,-1
 594 1913 l 1,16,-1
 764 1913 l 1,17,-1
 594 1146 l 1,18,19
 608 1163 608 1163 630 1179 c 0,20,21
 641 1189 641 1189 657 1198 c 128,-1,22
 673 1207 673 1207 693 1218 c 0,23,24
 769 1253 769 1253 894 1253 c 0,25,26
 1002 1253 1002 1253 1068 1212 c 0,27,28
 1136 1170 1136 1170 1155 1076 c 0,29,30
 1157 1064 1157 1064 1158.5 1048 c 128,-1,31
 1160 1032 1160 1032 1159 1012 c 0,32,33
 1159 992 1159 992 1158 970.5 c 128,-1,34
 1157 949 1157 949 1155 926 c 256,35,36
 1153 903 1153 903 1150.5 879.5 c 128,-1,37
 1148 856 1148 856 1145 831 c 0,38,39
 1142 807 1142 807 1140 785.5 c 128,-1,40
 1138 764 1138 764 1133 744 c 0,41,42
 1133 741 1133 741 1128 713 c 128,-1,43
 1123 685 1123 685 1115 639 c 128,-1,44
 1107 593 1107 593 1097 534.5 c 128,-1,45
 1087 476 1087 476 1076 412.5 c 128,-1,46
 1065 349 1065 349 1053.5 285 c 128,-1,47
 1042 221 1042 221 1032.5 165.5 c 128,-1,48
 1023 110 1023 110 1015.5 66.5 c 128,-1,49
 1008 23 1008 23 1004 0 c 1,50,-1
 773 0 l 1,51,-1
 939 730 l 2,52,53
 946 764 946 764 953 799.5 c 128,-1,54
 960 835 960 835 967 872 c 0,55,56
 975 910 975 910 976 939.5 c 128,-1,57
 977 969 977 969 972 990 c 0,0,1
EndSplineSet
EndChar

StartChar: i
Encoding: 105 105 8
Width: 700
GlyphClass: 2
Flags: W
LayerCount: 2
Fore
SplineSet
491 1213 m 1,0,-1
 302 0 l 1,1,-1
 88 0 l 1,2,-1
 321 1214 l 1,3,-1
 491 1214 l 1,4,-1
 491 1213 l 1,0,-1
608 1702 m 0,5,6
 594 1635 594 1635 547 1588 c 0,7,8
 502 1540 502 1540 448 1540 c 256,9,10
 394 1540 394 1540 366 1588 c 0,11,12
 337 1634 337 1634 351 1702 c 0,13,14
 363 1770 363 1770 411 1816 c 0,15,16
 459 1864 459 1864 512 1864 c 0,17,18
 564 1864 564 1864 594 1816 c 0,19,20
 621 1769 621 1769 608 1702 c 0,5,6
EndSplineSet
EndChar

StartChar: j
Encoding: 106 106 9
Width: 1033
GlyphClass: 2
Flags: W
LayerCount: 2
Fore
SplineSet
538 666 m 0,0,1
 546 697 546 697 556 737 c 128,-1,2
 566 777 566 777 577 821.5 c 128,-1,3
 588 866 588 866 599.5 912.5 c 128,-1,4
 611 959 611 959 622 1002 c 0,5,6
 648 1105 648 1105 675 1214 c 1,7,-1
 845 1214 l 1,8,9
 820 1107 820 1107 797 1008 c 0,10,11
 787 965 787 965 776.5 920 c 128,-1,12
 766 875 766 875 756 831.5 c 128,-1,13
 746 788 746 788 737 748.5 c 128,-1,14
 728 709 728 709 721 678 c 0,15,16
 656 396 656 396 591 110.5 c 128,-1,17
 526 -175 526 -175 447 -447 c 0,18,19
 442 -466 442 -466 435 -483 c 128,-1,20
 428 -500 428 -500 421 -515 c 0,21,22
 407 -545 407 -545 391 -565 c 0,23,24
 383 -576 383 -576 375 -586 c 128,-1,25
 367 -596 367 -596 357 -607 c 0,26,27
 347 -616 347 -616 338 -624.5 c 128,-1,28
 329 -633 329 -633 320 -641 c 0,29,30
 299 -657 299 -657 279 -665 c 0,31,32
 268 -670 268 -670 254.5 -673.5 c 128,-1,33
 241 -677 241 -677 226 -680 c 0,34,35
 211 -682 211 -682 193 -683.5 c 128,-1,36
 175 -685 175 -685 153 -685 c 0,37,38
 110 -685 110 -685 81 -672 c 0,39,40
 53 -662 53 -662 33 -644 c 0,41,42
 11 -624 11 -624 0 -603 c 1,43,-1
 107 -420 l 1,44,45
 110 -427 110 -427 119 -437 c 0,46,47
 133 -451 133 -451 161 -451 c 0,48,49
 178 -451 178 -451 195.5 -447 c 128,-1,50
 213 -443 213 -443 232 -432 c 0,51,52
 250 -421 250 -421 264.5 -395 c 128,-1,53
 279 -369 279 -369 291 -328 c 0,54,55
 330 -204 330 -204 362 -80.5 c 128,-1,56
 394 43 394 43 422.5 167 c 128,-1,57
 451 291 451 291 478.5 415.5 c 128,-1,58
 506 540 506 540 538 666 c 0,0,1
964 1866 m 0,59,60
 936 1913 936 1913 884 1913 c 0,61,62
 828 1913 828 1913 782 1866 c 0,63,64
 734 1818 734 1818 721 1751 c 0,65,66
 708 1688 708 1688 736 1638 c 0,67,68
 764 1589 764 1589 819 1589 c 0,69,70
 871 1589 871 1589 919 1638 c 0,71,72
 965 1686 965 1686 979 1751 c 0,73,74
 992 1820 992 1820 964 1866 c 0,59,60
EndSplineSet
EndChar

StartChar: k
Encoding: 107 107 10
Width: 1303
GlyphClass: 2
Flags: W
LayerCount: 2
Fore
SplineSet
1206 1213 m 1,0,-1
 653 734 l 1,1,-1
 1029 90 l 1,2,-1
 1012 0 l 1,3,-1
 799 0 l 1,4,-1
 516 576 l 1,5,-1
 414 0 l 1,6,-1
 198 0 l 1,7,8
 219 98 219 98 239 191 c 128,-1,9
 259 284 259 284 279 374 c 0,10,11
 288 412 288 412 296.5 450.5 c 128,-1,12
 305 489 305 489 314 529 c 0,13,14
 323 570 323 570 331 608.5 c 128,-1,15
 339 647 339 647 347 685 c 256,16,17
 355 723 355 723 363 758 c 128,-1,18
 371 793 371 793 378 826 c 0,19,20
 393 894 393 894 402 941 c 0,21,22
 407 960 407 960 412.5 987.5 c 128,-1,23
 418 1015 418 1015 426 1051 c 256,24,25
 434 1087 434 1087 442.5 1127.5 c 128,-1,26
 451 1168 451 1168 462 1214 c 0,27,28
 475 1269 475 1269 488.5 1327 c 128,-1,29
 502 1385 502 1385 516 1447 c 0,30,31
 531 1510 531 1510 544 1566.5 c 128,-1,32
 557 1623 557 1623 568 1674 c 0,33,34
 583 1735 583 1735 597 1794 c 128,-1,35
 611 1853 611 1853 627 1913 c 1,36,-1
 797 1913 l 1,37,38
 780 1846 780 1846 764.5 1782 c 128,-1,39
 749 1718 749 1718 734 1655 c 0,40,41
 720 1598 720 1598 706.5 1541 c 128,-1,42
 693 1484 693 1484 680 1424 c 0,43,44
 666 1364 666 1364 654.5 1311.5 c 128,-1,45
 643 1259 643 1259 634 1214 c 0,46,47
 629 1188 629 1188 624 1160.5 c 128,-1,48
 619 1133 619 1133 612 1103 c 0,49,50
 606 1073 606 1073 601 1044.5 c 128,-1,51
 596 1016 596 1016 591 990 c 0,52,53
 586 959 586 959 581 929 c 128,-1,54
 576 899 576 899 570 869 c 1,55,-1
 985 1214 l 1,56,-1
 1206 1214 l 1,57,-1
 1206 1213 l 1,0,-1
EndSplineSet
EndChar

StartChar: l
Encoding: 108 108 11
Width: 854
GlyphClass: 2
Flags: W
LayerCount: 2
Fore
SplineSet
702 1915 m 1,0,1
 679 1801 679 1801 660 1704 c 0,2,3
 652 1662 652 1662 643.5 1620 c 128,-1,4
 635 1578 635 1578 627.5 1541.5 c 128,-1,5
 620 1505 620 1505 614 1476 c 128,-1,6
 608 1447 608 1447 605 1432 c 0,7,8
 593 1372 593 1372 580.5 1317.5 c 128,-1,9
 568 1263 568 1263 557 1214 c 0,10,11
 554 1202 554 1202 546.5 1167.5 c 128,-1,12
 539 1133 539 1133 530 1093 c 128,-1,13
 521 1053 521 1053 513 1015.5 c 128,-1,14
 505 978 505 978 501 960 c 0,15,16
 498 948 498 948 489 902.5 c 128,-1,17
 480 857 480 857 468 793.5 c 128,-1,18
 456 730 456 730 442 656 c 128,-1,19
 428 582 428 582 414.5 512.5 c 128,-1,20
 401 443 401 443 390 385 c 128,-1,21
 379 327 379 327 373 296 c 0,22,23
 364 251 364 251 370 232 c 0,24,25
 376 221 376 221 392 220 c 0,26,27
 400 220 400 220 411.5 219.5 c 128,-1,28
 423 219 423 219 436 219 c 2,29,-1
 525 219 l 1,30,-1
 554 0 l 1,31,-1
 228 0 l 2,32,33
 207 0 207 0 185 14 c 0,34,35
 165 28 165 28 156 49 c 0,36,37
 151 60 151 60 148 69 c 128,-1,38
 145 78 145 78 143 87 c 0,39,40
 140 107 140 107 146 135 c 2,41,-1
 164 219 l 2,42,43
 164 222 164 222 176 280 c 0,44,45
 178 287 178 287 187 329 c 128,-1,46
 196 371 196 371 210.5 435.5 c 128,-1,47
 225 500 225 500 242.5 580 c 128,-1,48
 260 660 260 660 278.5 743.5 c 128,-1,49
 297 827 297 827 315 907.5 c 128,-1,50
 333 988 333 988 347 1052.5 c 128,-1,51
 361 1117 361 1117 370.5 1160 c 128,-1,52
 380 1203 380 1203 382 1211 c 0,53,54
 393 1260 393 1260 405 1314.5 c 128,-1,55
 417 1369 417 1369 429 1429 c 0,56,57
 433 1449 433 1449 441 1486.5 c 128,-1,58
 449 1524 449 1524 458.5 1571 c 128,-1,59
 468 1618 468 1618 479 1669 c 128,-1,60
 490 1720 490 1720 500 1767 c 128,-1,61
 510 1814 510 1814 518 1853 c 128,-1,62
 526 1892 526 1892 530 1913 c 1,63,-1
 702 1913 l 1,64,-1
 702 1915 l 1,0,1
EndSplineSet
EndChar

StartChar: m
Encoding: 109 109 12
Width: 1962
GlyphClass: 2
Flags: W
LayerCount: 2
Fore
SplineSet
961 998 m 0,0,1
 955 1018 955 1018 942.5 1036 c 128,-1,2
 930 1054 930 1054 916 1068 c 0,3,4
 900 1083 900 1083 878 1090.5 c 128,-1,5
 856 1098 856 1098 823 1098 c 0,6,7
 794 1098 794 1098 770.5 1092.5 c 128,-1,8
 747 1087 747 1087 728 1074 c 0,9,10
 710 1062 710 1062 690 1042.5 c 128,-1,11
 670 1023 670 1023 650 997 c 0,12,13
 627 969 627 969 608 932 c 128,-1,14
 589 895 589 895 578 849 c 0,15,16
 577 844 577 844 571 809 c 128,-1,17
 565 774 565 774 555 719.5 c 128,-1,18
 545 665 545 665 533 596 c 128,-1,19
 521 527 521 527 508 454 c 128,-1,20
 495 381 495 381 482 308.5 c 128,-1,21
 469 236 469 236 458 174 c 128,-1,22
 447 112 447 112 439 66 c 128,-1,23
 431 20 431 20 427 0 c 1,24,-1
 212 0 l 1,25,-1
 474 1214 l 1,26,-1
 642 1214 l 1,27,-1
 625 1126 l 1,28,29
 636 1140 636 1140 648 1151.5 c 128,-1,30
 660 1163 660 1163 672 1173 c 0,31,32
 685 1182 685 1182 699 1191 c 128,-1,33
 713 1200 713 1200 727 1209 c 0,34,35
 750 1225 750 1225 787 1239 c 0,36,37
 805 1247 805 1247 832.5 1250 c 128,-1,38
 860 1253 860 1253 896 1253 c 0,39,40
 925 1253 925 1253 949.5 1249 c 128,-1,41
 974 1245 974 1245 992 1236 c 0,42,43
 1027 1218 1027 1218 1051 1193 c 0,44,45
 1088 1154 1088 1154 1108 1095 c 1,46,47
 1125 1113 1125 1113 1140 1129 c 128,-1,48
 1155 1145 1155 1145 1170 1159 c 0,49,50
 1198 1187 1198 1187 1240 1210 c 0,51,52
 1262 1222 1262 1222 1287.5 1232 c 128,-1,53
 1313 1242 1313 1242 1342 1247 c 256,54,55
 1371 1252 1371 1252 1396.5 1252 c 128,-1,56
 1422 1252 1422 1252 1445 1253 c 0,57,58
 1533 1253 1533 1253 1596 1215 c 0,59,60
 1628 1195 1628 1195 1653 1165 c 128,-1,61
 1678 1135 1678 1135 1695 1095 c 0,62,63
 1709 1065 1709 1065 1716 1032.5 c 128,-1,64
 1723 1000 1723 1000 1725 965 c 256,65,66
 1727 930 1727 930 1721.5 887.5 c 128,-1,67
 1716 845 1716 845 1708 798 c 2,68,-1
 1561 0 l 1,69,-1
 1345 0 l 1,70,-1
 1537 847 l 2,71,72
 1544 882 1544 882 1543 915 c 128,-1,73
 1542 948 1542 948 1537 971 c 0,74,75
 1529 1012 1529 1012 1515.5 1035 c 128,-1,76
 1502 1058 1502 1058 1479 1074 c 0,77,78
 1465 1085 1465 1085 1441 1091.5 c 128,-1,79
 1417 1098 1417 1098 1391 1098 c 0,80,81
 1361 1098 1361 1098 1333.5 1092.5 c 128,-1,82
 1306 1087 1306 1087 1286 1072 c 0,83,84
 1266 1058 1266 1058 1252 1043.5 c 128,-1,85
 1238 1029 1238 1029 1224 1013 c 0,86,87
 1201 986 1201 986 1178 946.5 c 128,-1,88
 1155 907 1155 907 1141 847 c 2,89,-1
 993 0 l 1,90,-1
 780 0 l 1,91,-1
 970 847 l 2,92,93
 978 889 978 889 975 926.5 c 128,-1,94
 972 964 972 964 961 998 c 0,0,1
EndSplineSet
EndChar

StartChar: n
Encoding: 110 110 13
Width: 1413
GlyphClass: 2
Flags: W
LayerCount: 2
Fore
SplineSet
473 619 m 0,0,1
 471 610 471 610 469 598 c 128,-1,2
 467 586 467 586 464 569 c 256,3,4
 461 552 461 552 457.5 532 c 128,-1,5
 454 512 454 512 450 489 c 0,6,7
 445 466 445 466 440.5 440.5 c 128,-1,8
 436 415 436 415 431 388 c 256,9,10
 426 361 426 361 421.5 333.5 c 128,-1,11
 417 306 417 306 412 280 c 0,12,13
 401 216 401 216 388.5 146 c 128,-1,14
 376 76 376 76 363 0 c 1,15,-1
 148 0 l 1,16,17
 177 115 177 115 202 220 c 128,-1,18
 227 325 227 325 250 422 c 0,19,20
 260 464 260 464 270 505 c 128,-1,21
 280 546 280 546 289 588 c 256,22,23
 298 630 298 630 307.5 668 c 128,-1,24
 317 706 317 706 325 742 c 256,25,26
 333 778 333 778 340 810 c 128,-1,27
 347 842 347 842 354 869 c 0,28,29
 360 897 360 897 364 917 c 128,-1,30
 368 937 368 937 371 950 c 0,31,32
 376 987 376 987 383 1030 c 0,33,34
 387 1053 387 1053 390.5 1075 c 128,-1,35
 394 1097 394 1097 396 1117 c 0,36,37
 398 1129 398 1129 399.5 1145.5 c 128,-1,38
 401 1162 401 1162 403 1178 c 0,39,40
 405 1195 405 1195 407 1214 c 1,41,-1
 577 1214 l 1,42,-1
 549 1017 l 1,43,44
 569 1046 569 1046 591.5 1073.5 c 128,-1,45
 614 1101 614 1101 637 1129 c 0,46,47
 662 1155 662 1155 684.5 1175 c 128,-1,48
 707 1195 707 1195 728 1206 c 0,49,50
 816 1253 816 1253 913 1253 c 0,51,52
 1019 1253 1019 1253 1078 1206 c 0,53,54
 1138 1158 1138 1158 1157 1066 c 0,55,56
 1167 1014 1167 1014 1163 946 c 0,57,58
 1159 911 1159 911 1153.5 870 c 128,-1,59
 1148 829 1148 829 1139 778 c 0,60,61
 1138 775 1138 775 1133 745 c 128,-1,62
 1128 715 1128 715 1120 667 c 128,-1,63
 1112 619 1112 619 1102 557.5 c 128,-1,64
 1092 496 1092 496 1081 429.5 c 128,-1,65
 1070 363 1070 363 1059 296 c 128,-1,66
 1048 229 1048 229 1038.5 171 c 128,-1,67
 1029 113 1029 113 1021.5 68 c 128,-1,68
 1014 23 1014 23 1010 0 c 1,69,-1
 795 0 l 1,70,71
 804 41 804 41 819.5 107 c 128,-1,72
 835 173 835 173 853.5 252.5 c 128,-1,73
 872 332 872 332 891.5 419.5 c 128,-1,74
 911 507 911 507 929 591.5 c 128,-1,75
 947 676 947 676 961 751.5 c 128,-1,76
 975 827 975 827 982 883 c 0,77,78
 986 920 986 920 983 948 c 0,79,80
 981 962 981 962 979 974.5 c 128,-1,81
 977 987 977 987 974 1001 c 0,82,83
 968 1025 968 1025 954 1049 c 0,84,85
 938 1069 938 1069 915 1085 c 0,86,87
 892 1098 892 1098 852 1098 c 0,88,89
 822 1098 822 1098 790 1085 c 0,90,91
 773 1077 773 1077 760.5 1069 c 128,-1,92
 748 1061 748 1061 732 1050 c 0,93,94
 693 1021 693 1021 660 988 c 128,-1,95
 627 955 627 955 595 916 c 0,96,97
 582 899 582 899 571.5 882.5 c 128,-1,98
 561 866 561 866 551 854 c 0,99,100
 543 841 543 841 534.5 824.5 c 128,-1,101
 526 808 526 808 518 789 c 0,102,103
 510 772 510 772 504.5 753.5 c 128,-1,104
 499 735 499 735 494 717 c 0,105,106
 489 697 489 697 483.5 673 c 128,-1,107
 478 649 478 649 473 619 c 0,0,1
EndSplineSet
EndChar

StartChar: o
Encoding: 111 111 14
Width: 1381
GlyphClass: 2
Flags: W
LayerCount: 2
Fore
SplineSet
1128 1075 m 0,0,1
 1150 1028 1150 1028 1164 974.5 c 128,-1,2
 1178 921 1178 921 1186 861 c 0,3,4
 1193 799 1193 799 1189 730.5 c 128,-1,5
 1185 662 1185 662 1169 585 c 0,6,7
 1140 439 1140 439 1081 327 c 0,8,9
 1021 214 1021 214 945 128 c 0,10,11
 792 -43 792 -43 593 -43 c 2,12,-1
 550 -43 l 2,13,14
 351 -43 351 -43 266 128 c 0,15,16
 223 217 223 217 210 327 c 0,17,18
 197 441 197 441 225 585 c 0,19,20
 241 662 241 662 263.5 730.5 c 128,-1,21
 286 799 286 799 318 861 c 0,22,23
 350 921 350 921 385.5 974.5 c 128,-1,24
 421 1028 421 1028 462 1075 c 0,25,26
 541 1163 541 1163 632.5 1207 c 128,-1,27
 724 1251 724 1251 827 1253 c 2,28,-1
 837 1253 l 2,29,30
 1041 1251 1041 1251 1128 1075 c 0,0,1
865 335 m 0,31,32
 889 367 889 367 908 400 c 128,-1,33
 927 433 927 433 943 468 c 0,34,35
 974 537 974 537 993 634 c 0,36,37
 1003 685 1003 685 1007 727.5 c 128,-1,38
 1011 770 1011 770 1009 806 c 0,39,40
 1005 842 1005 842 998 877.5 c 128,-1,41
 991 913 991 913 979 948 c 256,42,43
 967 983 967 983 951.5 1010.5 c 128,-1,44
 936 1038 936 1038 916 1058 c 0,45,46
 896 1079 896 1079 868 1088.5 c 128,-1,47
 840 1098 840 1098 803 1098 c 2,48,-1
 797 1098 l 2,49,50
 721 1098 721 1098 666 1056 c 0,51,52
 639 1034 639 1034 612.5 1007.5 c 128,-1,53
 586 981 586 981 560 948 c 0,54,55
 534 914 534 914 512.5 879 c 128,-1,56
 491 844 491 844 474 809 c 0,57,58
 440 737 440 737 421 636 c 0,59,60
 410 587 410 587 405.5 545.5 c 128,-1,61
 401 504 401 504 401 469 c 0,62,63
 401 398 401 398 423 335 c 1,64,65
 441 269 441 269 492 244 c 0,66,67
 542 220 542 220 616 220 c 2,68,-1
 626 220 l 2,69,70
 700 220 700 220 760 244 c 0,71,72
 790 256 790 256 816 279 c 128,-1,73
 842 302 842 302 865 335 c 0,31,32
EndSplineSet
EndChar

StartChar: p
Encoding: 112 112 15
Width: 1352
GlyphClass: 2
Flags: W
LayerCount: 2
Fore
SplineSet
1108 1051 m 0,0,1
 1122 1014 1122 1014 1133 951 c 0,2,3
 1139 920 1139 920 1143.5 889.5 c 128,-1,4
 1148 859 1148 859 1152 827 c 256,5,6
 1156 795 1156 795 1159 766 c 128,-1,7
 1162 737 1162 737 1163 709 c 0,8,9
 1165 650 1165 650 1159 625 c 0,10,11
 1147 563 1147 563 1110 465 c 0,12,13
 1091 414 1091 414 1062.5 359 c 128,-1,14
 1034 304 1034 304 993 242 c 0,15,16
 964 200 964 200 938 166.5 c 128,-1,17
 912 133 912 133 888 105 c 0,18,19
 864 78 864 78 841 56 c 128,-1,20
 818 34 818 34 795 18 c 0,21,22
 750 -14 750 -14 703 -29 c 0,23,24
 680 -37 680 -37 654.5 -40 c 128,-1,25
 629 -43 629 -43 602 -43 c 0,26,27
 575 -44 575 -44 551.5 -42.5 c 128,-1,28
 528 -41 528 -41 509 -36 c 0,29,30
 472 -27 472 -27 439 -1 c 0,31,32
 413 20 413 20 400.5 48 c 128,-1,33
 388 76 388 76 383 104 c 1,34,-1
 224 -690 l 1,35,-1
 10 -690 l 1,36,37
 37 -577 37 -577 63 -467.5 c 128,-1,38
 89 -358 89 -358 115 -251 c 0,39,40
 126 -205 126 -205 137.5 -158.5 c 128,-1,41
 149 -112 149 -112 160 -63 c 256,42,43
 171 -14 171 -14 182.5 33.5 c 128,-1,44
 194 81 194 81 205 129 c 0,45,46
 243 291 243 291 273.5 444.5 c 128,-1,47
 304 598 304 598 335 750 c 0,48,49
 350 818 350 818 363 879 c 128,-1,50
 376 940 376 940 388 996.5 c 128,-1,51
 400 1053 400 1053 411.5 1106.5 c 128,-1,52
 423 1160 423 1160 435 1213 c 1,53,-1
 606 1213 l 1,54,-1
 579 1078 l 1,55,56
 603 1107 603 1107 640 1142 c 0,57,58
 660 1161 660 1161 677.5 1175 c 128,-1,59
 695 1189 695 1189 712 1200 c 0,60,61
 752 1227 752 1227 804 1240 c 0,62,63
 830 1247 830 1247 853.5 1250 c 128,-1,64
 877 1253 877 1253 898 1253 c 0,65,66
 983 1253 983 1253 1029 1196 c 0,67,68
 1076 1142 1076 1142 1108 1051 c 0,0,1
949 528 m 0,69,70
 966 559 966 559 976 583 c 128,-1,71
 986 607 986 607 992 624 c 0,72,73
 995 633 995 633 999.5 654.5 c 128,-1,74
 1004 676 1004 676 1004 695 c 0,75,76
 1003 713 1003 713 1002 731.5 c 128,-1,77
 1001 750 1001 750 999 769 c 0,78,79
 991 823 991 823 981.5 875.5 c 128,-1,80
 972 928 972 928 958 980 c 0,81,82
 950 1010 950 1010 942.5 1032 c 128,-1,83
 935 1054 935 1054 922.5 1069 c 128,-1,84
 910 1084 910 1084 891 1091 c 128,-1,85
 872 1098 872 1098 842 1098 c 0,86,87
 795 1098 795 1098 750 1072 c 0,88,89
 702 1047 702 1047 658 1006 c 0,90,91
 638 988 638 988 618 967.5 c 128,-1,92
 598 947 598 947 578 922 c 0,93,94
 538 873 538 873 524 815 c 2,95,-1
 482 604 l 1,96,-1
 444 397 l 2,97,98
 438 346 438 346 454 324 c 0,99,100
 462 313 462 313 474 301 c 128,-1,101
 486 289 486 289 501 276 c 0,102,103
 530 248 530 248 562 233 c 0,104,105
 576 226 576 226 594.5 221.5 c 128,-1,106
 613 217 613 217 633 217 c 0,107,108
 654 217 654 217 672.5 222 c 128,-1,109
 691 227 691 227 708 235 c 0,110,111
 744 253 744 253 772.5 279 c 128,-1,112
 801 305 801 305 825 335 c 0,113,114
 862 383 862 383 891.5 431.5 c 128,-1,115
 921 480 921 480 949 528 c 0,69,70
EndSplineSet
EndChar

StartChar: q
Encoding: 113 113 16
Width: 1425
GlyphClass: 2
Flags: W
LayerCount: 2
Fore
SplineSet
897 0 m 1,0,-1
 859 101 l 1,1,2
 842 84 842 84 826 69.5 c 128,-1,3
 810 55 810 55 794 41 c 0,4,5
 763 16 763 16 725 -4 c 0,6,7
 707 -13 707 -13 686 -20 c 128,-1,8
 665 -27 665 -27 642 -32 c 0,9,10
 620 -38 620 -38 594 -40.5 c 128,-1,11
 568 -43 568 -43 538 -43 c 0,12,13
 444 -43 444 -43 381 -3 c 0,14,15
 318 38 318 38 281 117 c 0,16,17
 238 200 238 200 237 323 c 0,18,19
 234 447 234 447 261 583 c 0,20,21
 291 732 291 732 346 862 c 0,22,23
 404 994 404 994 477 1079 c 0,24,25
 515 1122 515 1122 554.5 1154.5 c 128,-1,26
 594 1187 594 1187 636 1210 c 0,27,28
 718 1253 718 1253 819 1253 c 0,29,30
 909 1253 909 1253 967 1215 c 0,31,32
 1028 1174 1028 1174 1071 1097 c 0,33,34
 1112 1027 1112 1027 1121 903 c 0,35,36
 1133 776 1133 776 1106 632 c 0,37,38
 1098 584 1098 584 1087 536.5 c 128,-1,39
 1076 489 1076 489 1060 443 c 0,40,41
 1046 395 1046 395 1029 354 c 128,-1,42
 1012 313 1012 313 993 277 c 1,43,-1
 1087 117 l 1,44,-1
 1063 0 l 1,45,-1
 897 0 l 1,0,-1
607 217 m 0,46,47
 639 217 639 217 665 221.5 c 128,-1,48
 691 226 691 226 711 232 c 0,49,50
 750 245 750 245 773 263 c 1,51,-1
 618 546 l 1,52,-1
 749 681 l 1,53,-1
 895 421 l 1,54,55
 907 444 907 444 916 470 c 128,-1,56
 925 496 925 496 932 525 c 0,57,58
 938 554 938 554 943 579 c 128,-1,59
 948 604 948 604 953 628 c 0,60,61
 967 706 967 706 965 788 c 0,62,63
 964 868 964 868 953 921 c 0,64,65
 944 961 944 961 932 992.5 c 128,-1,66
 920 1024 920 1024 901 1049 c 0,67,68
 884 1074 884 1074 854 1086 c 128,-1,69
 824 1098 824 1098 785 1098 c 0,70,71
 749 1098 749 1098 717.5 1088.5 c 128,-1,72
 686 1079 686 1079 660 1058 c 0,73,74
 606 1017 606 1017 559 948 c 0,75,76
 514 880 514 880 473 782 c 0,77,78
 454 732 454 732 439.5 683.5 c 128,-1,79
 425 635 425 635 415 587 c 0,80,81
 402 515 402 515 403 463 c 0,82,83
 405 409 405 409 419 347 c 0,84,85
 425 325 425 325 437 302 c 0,86,87
 453 279 453 279 472 262 c 0,88,89
 484 252 484 252 497.5 243.5 c 128,-1,90
 511 235 511 235 528 229 c 0,91,92
 545 224 545 224 564.5 220.5 c 128,-1,93
 584 217 584 217 607 217 c 0,46,47
EndSplineSet
EndChar

StartChar: r
Encoding: 114 114 17
Width: 1000
GlyphClass: 2
Flags: W
LayerCount: 2
Fore
SplineSet
872 1031 m 1,0,1
 852 1062 852 1062 823 1082 c 0,2,3
 797 1098 797 1098 746 1098 c 0,4,5
 681 1098 681 1098 637 1057 c 0,6,7
 592 1015 592 1015 547 949 c 0,8,9
 530 924 530 924 518 900.5 c 128,-1,10
 506 877 506 877 495 854 c 0,11,12
 475 810 475 810 462 763 c 0,13,14
 454 740 454 740 449 718 c 128,-1,15
 444 696 444 696 439 674 c 0,16,17
 434 651 434 651 430.5 629.5 c 128,-1,18
 427 608 427 608 422 585 c 0,19,20
 420 574 420 574 417 558.5 c 128,-1,21
 414 543 414 543 411 525 c 0,22,23
 407 506 407 506 403.5 485.5 c 128,-1,24
 400 465 400 465 395 443 c 0,25,26
 391 420 391 420 387 396.5 c 128,-1,27
 383 373 383 373 378 348 c 0,28,29
 373 322 373 322 369 297.5 c 128,-1,30
 365 273 365 273 360 248 c 0,31,32
 350 190 350 190 339.5 128.5 c 128,-1,33
 329 67 329 67 316 0 c 1,34,-1
 103 0 l 1,35,36
 131 126 131 126 157 238.5 c 128,-1,37
 183 351 183 351 207 454 c 0,38,39
 217 497 217 497 226 539.5 c 128,-1,40
 235 582 235 582 246 624 c 0,41,42
 256 666 256 666 264.5 704.5 c 128,-1,43
 273 743 273 743 281 778 c 256,44,45
 289 813 289 813 296 842 c 128,-1,46
 303 871 303 871 308 894 c 256,47,48
 313 917 313 917 316.5 932 c 128,-1,49
 320 947 320 947 321 953 c 0,50,51
 330 995 330 995 329 1040 c 0,52,53
 329 1063 329 1063 327.5 1084 c 128,-1,54
 326 1105 326 1105 324 1125 c 0,55,56
 323 1136 323 1136 321.5 1151 c 128,-1,57
 320 1166 320 1166 318 1180 c 0,58,59
 316 1197 316 1197 313 1214 c 1,60,-1
 484 1214 l 1,61,-1
 517 1095 l 1,62,63
 527 1109 527 1109 535.5 1121 c 128,-1,64
 544 1133 544 1133 551 1142 c 0,65,66
 566 1163 566 1163 600 1189 c 0,67,68
 627 1210 627 1210 653 1223 c 128,-1,69
 679 1236 679 1236 703 1243 c 0,70,71
 755 1254 755 1254 802 1254 c 0,72,73
 803 1254 803 1254 808 1253.5 c 128,-1,74
 813 1253 813 1253 823 1253 c 0,75,76
 832 1253 832 1253 843.5 1252 c 128,-1,77
 855 1251 855 1251 868 1249 c 0,78,79
 895 1248 895 1248 921 1237 c 0,80,81
 947 1229 947 1229 966 1213 c 1,82,-1
 872 1031 l 1,0,1
EndSplineSet
EndChar

StartChar: s
Encoding: 115 115 18
Width: 1290
GlyphClass: 2
Flags: W
LayerCount: 2
Fore
SplineSet
855 95 m 0,0,1
 791 34 791 34 703 -4 c 0,2,3
 612 -43 612 -43 508 -43 c 0,4,5
 397 -43 397 -43 331 -7 c 0,6,7
 263 29 263 29 233 95 c 0,8,9
 225 110 225 110 219 125 c 128,-1,10
 213 140 213 140 208 154 c 256,11,12
 203 168 203 168 200.5 183 c 128,-1,13
 198 198 198 198 196 213 c 0,14,15
 194 229 194 229 193.5 245 c 128,-1,16
 193 261 193 261 193 279 c 0,17,18
 194 296 194 296 195 316 c 128,-1,19
 196 336 196 336 198 359 c 1,20,-1
 408 359 l 1,21,22
 399 322 399 322 402 299 c 256,23,24
 405 276 405 276 415 260 c 0,25,26
 420 252 420 252 430.5 245 c 128,-1,27
 441 238 441 238 456 232 c 256,28,29
 471 226 471 226 498.5 221.5 c 128,-1,30
 526 217 526 217 565 217 c 0,31,32
 596 217 596 217 619.5 220.5 c 128,-1,33
 643 224 643 224 660 229 c 256,34,35
 677 234 677 234 695 243 c 128,-1,36
 713 252 713 252 732 267 c 0,37,38
 764 290 764 290 784 318 c 0,39,40
 802 343 802 343 811 392 c 0,41,42
 820 443 820 443 794 477 c 0,43,44
 781 493 781 493 765.5 505 c 128,-1,45
 750 517 750 517 732 527 c 0,46,47
 726 529 726 529 716.5 533 c 128,-1,48
 707 537 707 537 693 543 c 256,49,50
 679 549 679 549 665 554.5 c 128,-1,51
 651 560 651 560 636 566 c 0,52,53
 603 578 603 578 566 594 c 0,54,55
 542 603 542 603 519 613 c 128,-1,56
 496 623 496 623 475 636 c 0,57,58
 433 663 433 663 406 684 c 0,59,60
 362 725 362 725 350 777 c 0,61,62
 336 828 336 828 348 906 c 0,63,64
 356 950 356 950 367 985.5 c 128,-1,65
 378 1021 378 1021 395 1048 c 0,66,67
 427 1104 427 1104 488 1155 c 0,68,69
 519 1182 519 1182 550.5 1201 c 128,-1,70
 582 1220 582 1220 615 1231 c 0,71,72
 648 1243 648 1243 685.5 1248 c 128,-1,73
 723 1253 723 1253 766 1253 c 0,74,75
 822 1253 822 1253 865.5 1247.5 c 128,-1,76
 909 1242 909 1242 941 1228 c 0,77,78
 1003 1204 1003 1204 1040 1146 c 0,79,80
 1060 1110 1060 1110 1069 1060 c 0,81,82
 1074 1034 1074 1034 1074 1006 c 128,-1,83
 1074 978 1074 978 1067 948 c 1,84,-1
 899 948 l 1,85,86
 907 971 907 971 905 992 c 0,87,88
 904 1001 904 1001 900 1011.5 c 128,-1,89
 896 1022 896 1022 891 1033 c 0,90,91
 878 1062 878 1062 843 1081 c 0,92,93
 812 1098 812 1098 739 1098 c 0,94,95
 715 1098 715 1098 693.5 1095.5 c 128,-1,96
 672 1093 672 1093 653 1086 c 0,97,98
 634 1080 634 1080 617.5 1071.5 c 128,-1,99
 601 1063 601 1063 587 1052 c 0,100,101
 572 1041 572 1041 560.5 1029 c 128,-1,102
 549 1017 549 1017 541 1006 c 0,103,104
 526 984 526 984 515 936 c 0,105,106
 507 895 507 895 517 872 c 0,107,108
 523 860 523 860 531.5 848 c 128,-1,109
 540 836 540 836 553 822 c 0,110,111
 573 802 573 802 594 790 c 0,112,113
 615 780 615 780 650 768 c 2,114,-1
 746 736 l 2,115,116
 789 722 789 722 824 709 c 128,-1,117
 859 696 859 696 887 682 c 0,118,119
 915 669 915 669 936.5 654 c 128,-1,120
 958 639 958 639 974 622 c 0,121,122
 1009 583 1009 583 1019 522 c 0,123,124
 1030 458 1030 458 1006 355 c 0,125,126
 996 313 996 313 982.5 277.5 c 128,-1,127
 969 242 969 242 952 213 c 0,128,129
 934 183 934 183 910 154 c 128,-1,130
 886 125 886 125 855 95 c 0,0,1
EndSplineSet
EndChar

StartChar: t
Encoding: 116 116 19
Width: 1223
GlyphClass: 2
Flags: W
LayerCount: 2
Fore
SplineSet
322 41 m 0,0,1
 313 56 313 56 308 74.5 c 128,-1,2
 303 93 303 93 301 116 c 0,3,4
 298 160 298 160 315 237 c 2,5,-1
 491 1029 l 1,6,-1
 248 1029 l 1,7,-1
 285 1214 l 1,8,-1
 533 1214 l 1,9,-1
 662 1736 l 1,10,-1
 741 1736 l 1,11,-1
 793 1612 l 1,12,-1
 705 1214 l 1,13,-1
 956 1214 l 1,14,-1
 1001 1105 l 1,15,-1
 986 1029 l 1,16,-1
 668 1029 l 1,17,-1
 524 325 l 2,18,19
 521 308 521 308 519.5 291.5 c 128,-1,20
 518 275 518 275 517 258 c 0,21,22
 517 223 517 223 532 208 c 0,23,24
 544 196 544 196 565 193 c 0,25,26
 575 191 575 191 586.5 190 c 128,-1,27
 598 189 598 189 610 189 c 0,28,29
 623 189 623 189 639 191 c 128,-1,30
 655 193 655 193 672 196 c 0,31,32
 690 200 690 200 706.5 204 c 128,-1,33
 723 208 723 208 741 215 c 0,34,35
 763 223 763 223 783.5 237.5 c 128,-1,36
 804 252 804 252 810 257 c 1,37,-1
 820 32 l 1,38,39
 812 27 812 27 795 18.5 c 128,-1,40
 778 10 778 10 764 2 c 0,41,42
 757 -1 757 -1 748 -4 c 128,-1,43
 739 -7 739 -7 729.5 -9.5 c 128,-1,44
 720 -12 720 -12 711.5 -14.5 c 128,-1,45
 703 -17 703 -17 697 -18 c 0,46,47
 662 -26 662 -26 615 -34 c 0,48,49
 592 -38 592 -38 563 -40.5 c 128,-1,50
 534 -43 534 -43 498 -43 c 0,51,52
 430 -43 430 -43 385 -18 c 0,53,54
 362 -6 362 -6 346.5 9 c 128,-1,55
 331 24 331 24 322 41 c 0,0,1
EndSplineSet
EndChar

StartChar: u
Encoding: 117 117 20
Width: 1442
GlyphClass: 2
Flags: W
LayerCount: 2
Fore
SplineSet
499 -43 m 0,0,1
 447 -43 447 -43 405 -32 c 128,-1,2
 363 -21 363 -21 331 2 c 0,3,4
 266 52 266 52 241 135 c 0,5,6
 228 178 228 178 228 252 c 0,7,8
 228 288 228 288 233.5 330.5 c 128,-1,9
 239 373 239 373 250 422 c 2,10,-1
 424 1214 l 1,11,-1
 591 1214 l 1,12,-1
 441 424 l 2,13,14
 436 400 436 400 434.5 378 c 128,-1,15
 433 356 433 356 433 337 c 0,16,17
 433 297 433 297 440 283 c 0,18,19
 458 238 458 238 496 228 c 0,20,21
 515 223 515 223 536 220 c 128,-1,22
 557 217 557 217 586 217 c 0,23,24
 607 217 607 217 628.5 221.5 c 128,-1,25
 650 226 650 226 668 233 c 0,26,27
 685 240 685 240 705 250.5 c 128,-1,28
 725 261 725 261 741 274 c 0,29,30
 757 288 757 288 768.5 300.5 c 128,-1,31
 780 313 780 313 794 334 c 0,32,33
 827 385 827 385 847 429 c 128,-1,34
 867 473 867 473 883 516 c 0,35,36
 894 548 894 548 904.5 588.5 c 128,-1,37
 915 629 915 629 926 678 c 2,38,-1
 1038 1214 l 1,39,-1
 1203 1214 l 1,40,41
 1187 1131 1187 1131 1173 1053 c 0,42,43
 1167 1020 1167 1020 1160 984.5 c 128,-1,44
 1153 949 1153 949 1147 915.5 c 128,-1,45
 1141 882 1141 882 1135.5 851.5 c 128,-1,46
 1130 821 1130 821 1125 797 c 0,47,48
 1117 757 1117 757 1110 717.5 c 128,-1,49
 1103 678 1103 678 1096 637 c 0,50,51
 1089 597 1089 597 1082 560.5 c 128,-1,52
 1075 524 1075 524 1070 490 c 0,53,54
 1067 473 1067 473 1063 446 c 128,-1,55
 1059 419 1059 419 1054.5 391.5 c 128,-1,56
 1050 364 1050 364 1046.5 339.5 c 128,-1,57
 1043 315 1043 315 1042 303 c 0,58,59
 1040 283 1040 283 1042.5 253.5 c 128,-1,60
 1045 224 1045 224 1048 198 c 256,61,62
 1051 172 1051 172 1054 153.5 c 128,-1,63
 1057 135 1057 135 1061 111 c 0,64,65
 1072 54 1072 54 1088 0 c 1,66,-1
 884 0 l 1,67,-1
 859 215 l 1,68,69
 853 206 853 206 847.5 195 c 128,-1,70
 842 184 842 184 834 172 c 0,71,72
 826 161 826 161 816.5 147.5 c 128,-1,73
 807 134 807 134 798 122 c 0,74,75
 794 116 794 116 786.5 107 c 128,-1,76
 779 98 779 98 770 88.5 c 128,-1,77
 761 79 761 79 751.5 69.5 c 128,-1,78
 742 60 742 60 733 53 c 0,79,80
 704 30 704 30 679 12.5 c 128,-1,81
 654 -5 654 -5 620 -20 c 0,82,83
 592 -32 592 -32 561.5 -37.5 c 128,-1,84
 531 -43 531 -43 499 -43 c 0,0,1
EndSplineSet
EndChar

StartChar: v
Encoding: 118 118 21
Width: 1350
GlyphClass: 2
Flags: W
LayerCount: 2
Fore
SplineSet
529 334 m 1,0,-1
 985 1214 l 1,1,-1
 1156 1214 l 1,2,-1
 570 0 l 1,3,-1
 356 0 l 1,4,-1
 256 1214 l 1,5,-1
 427 1214 l 1,6,-1
 529 334 l 1,0,-1
EndSplineSet
EndChar

StartChar: w
Encoding: 119 119 22
Width: 1905
GlyphClass: 2
Flags: W
LayerCount: 2
Fore
SplineSet
1149 219 m 1,0,-1
 1567 1214 l 1,1,-1
 1738 1214 l 1,2,-1
 1214 0 l 1,3,-1
 999 0 l 1,4,-1
 988 702 l 1,5,-1
 695 0 l 1,6,-1
 480 0 l 1,7,-1
 443 1214 l 1,8,-1
 616 1214 l 1,9,-1
 637 219 l 1,10,-1
 940 889 l 1,11,-1
 1111 889 l 1,12,-1
 1149 219 l 1,0,-1
EndSplineSet
EndChar

StartChar: x
Encoding: 120 120 23
Width: 1378
GlyphClass: 2
Flags: W
LayerCount: 2
Fore
SplineSet
1228 1213 m 1,0,-1
 808 633 l 1,1,-1
 1019 0 l 1,2,-1
 804 0 l 1,3,-1
 678 467 l 1,4,-1
 366 0 l 1,5,-1
 151 0 l 1,6,-1
 602 635 l 1,7,-1
 428 1214 l 1,8,-1
 594 1214 l 1,9,-1
 736 770 l 1,10,-1
 1055 1214 l 1,11,-1
 1228 1214 l 1,12,-1
 1228 1213 l 1,0,-1
EndSplineSet
EndChar

StartChar: y
Encoding: 121 121 24
Width: 1425
GlyphClass: 2
Flags: W
LayerCount: 2
Fore
SplineSet
1124 1214 m 1,0,-1
 1295 1214 l 1,1,2
 1218 1049 1218 1049 1147.5 899.5 c 128,-1,3
 1077 750 1077 750 1012 613 c 0,4,5
 986 555 986 555 959 497.5 c 128,-1,6
 932 440 932 440 905 382 c 0,7,8
 850 268 850 268 806 169 c 0,9,10
 783 121 783 121 763.5 79.5 c 128,-1,11
 744 38 744 38 728 2 c 0,12,13
 711 -33 711 -33 700 -56 c 128,-1,14
 689 -79 689 -79 684 -92 c 0,15,16
 658 -148 658 -148 635.5 -195.5 c 128,-1,17
 613 -243 613 -243 595 -285 c 0,18,19
 576 -327 576 -327 559.5 -363 c 128,-1,20
 543 -399 543 -399 529 -428 c 256,21,22
 515 -457 515 -457 502.5 -482 c 128,-1,23
 490 -507 490 -507 479 -527 c 256,24,25
 468 -547 468 -547 457.5 -563 c 128,-1,26
 447 -579 447 -579 436 -592 c 0,27,28
 423 -606 423 -606 411 -617.5 c 128,-1,29
 399 -629 399 -629 388 -639 c 0,30,31
 364 -657 364 -657 340 -667 c 0,32,33
 326 -672 326 -672 312 -676 c 128,-1,34
 298 -680 298 -680 282 -682 c 256,35,36
 266 -684 266 -684 247 -685.5 c 128,-1,37
 228 -687 228 -687 205 -687 c 0,38,39
 155 -687 155 -687 117 -666 c 0,40,41
 99 -656 99 -656 84 -643 c 128,-1,42
 69 -630 69 -630 58 -612 c 1,43,-1
 119 -422 l 1,44,45
 124 -426 124 -426 130 -430.5 c 128,-1,46
 136 -435 136 -435 144 -439 c 0,47,48
 161 -447 161 -447 185 -451 c 0,49,50
 213 -456 213 -456 254 -456 c 0,51,52
 268 -455 268 -455 279 -454 c 128,-1,53
 290 -453 290 -453 301 -449 c 0,54,55
 313 -444 313 -444 319 -439.5 c 128,-1,56
 325 -435 325 -435 330 -430 c 0,57,58
 348 -412 348 -412 359 -393 c 0,59,60
 364 -384 364 -384 368 -375 c 128,-1,61
 372 -366 372 -366 376 -358 c 0,62,63
 381 -350 381 -350 387 -336.5 c 128,-1,64
 393 -323 393 -323 401 -306 c 0,65,66
 409 -287 409 -287 419 -266.5 c 128,-1,67
 429 -246 429 -246 440 -223 c 0,68,69
 451 -199 451 -199 463.5 -173.5 c 128,-1,70
 476 -148 476 -148 489 -120 c 0,71,72
 503 -93 503 -93 515 -65.5 c 128,-1,73
 527 -38 527 -38 540 -9 c 0,74,75
 555 23 555 23 573.5 62 c 128,-1,76
 592 101 592 101 611.5 143.5 c 128,-1,77
 631 186 631 186 651 229 c 128,-1,78
 671 272 671 272 689 311 c 1,79,-1
 471 1214 l 1,80,-1
 639 1214 l 1,81,-1
 797 529 l 1,82,-1
 1124 1214 l 1,0,-1
EndSplineSet
EndChar

StartChar: z
Encoding: 122 122 25
Width: 1415
GlyphClass: 2
Flags: W
LayerCount: 2
Fore
SplineSet
1203 1031 m 1,0,-1
 520 236 l 1,1,-1
 1093 236 l 1,2,-1
 1112 0 l 1,3,-1
 203 0 l 1,4,-1
 249 229 l 1,5,-1
 1004 1037 l 1,6,-1
 451 1037 l 1,7,-1
 489 1214 l 1,8,-1
 1238 1214 l 1,9,-1
 1203 1031 l 1,0,-1
EndSplineSet
EndChar

StartChar: a
Encoding: 97 97 26
Width: 1442
GlyphClass: 2
Flags: W
LayerCount: 2
Fore
SplineSet
1078 0 m 1,0,1
 1067 -2 1067 -2 1057.5 -5.5 c 128,-1,2
 1048 -9 1048 -9 1040 -11 c 256,3,4
 1032 -13 1032 -13 1014.5 -17 c 128,-1,5
 997 -21 997 -21 977 -22 c 0,6,7
 965 -22 965 -22 950 -20 c 128,-1,8
 935 -18 935 -18 921 -13.5 c 128,-1,9
 907 -9 907 -9 895 -3 c 128,-1,10
 883 3 883 3 877 10 c 0,11,12
 865 25 865 25 858.5 46.5 c 128,-1,13
 852 68 852 68 848 89 c 128,-1,14
 844 110 844 110 842.5 127.5 c 128,-1,15
 841 145 841 145 841 152 c 1,16,17
 827 137 827 137 813.5 121.5 c 128,-1,18
 800 106 800 106 786 92 c 0,19,20
 773 78 773 78 760 66.5 c 128,-1,21
 747 55 747 55 732 42 c 0,22,23
 718 29 718 29 704.5 19 c 128,-1,24
 691 9 691 9 677 2 c 0,25,26
 651 -14 651 -14 623.5 -23 c 128,-1,27
 596 -32 596 -32 567 -36 c 256,28,29
 538 -40 538 -40 510 -41.5 c 128,-1,30
 482 -43 482 -43 454 -43 c 0,31,32
 315 -43 315 -43 253 59 c 0,33,34
 221 110 221 110 210 176 c 0,35,36
 205 208 205 208 205.5 243.5 c 128,-1,37
 206 279 206 279 216 317 c 0,38,39
 223 348 223 348 231.5 374.5 c 128,-1,40
 240 401 240 401 248 422 c 0,41,42
 257 444 257 444 265.5 462.5 c 128,-1,43
 274 481 274 481 284 496 c 0,44,45
 307 534 307 534 332 561 c 128,-1,46
 357 588 357 588 371 600 c 0,47,48
 397 624 397 624 424.5 643 c 128,-1,49
 452 662 452 662 481 679 c 256,50,51
 510 696 510 696 538 707 c 128,-1,52
 566 718 566 718 600 723 c 0,53,54
 614 726 614 726 633.5 728 c 128,-1,55
 653 730 653 730 671 731 c 0,56,57
 688 733 688 733 706 733 c 128,-1,58
 724 733 724 733 743 733 c 2,59,-1
 814 733 l 1,60,-1
 877 733 l 2,61,62
 931 733 931 733 946 756 c 0,63,64
 962 778 962 778 971 819 c 2,65,-1
 986 888 l 2,66,67
 996 940 996 940 992 982 c 0,68,69
 986 1025 986 1025 962 1048 c 0,70,71
 907 1098 907 1098 803 1098 c 0,72,73
 738 1098 738 1098 701 1088 c 0,74,75
 682 1083 682 1083 667.5 1077.5 c 128,-1,76
 653 1072 653 1072 643 1066 c 0,77,78
 585 1030 585 1030 562 948 c 1,79,-1
 398 948 l 1,80,81
 409 1006 409 1006 443 1067 c 0,82,83
 478 1127 478 1127 541 1170 c 0,84,85
 606 1214 606 1214 683 1234 c 0,86,87
 761 1254 761 1254 833 1254 c 0,88,89
 921 1254 921 1254 985 1230 c 0,90,91
 1049 1208 1049 1208 1094 1166 c 0,92,93
 1185 1082 1185 1082 1150 909 c 0,94,95
 1111 716 1111 716 1080 562 c 0,96,97
 1067 497 1067 497 1055 434 c 128,-1,98
 1043 371 1043 371 1033 320.5 c 128,-1,99
 1023 270 1023 270 1017.5 238 c 128,-1,100
 1012 206 1012 206 1012 203 c 0,101,102
 1014 188 1014 188 1024.5 183 c 128,-1,103
 1035 178 1035 178 1046 178 c 2,104,-1
 1054 178 l 1,105,-1
 1094 92 l 1,106,-1
 1078 0 l 1,0,1
921 594 m 1,107,-1
 811 594 l 1,108,-1
 725 594 l 2,109,110
 703 594 703 594 687.5 594 c 128,-1,111
 672 594 672 594 661 592 c 0,112,113
 619 589 619 589 576 569 c 0,114,115
 554 559 554 559 536.5 547.5 c 128,-1,116
 519 536 519 536 505 522 c 0,117,118
 482 500 482 500 466 476.5 c 128,-1,119
 450 453 450 453 442 436 c 0,120,121
 425 405 425 405 414 350 c 0,122,123
 408 328 408 328 410 304 c 0,124,125
 410 282 410 282 429 258 c 0,126,127
 450 229 450 229 495 223 c 0,128,129
 539 217 539 217 573 217 c 0,130,131
 596 217 596 217 619 220 c 128,-1,132
 642 223 642 223 667 228 c 0,133,134
 691 234 691 234 710 239.5 c 128,-1,135
 729 245 729 245 742 250 c 0,136,137
 756 256 756 256 769 262.5 c 128,-1,138
 782 269 782 269 793 276 c 0,139,140
 815 289 815 289 833 310 c 0,141,142
 852 331 852 331 864 360 c 0,143,144
 877 391 877 391 887 434 c 2,145,-1
 921 594 l 1,107,-1
EndSplineSet
EndChar

StartChar: b
Encoding: 98 98 27
Width: 1438
GlyphClass: 2
Flags: W
LayerCount: 2
Fore
SplineSet
297 383 m 0,0,1
 305 410 305 410 321 486 c 0,2,3
 330 524 330 524 340 571.5 c 128,-1,4
 350 619 350 619 363 676 c 256,5,6
 376 733 376 733 389 794.5 c 128,-1,7
 402 856 402 856 417 924 c 0,8,9
 431 993 431 993 446 1060.5 c 128,-1,10
 461 1128 461 1128 476 1197 c 0,11,12
 547 1521 547 1521 632 1914 c 1,13,-1
 802 1914 l 1,14,-1
 623 1119 l 1,15,16
 633 1133 633 1133 644 1145 c 128,-1,17
 655 1157 655 1157 666 1168 c 0,18,19
 690 1191 690 1191 729 1213 c 0,20,21
 751 1226 751 1226 772 1233 c 128,-1,22
 793 1240 793 1240 816 1245 c 0,23,24
 838 1249 838 1249 859.5 1251 c 128,-1,25
 881 1253 881 1253 904 1253 c 0,26,27
 958 1253 958 1253 997 1242 c 0,28,29
 1015 1236 1015 1236 1031 1229 c 128,-1,30
 1047 1222 1047 1222 1061 1211 c 0,31,32
 1089 1190 1089 1190 1106 1159 c 0,33,34
 1116 1142 1116 1142 1124.5 1125 c 128,-1,35
 1133 1108 1133 1108 1141 1088 c 0,36,37
 1176 1007 1176 1007 1189 896 c 0,38,39
 1195 841 1195 841 1198 779.5 c 128,-1,40
 1201 718 1201 718 1200 649 c 0,41,42
 1197 506 1197 506 1163 382 c 0,43,44
 1131 258 1131 258 1054 160 c 0,45,46
 1035 137 1035 137 1014 115.5 c 128,-1,47
 993 94 993 94 969 74 c 0,48,49
 922 36 922 36 868 8 c 0,50,51
 841 -6 841 -6 814 -16 c 128,-1,52
 787 -26 787 -26 758 -34 c 0,53,54
 701 -48 701 -48 647 -43 c 0,55,56
 594 -40 594 -40 547 -23 c 0,57,58
 503 -8 503 -8 472 27 c 0,59,60
 453 47 453 47 442 72 c 0,61,62
 437 86 437 86 432 99.5 c 128,-1,63
 427 113 427 113 422 129 c 1,64,-1
 383 0 l 1,65,-1
 164 0 l 1,66,67
 171 19 171 19 185 57.5 c 128,-1,68
 199 96 199 96 214.5 138 c 128,-1,69
 230 180 230 180 243.5 217 c 128,-1,70
 257 254 257 254 262 270 c 0,71,72
 273 303 273 303 282 331.5 c 128,-1,73
 291 360 291 360 297 383 c 0,0,1
894 287 m 0,74,75
 921 310 921 310 945 343.5 c 128,-1,76
 969 377 969 377 984 403 c 0,77,78
 995 423 995 423 1002 447 c 128,-1,79
 1009 471 1009 471 1017 497 c 0,80,81
 1024 523 1024 523 1029 551 c 128,-1,82
 1034 579 1034 579 1037 609 c 0,83,84
 1041 639 1041 639 1042 669.5 c 128,-1,85
 1043 700 1043 700 1041 732 c 0,86,87
 1038 786 1038 786 1033.5 828.5 c 128,-1,88
 1029 871 1029 871 1022 903 c 0,89,90
 1016 935 1016 935 1008.5 960.5 c 128,-1,91
 1001 986 1001 986 990 1007 c 0,92,93
 964 1063 964 1063 927 1081 c 0,94,95
 909 1090 909 1090 890.5 1094 c 128,-1,96
 872 1098 872 1098 854 1098 c 0,97,98
 816 1098 816 1098 783 1088 c 128,-1,99
 750 1078 750 1078 721 1055 c 0,100,101
 664 1014 664 1014 625 964 c 0,102,103
 599 932 599 932 586 906 c 0,104,105
 579 892 579 892 572.5 877.5 c 128,-1,106
 566 863 566 863 560 846 c 256,107,108
 554 829 554 829 549.5 809 c 128,-1,109
 545 789 545 789 540 766 c 256,110,111
 535 743 535 743 530 715.5 c 128,-1,112
 525 688 525 688 520 653 c 0,113,114
 511 600 511 600 504.5 554 c 128,-1,115
 498 508 498 508 493 469 c 0,116,117
 484 392 484 392 513 326 c 0,118,119
 531 290 531 290 554.5 264.5 c 128,-1,120
 578 239 578 239 607 230 c 0,121,122
 637 222 637 222 671.5 220.5 c 128,-1,123
 706 219 706 219 745 219 c 0,124,125
 756 219 756 219 777.5 223.5 c 128,-1,126
 799 228 799 228 819 237 c 0,127,128
 840 246 840 246 856.5 258 c 128,-1,129
 873 270 873 270 894 287 c 0,74,75
EndSplineSet
EndChar

StartChar: c
Encoding: 99 99 28
Width: 1382
GlyphClass: 2
Flags: W
LayerCount: 2
Fore
SplineSet
551 -43 m 0,0,1
 456 -43 456 -43 380 -2 c 0,2,3
 303 40 303 40 264 127 c 0,4,5
 244 172 244 172 233 223.5 c 128,-1,6
 222 275 222 275 220 335 c 256,7,8
 218 395 218 395 223.5 457 c 128,-1,9
 229 519 229 519 242 585 c 0,10,11
 275 745 275 745 329 865 c 0,12,13
 357 925 357 925 390.5 977 c 128,-1,14
 424 1029 424 1029 465 1074 c 0,15,16
 506 1120 506 1120 549.5 1154 c 128,-1,17
 593 1188 593 1188 641 1210 c 0,18,19
 736 1253 736 1253 834 1253 c 0,20,21
 999 1253 999 1253 1082 1154 c 0,22,23
 1110 1121 1110 1121 1126 1068 c 0,24,25
 1133 1042 1133 1042 1137.5 1012 c 128,-1,26
 1142 982 1142 982 1145 948 c 1,27,-1
 968 948 l 1,28,29
 966 961 966 961 964.5 972.5 c 128,-1,30
 963 984 963 984 961 994 c 0,31,32
 958 1006 958 1006 954.5 1017 c 128,-1,33
 951 1028 951 1028 946 1036 c 0,34,35
 935 1050 935 1050 922.5 1060.5 c 128,-1,36
 910 1071 910 1071 894 1080 c 0,37,38
 878 1090 878 1090 855.5 1094 c 128,-1,39
 833 1098 833 1098 804 1098 c 0,40,41
 724 1098 724 1098 650 1042 c 0,42,43
 575 987 575 987 521 890 c 0,44,45
 513 874 513 874 506.5 860.5 c 128,-1,46
 500 847 500 847 494 835 c 0,47,48
 482 813 482 813 473 785 c 0,49,50
 468 772 468 772 464.5 757.5 c 128,-1,51
 461 743 461 743 457 727 c 0,52,53
 453 710 453 710 449 691.5 c 128,-1,54
 445 673 445 673 440 650 c 0,55,56
 431 603 431 603 426.5 563.5 c 128,-1,57
 422 524 422 524 421 489 c 0,58,59
 420 421 420 421 430 355 c 0,60,61
 434 341 434 341 437 327.5 c 128,-1,62
 440 314 440 314 443 301 c 0,63,64
 449 276 449 276 467 258 c 0,65,66
 476 250 476 250 489.5 241.5 c 128,-1,67
 503 233 503 233 520 228 c 0,68,69
 556 217 556 217 617 217 c 0,70,71
 643 217 643 217 666 218.5 c 128,-1,72
 689 220 689 220 712 222 c 0,73,74
 735 225 735 225 750.5 230 c 128,-1,75
 766 235 766 235 777 240 c 0,76,77
 798 251 798 251 809 265 c 0,78,79
 815 272 815 272 819.5 283 c 128,-1,80
 824 294 824 294 829 308 c 1,81,-1
 1039 308 l 1,82,83
 1030 265 1030 265 1011 226 c 0,84,85
 989 185 989 185 966 152 c 0,86,87
 953 135 953 135 940 119 c 128,-1,88
 927 103 927 103 913 89 c 0,89,90
 886 62 886 62 866 45 c 0,91,92
 792 -13 792 -13 714 -28 c 256,93,94
 636 -43 636 -43 551 -43 c 0,0,1
EndSplineSet
EndChar

StartChar: d
Encoding: 100 100 29
Width: 1380
GlyphClass: 2
Flags: W
LayerCount: 2
Fore
SplineSet
752 0 m 1,0,-1
 789 182 l 1,1,2
 743 116 743 116 699 74 c 0,3,4
 653 30 653 30 609 4 c 0,5,6
 563 -24 563 -24 522 -34 c 0,7,8
 480 -46 480 -46 429 -43 c 0,9,10
 376 -43 376 -43 346 -30 c 0,11,12
 314 -17 314 -17 293 7 c 0,13,14
 282 19 282 19 273.5 32 c 128,-1,15
 265 45 265 45 259 59 c 0,16,17
 252 73 252 73 245.5 88 c 128,-1,18
 239 103 239 103 233 119 c 0,19,20
 219 156 219 156 207 205 c 0,21,22
 200 231 200 231 194.5 259 c 128,-1,23
 189 287 189 287 184 318 c 0,24,25
 174 377 174 377 169 448 c 0,26,27
 166 482 166 482 165.5 516.5 c 128,-1,28
 165 551 165 551 166 586 c 0,29,30
 168 662 168 662 178 728.5 c 128,-1,31
 188 795 188 795 207 854 c 0,32,33
 243 972 243 972 338 1077 c 0,34,35
 415 1163 415 1163 506 1207 c 0,36,37
 598 1253 598 1253 698 1253 c 0,38,39
 727 1253 727 1253 751.5 1249 c 128,-1,40
 776 1245 776 1245 796 1236 c 0,41,42
 838 1219 838 1219 869 1190 c 0,43,44
 887 1175 887 1175 907 1149 c 0,45,46
 928 1123 928 1123 948 1083 c 1,47,-1
 1158 1913 l 1,48,-1
 1330 1913 l 1,49,-1
 1091 938 l 2,50,51
 1078 878 1078 878 1067 820 c 128,-1,52
 1056 762 1056 762 1045 707 c 0,53,54
 1035 659 1035 659 1027 611 c 0,55,56
 1022 587 1022 587 1018 564 c 128,-1,57
 1014 541 1014 541 1009 519 c 0,58,59
 1005 497 1005 497 1002 477 c 128,-1,60
 999 457 999 457 996 438 c 0,61,62
 990 399 990 399 987 377 c 0,63,64
 983 352 983 352 981.5 323.5 c 128,-1,65
 980 295 980 295 979 263 c 256,66,67
 978 231 978 231 978 200 c 128,-1,68
 978 169 978 169 978 139 c 0,69,70
 980 105 980 105 980.5 70.5 c 128,-1,71
 981 36 981 36 983 0 c 1,72,-1
 752 0 l 1,0,-1
746 305 m 0,73,74
 797 364 797 364 819 427 c 0,75,76
 842 490 842 490 861 569 c 0,77,78
 887 680 887 680 888 768 c 0,79,80
 890 857 890 857 876 905 c 0,81,82
 851 997 851 997 790 1053 c 0,83,84
 730 1109 730 1109 640 1092 c 0,85,86
 570 1080 570 1080 516 1038 c 0,87,88
 461 997 461 997 414 932 c 0,89,90
 387 897 387 897 372 844 c 0,91,92
 357 792 357 792 348 734 c 0,93,94
 343 705 343 705 341.5 677.5 c 128,-1,95
 340 650 340 650 339 624 c 0,96,97
 339 572 339 572 342 539 c 0,98,99
 344 516 344 516 346 497.5 c 128,-1,100
 348 479 348 479 350 464 c 0,101,102
 352 446 352 446 354.5 433 c 128,-1,103
 357 420 357 420 359 409 c 128,-1,104
 361 398 361 398 364 387.5 c 128,-1,105
 367 377 367 377 371 365 c 0,106,107
 374 354 374 354 378.5 342.5 c 128,-1,108
 383 331 383 331 388 317 c 0,109,110
 394 302 394 302 399.5 289.5 c 128,-1,111
 405 277 405 277 410 267 c 0,112,113
 420 248 420 248 437 236 c 0,114,115
 446 231 446 231 458 227 c 128,-1,116
 470 223 470 223 485 221 c 256,117,118
 500 219 500 219 520 219 c 128,-1,119
 540 219 540 219 566 219 c 0,120,121
 594 219 594 219 619 224 c 128,-1,122
 644 229 644 229 667 241 c 0,123,124
 712 266 712 266 746 305 c 0,73,74
EndSplineSet
EndChar

StartChar: L
Encoding: 76 76 30
Width: 1107
GlyphClass: 2
Flags: W
LayerCount: 2
Fore
SplineSet
428 297 m 1,0,-1
 959 297 l 1,1,-1
 1007 168 l 1,2,-1
 973 0 l 1,3,-1
 100 0 l 1,4,-1
 524 1913 l 1,5,-1
 715 1913 l 1,6,-1
 428 297 l 1,0,-1
EndSplineSet
EndChar

StartChar: grave
Encoding: 96 96 31
Width: 1706
GlyphClass: 2
Flags: W
LayerCount: 2
Fore
SplineSet
735 1914 m 1,0,-1
 952 1523 l 1,1,-1
 786 1356 l 1,2,-1
 544 1723 l 1,3,-1
 735 1914 l 1,0,-1
EndSplineSet
EndChar

StartChar: A
Encoding: 65 65 32
Width: 1583
GlyphClass: 2
Flags: W
LayerCount: 2
Fore
SplineSet
1483 0 m 1,0,-1
 1192 0 l 1,1,-1
 1180 566 l 1,2,-1
 631 566 l 1,3,-1
 394 0 l 1,4,-1
 100 0 l 1,5,-1
 1065 1913 l 1,6,-1
 1286 1913 l 1,7,-1
 1483 0 l 1,0,-1
727 806 m 1,8,-1
 1180 806 l 1,9,-1
 1130 1694 l 1,10,-1
 727 806 l 1,8,-1
EndSplineSet
EndChar

StartChar: B
Encoding: 66 66 33
Width: 1551
GlyphClass: 2
Flags: W
LayerCount: 2
Fore
SplineSet
1185 1082 m 1,0,1
 1244 1058 1244 1058 1293 1008 c 0,2,3
 1339 958 1339 958 1366 890 c 0,4,5
 1395 823 1395 823 1399 740 c 0,6,7
 1405 658 1405 658 1387 566 c 0,8,9
 1363 450 1363 450 1307 349 c 0,10,11
 1247 245 1247 245 1171 170 c 0,12,13
 1094 93 1094 93 1004 47 c 0,14,15
 912 0 912 0 823 0 c 2,16,-1
 100 0 l 1,17,-1
 525 1913 l 1,18,-1
 1117 1913 l 2,19,20
 1158 1913 1158 1913 1195.5 1905 c 128,-1,21
 1233 1897 1233 1897 1268 1880 c 0,22,23
 1304 1863 1304 1863 1333.5 1839 c 128,-1,24
 1363 1815 1363 1815 1388 1785 c 0,25,26
 1436 1728 1436 1728 1458 1646 c 0,27,28
 1469 1606 1469 1606 1471 1563.5 c 128,-1,29
 1473 1521 1473 1521 1465 1475 c 0,30,31
 1459 1442 1459 1442 1451 1410.5 c 128,-1,32
 1443 1379 1443 1379 1432 1351 c 0,33,34
 1411 1294 1411 1294 1378 1243 c 0,35,36
 1361 1218 1361 1218 1341 1196.5 c 128,-1,37
 1321 1175 1321 1175 1298 1154 c 0,38,39
 1253 1115 1253 1115 1187 1084 c 1,40,-1
 1185 1082 l 1,0,1
860 296 m 2,41,42
 911 296 911 296 962 320 c 0,43,44
 1012 346 1012 346 1053 387 c 0,45,46
 1093 428 1093 428 1125 485 c 0,47,48
 1141 514 1141 514 1151.5 543.5 c 128,-1,49
 1162 573 1162 573 1169 605 c 0,50,51
 1182 672 1182 672 1173 725 c 0,52,53
 1164 781 1164 781 1140 823 c 256,54,55
 1116 865 1116 865 1076 890 c 0,56,57
 1036 914 1036 914 984 914 c 2,58,-1
 538 914 l 1,59,-1
 428 296 l 1,60,-1
 860 296 l 2,41,42
587 1189 m 1,61,-1
 970 1189 l 2,62,63
 1014 1189 1014 1189 1058 1212 c 0,64,65
 1102 1236 1102 1236 1137 1272 c 0,66,67
 1156 1292 1156 1292 1172 1312 c 128,-1,68
 1188 1332 1188 1332 1201 1356 c 0,69,70
 1215 1379 1215 1379 1222.5 1404 c 128,-1,71
 1230 1429 1230 1429 1235 1453 c 0,72,73
 1245 1501 1245 1501 1236 1547 c 0,74,75
 1228 1592 1228 1592 1206 1623 c 0,76,77
 1184 1657 1184 1657 1149 1675 c 0,78,79
 1115 1694 1115 1694 1071 1694 c 2,80,-1
 676 1694 l 1,81,-1
 587 1189 l 1,61,-1
EndSplineSet
EndChar

StartChar: C
Encoding: 67 67 34
Width: 1545
GlyphClass: 2
Flags: W
LayerCount: 2
Fore
SplineSet
595 -25 m 0,0,1
 450 -25 450 -25 342 38 c 0,2,3
 288 70 288 70 244.5 118.5 c 128,-1,4
 201 167 201 167 172 235 c 0,5,6
 141 301 141 301 124 379 c 128,-1,7
 107 457 107 457 100 546 c 0,8,9
 94 635 94 635 100.5 728.5 c 128,-1,10
 107 822 107 822 127 922 c 0,11,12
 177 1166 177 1166 260 1346 c 0,13,14
 343 1528 343 1528 464 1662 c 0,15,16
 587 1797 587 1797 731 1864 c 0,17,18
 874 1931 874 1931 1023 1931 c 0,19,20
 1270 1931 1270 1931 1396 1781 c 0,21,22
 1440 1730 1440 1730 1465 1651 c 0,23,24
 1491 1573 1491 1573 1485 1474 c 1,25,-1
 1236 1474 l 1,26,27
 1238 1513 1238 1513 1229 1544 c 0,28,29
 1224 1560 1224 1560 1219 1576 c 128,-1,30
 1214 1592 1214 1592 1206 1607 c 0,31,32
 1190 1634 1190 1634 1167.5 1655.5 c 128,-1,33
 1145 1677 1145 1677 1118 1688 c 0,34,35
 1065 1710 1065 1710 978 1710 c 0,36,37
 916 1710 916 1710 857 1687 c 0,38,39
 826 1676 826 1676 796.5 1659.5 c 128,-1,40
 767 1643 767 1643 738 1622 c 0,41,42
 709 1600 709 1600 681.5 1573 c 128,-1,43
 654 1546 654 1546 628 1517 c 256,44,45
 602 1488 602 1488 579 1454 c 128,-1,46
 556 1420 556 1420 536 1384 c 0,47,48
 523 1361 523 1361 511.5 1341 c 128,-1,49
 500 1321 500 1321 490 1300 c 0,50,51
 482 1280 482 1280 473.5 1261 c 128,-1,52
 465 1242 465 1242 457 1221 c 0,53,54
 449 1201 449 1201 442 1178.5 c 128,-1,55
 435 1156 435 1156 428 1131 c 0,56,57
 415 1083 415 1083 401 1012 c 0,58,59
 394 977 394 977 389 942.5 c 128,-1,60
 384 908 384 908 382 873 c 0,61,62
 378 806 378 806 379 744 c 0,63,64
 381 714 381 714 382 687 c 128,-1,65
 383 660 383 660 386 637 c 0,66,67
 391 599 391 599 397.5 565 c 128,-1,68
 404 531 404 531 415 497 c 0,69,70
 421 477 421 477 430 456.5 c 128,-1,71
 439 436 439 436 453 416 c 0,72,73
 480 374 480 374 533 344 c 0,74,75
 585 313 585 313 681 313 c 0,76,77
 721 314 721 314 757.5 318 c 128,-1,78
 794 322 794 322 829 329 c 0,79,80
 899 344 899 344 927 365 c 0,81,82
 956 385 956 385 980 424 c 0,83,84
 991 443 991 443 999.5 462.5 c 128,-1,85
 1008 482 1008 482 1015 504 c 1,86,-1
 1332 504 l 1,87,88
 1316 420 1316 420 1284 354 c 0,89,90
 1268 322 1268 322 1251.5 293 c 128,-1,91
 1235 264 1235 264 1216 238 c 0,92,93
 1198 212 1198 212 1179 190.5 c 128,-1,94
 1160 169 1160 169 1140 151 c 0,95,96
 1100 114 1100 114 1066 89 c 0,97,98
 1013 51 1013 51 958 25.5 c 128,-1,99
 903 0 903 0 844 -10 c 0,100,101
 784 -20 784 -20 722.5 -22.5 c 128,-1,102
 661 -25 661 -25 595 -25 c 0,0,1
EndSplineSet
EndChar

StartChar: D
Encoding: 68 68 35
Width: 1664
GlyphClass: 2
Flags: W
LayerCount: 2
Fore
SplineSet
1040 1913 m 2,0,1
 1114 1913 1114 1913 1179 1895.5 c 128,-1,2
 1244 1878 1244 1878 1301 1840 c 0,3,4
 1415 1765 1415 1765 1486 1635 c 0,5,6
 1521 1569 1521 1569 1544 1494 c 128,-1,7
 1567 1419 1567 1419 1577 1331 c 0,8,9
 1598 1155 1598 1155 1558 957 c 0,10,11
 1519 759 1519 759 1441 585 c 0,12,13
 1402 497 1402 497 1356.5 421.5 c 128,-1,14
 1311 346 1311 346 1257 281 c 0,15,16
 1149 150 1149 150 1018 76 c 0,17,18
 888 0 888 0 739 0 c 2,19,-1
 100 0 l 1,20,-1
 525 1913 l 1,21,-1
 1040 1913 l 2,0,1
721 298 m 2,22,23
 827 298 827 298 923 349 c 0,24,25
 1022 401 1022 401 1102 491 c 0,26,27
 1185 584 1185 584 1242 705 c 0,28,29
 1272 765 1272 765 1293.5 831 c 128,-1,30
 1315 897 1315 897 1329 968 c 256,31,32
 1343 1039 1343 1039 1348 1110.5 c 128,-1,33
 1353 1182 1353 1182 1346 1248 c 0,34,35
 1332 1379 1332 1379 1285 1477 c 0,36,37
 1236 1576 1236 1576 1155 1634 c 0,38,39
 1075 1693 1075 1693 969 1693 c 2,40,-1
 678 1693 l 1,41,-1
 430 298 l 1,42,-1
 721 298 l 2,22,23
EndSplineSet
EndChar

StartChar: E
Encoding: 69 69 36
Width: 1475
GlyphClass: 2
Flags: W
LayerCount: 2
Fore
SplineSet
1391 1693 m 1,0,-1
 678 1693 l 1,1,-1
 578 1138 l 1,2,-1
 1141 1138 l 1,3,-1
 1086 870 l 1,4,-1
 531 870 l 1,5,-1
 428 297 l 1,6,-1
 1112 297 l 1,7,-1
 1052 0 l 1,8,-1
 100 0 l 1,9,-1
 525 1913 l 1,10,-1
 1435 1913 l 1,11,-1
 1391 1693 l 1,0,-1
EndSplineSet
EndChar

StartChar: F
Encoding: 70 70 37
Width: 1451
GlyphClass: 2
Flags: W
LayerCount: 2
Fore
SplineSet
1367 1693 m 1,0,-1
 677 1693 l 1,1,-1
 577 1138 l 1,2,-1
 1101 1138 l 1,3,-1
 1076 1008 l 1,4,-1
 962 874 l 1,5,-1
 531 874 l 1,6,-1
 376 0 l 1,7,-1
 100 0 l 1,8,-1
 526 1913 l 1,9,-1
 1411 1913 l 1,10,-1
 1367 1693 l 1,0,-1
EndSplineSet
EndChar

StartChar: G
Encoding: 71 71 38
Width: 1540
GlyphClass: 2
Flags: W
LayerCount: 2
Fore
SplineSet
596 -25 m 0,0,1
 450 -25 450 -25 341 40 c 0,2,3
 231 106 231 106 172 236 c 0,4,5
 113 370 113 370 100 546 c 0,6,7
 88 724 88 724 127 922 c 0,8,9
 176 1166 176 1166 259 1346 c 0,10,11
 342 1528 342 1528 464 1662 c 0,12,13
 525 1730 525 1730 591 1780.5 c 128,-1,14
 657 1831 657 1831 730 1865 c 256,15,16
 803 1899 803 1899 875.5 1915 c 128,-1,17
 948 1931 948 1931 1021 1931 c 0,18,19
 1275 1931 1275 1931 1397 1781 c 0,20,21
 1483 1676 1483 1676 1490 1474 c 1,22,-1
 1235 1474 l 1,23,24
 1233 1491 1233 1491 1231 1510.5 c 128,-1,25
 1229 1530 1229 1530 1225 1545 c 0,26,27
 1218 1576 1218 1576 1195 1607 c 0,28,29
 1176 1631 1176 1631 1158.5 1648 c 128,-1,30
 1141 1665 1141 1665 1116 1681 c 0,31,32
 1066 1712 1066 1712 979 1712 c 0,33,34
 918 1712 918 1712 859 1689 c 0,35,36
 798 1667 798 1667 740 1625 c 0,37,38
 711 1604 711 1604 684 1578.5 c 128,-1,39
 657 1553 657 1553 630 1523 c 0,40,41
 604 1493 604 1493 582.5 1460 c 128,-1,42
 561 1427 561 1427 540 1392 c 0,43,44
 524 1365 524 1365 514 1346.5 c 128,-1,45
 504 1328 504 1328 494 1309 c 256,46,47
 484 1290 484 1290 474.5 1266 c 128,-1,48
 465 1242 465 1242 457 1222 c 0,49,50
 449 1201 449 1201 442 1178.5 c 128,-1,51
 435 1156 435 1156 427 1131 c 0,52,53
 414 1083 414 1083 400 1012 c 0,54,55
 393 977 393 977 388 942 c 128,-1,56
 383 907 383 907 381 872 c 256,57,58
 379 837 379 837 378.5 804 c 128,-1,59
 378 771 378 771 379 741 c 0,60,61
 381 711 381 711 382.5 684 c 128,-1,62
 384 657 384 657 388 634 c 0,63,64
 391 610 391 610 394 593 c 128,-1,65
 397 576 397 576 401 559 c 0,66,67
 404 544 404 544 407.5 529 c 128,-1,68
 411 514 411 514 418 494 c 256,69,70
 425 474 425 474 434 452 c 128,-1,71
 443 430 443 430 457 409 c 0,72,73
 485 368 485 368 538 336 c 0,74,75
 591 305 591 305 679 305 c 2,76,-1
 684 305 l 2,77,78
 729 305 729 305 766 308 c 0,79,80
 802 311 802 311 835 320 c 0,81,82
 867 327 867 327 900 343 c 0,83,84
 917 351 917 351 934 361 c 128,-1,85
 951 371 951 371 970 383 c 0,86,87
 977 388 977 388 985.5 393.5 c 128,-1,88
 994 399 994 399 1003 407 c 0,89,90
 1014 415 1014 415 1023.5 425 c 128,-1,91
 1033 435 1033 435 1044 448 c 0,92,93
 1064 473 1064 473 1083 510 c 0,94,95
 1093 529 1093 529 1100 550.5 c 128,-1,96
 1107 572 1107 572 1112 598 c 1,97,-1
 874 598 l 1,98,-1
 929 873 l 1,99,-1
 1440 873 l 1,100,-1
 1284 -25 l 1,101,-1
 1038 -25 l 1,102,-1
 1099 231 l 1,103,104
 1085 208 1085 208 1068 185.5 c 128,-1,105
 1051 163 1051 163 1032 141 c 256,106,107
 1013 119 1013 119 989.5 98 c 128,-1,108
 966 77 966 77 938 57 c 0,109,110
 871 10 871 10 788 -8 c 0,111,112
 703 -25 703 -25 596 -25 c 0,0,1
EndSplineSet
EndChar

StartChar: H
Encoding: 72 72 39
Width: 1736
GlyphClass: 2
Flags: W
LayerCount: 2
Fore
SplineSet
1344 0 m 1,0,-1
 1069 0 l 1,1,-1
 1264 875 l 1,2,-1
 870 886 l 1,3,-1
 530 875 l 1,4,-1
 376 0 l 1,5,-1
 100 0 l 1,6,-1
 526 1913 l 1,7,-1
 716 1913 l 1,8,-1
 581 1160 l 1,9,-1
 922 1148 l 1,10,-1
 1327 1160 l 1,11,-1
 1494 1913 l 1,12,-1
 1686 1913 l 1,13,-1
 1344 0 l 1,0,-1
EndSplineSet
EndChar

StartChar: I
Encoding: 73 73 40
Width: 865
GlyphClass: 2
Flags: W
LayerCount: 2
Fore
SplineSet
475 0 m 1,0,-1
 200 0 l 1,1,-1
 626 1913 l 1,2,-1
 815 1913 l 1,3,-1
 475 0 l 1,0,-1
EndSplineSet
EndChar

StartChar: J
Encoding: 74 74 41
Width: 1377
GlyphClass: 2
Flags: W
LayerCount: 2
Fore
SplineSet
1065 470 m 2,0,1
 1054 415 1054 415 1036 364.5 c 128,-1,2
 1018 314 1018 314 992 266 c 0,3,4
 966 219 966 219 938 178.5 c 128,-1,5
 910 138 910 138 874 104 c 0,6,7
 839 69 839 69 800 41 c 128,-1,8
 761 13 761 13 719 -7 c 0,9,10
 675 -27 675 -27 628.5 -34.5 c 128,-1,11
 582 -42 582 -42 537 -42 c 0,12,13
 448 -42 448 -42 377 -3 c 256,14,15
 306 36 306 36 261 105 c 0,16,17
 215 174 215 174 200 266 c 0,18,19
 184 361 184 361 206 470 c 1,20,-1
 426 470 l 1,21,22
 419 431 419 431 427 397 c 0,23,24
 436 361 436 361 457 337 c 0,25,26
 477 311 477 311 510 296 c 0,27,28
 541 280 541 280 581 280 c 0,29,30
 601 280 601 280 621 283.5 c 128,-1,31
 641 287 641 287 661 295 c 0,32,33
 679 303 679 303 697 312 c 128,-1,34
 715 321 715 321 729 334 c 0,35,36
 745 347 745 347 757.5 363 c 128,-1,37
 770 379 770 379 781 397 c 256,38,39
 792 415 792 415 799 432.5 c 128,-1,40
 806 450 806 450 811 470 c 2,41,-1
 1147 1913 l 1,42,-1
 1337 1913 l 1,43,-1
 1065 470 l 2,0,1
EndSplineSet
EndChar

StartChar: K
Encoding: 75 75 42
Width: 1574
GlyphClass: 2
Flags: W
LayerCount: 2
Fore
SplineSet
755 1061 m 1,0,-1
 1236 93 l 1,1,-1
 1218 0 l 1,2,-1
 913 0 l 1,3,-1
 531 877 l 1,4,-1
 392 0 l 1,5,-1
 100 0 l 1,6,-1
 525 1913 l 1,7,-1
 722 1913 l 1,8,-1
 580 1149 l 1,9,-1
 1300 1913 l 1,10,-1
 1534 1913 l 1,11,-1
 755 1061 l 1,0,-1
EndSplineSet
EndChar

StartChar: M
Encoding: 77 77 43
Width: 2054
GlyphClass: 2
Flags: W
LayerCount: 2
Fore
SplineSet
1028 584 m 1,0,-1
 1747 1913 l 1,1,-1
 2004 1913 l 1,2,-1
 1724 0 l 1,3,-1
 1431 0 l 1,4,-1
 1804 1687 l 1,5,-1
 1127 297 l 1,6,-1
 815 297 l 1,7,-1
 692 1687 l 1,8,-1
 391 0 l 1,9,-1
 100 0 l 1,10,-1
 586 1913 l 1,11,-1
 843 1913 l 1,12,-1
 1028 584 l 1,0,-1
EndSplineSet
EndChar

StartChar: N
Encoding: 78 78 44
Width: 1774
GlyphClass: 2
Flags: W
LayerCount: 2
Fore
SplineSet
1724 1913 m 1,0,-1
 1384 0 l 1,1,-1
 1065 0 l 1,2,-1
 656 1447 l 1,3,-1
 392 0 l 1,4,-1
 100 0 l 1,5,-1
 529 1913 l 1,6,-1
 743 1913 l 1,7,-1
 1218 488 l 1,8,-1
 1485 1696 l 1,9,-1
 1659 1913 l 1,10,-1
 1724 1913 l 1,0,-1
EndSplineSet
EndChar

StartChar: O
Encoding: 79 79 45
Width: 1588
GlyphClass: 2
Flags: W
LayerCount: 2
Fore
SplineSet
596 -25 m 2,0,1
 558 -25 558 -25 524 -21 c 128,-1,2
 490 -17 490 -17 459 -10 c 0,3,4
 398 5 398 5 346 36 c 0,5,6
 244 93 244 93 184 220 c 0,7,8
 116 355 116 355 100 511 c 0,9,10
 95 555 95 555 95 604.5 c 128,-1,11
 95 654 95 654 99 711 c 0,12,13
 103 767 103 767 110 820.5 c 128,-1,14
 117 874 117 874 128 926 c 0,15,16
 139 980 139 980 153.5 1036 c 128,-1,17
 168 1092 168 1092 188 1151 c 0,18,19
 208 1211 208 1211 228.5 1263.5 c 128,-1,20
 249 1316 249 1316 272 1364 c 0,21,22
 358 1532 358 1532 485 1676 c 0,23,24
 597 1806 597 1806 732 1872 c 0,25,26
 765 1889 765 1889 799 1900.5 c 128,-1,27
 833 1912 833 1912 868 1918 c 256,28,29
 903 1924 903 1924 939.5 1927.5 c 128,-1,30
 976 1931 976 1931 1014 1931 c 2,31,-1
 1020 1931 l 2,32,33
 1058 1929 1058 1929 1093.5 1926.5 c 128,-1,34
 1129 1924 1129 1924 1161 1918 c 0,35,36
 1223 1906 1223 1906 1278 1872 c 0,37,38
 1385 1806 1385 1806 1447 1676 c 0,39,40
 1482 1604 1482 1604 1503.5 1526.5 c 128,-1,41
 1525 1449 1525 1449 1534 1364 c 0,42,43
 1543 1269 1543 1269 1534 1151 c 0,44,45
 1529 1092 1529 1092 1521.5 1036 c 128,-1,46
 1514 980 1514 980 1503 926 c 0,47,48
 1493 874 1493 874 1478.5 820.5 c 128,-1,49
 1464 767 1464 767 1447 711 c 0,50,51
 1428 654 1428 654 1407.5 604.5 c 128,-1,52
 1387 555 1387 555 1365 511 c 0,53,54
 1286 354 1286 354 1165 220 c 0,55,56
 1138 189 1138 189 1109 162 c 128,-1,57
 1080 135 1080 135 1051 112 c 0,58,59
 1021 88 1021 88 990.5 69 c 128,-1,60
 960 50 960 50 928 36 c 0,61,62
 867 6 867 6 797 -10 c 0,63,64
 763 -17 763 -17 728 -21 c 128,-1,65
 693 -25 693 -25 656 -25 c 2,66,-1
 596 -25 l 2,0,1
704 316 m 2,67,68
 827 316 827 316 912 355 c 0,69,70
 938 368 938 368 962 384 c 128,-1,71
 986 400 986 400 1007 420 c 0,72,73
 1029 440 1029 440 1048.5 463.5 c 128,-1,74
 1068 487 1068 487 1086 513 c 0,75,76
 1155 608 1155 608 1203 734 c 0,77,78
 1250 856 1250 856 1282 1014 c 0,79,80
 1296 1089 1296 1089 1302 1156.5 c 128,-1,81
 1308 1224 1308 1224 1304 1286 c 0,82,83
 1296 1413 1296 1413 1261 1503 c 0,84,85
 1250 1530 1250 1530 1237 1553.5 c 128,-1,86
 1224 1577 1224 1577 1208 1595 c 0,87,88
 1191 1615 1191 1615 1174 1630 c 128,-1,89
 1157 1645 1157 1645 1138 1658 c 0,90,91
 1119 1669 1119 1669 1099 1677.5 c 128,-1,92
 1079 1686 1079 1686 1059 1693 c 0,93,94
 1017 1704 1017 1704 977 1704 c 2,95,-1
 965 1704 l 2,96,97
 883 1704 883 1704 785 1658 c 0,98,99
 688 1611 688 1611 601 1503 c 0,100,101
 530 1413 530 1413 472 1286 c 0,102,103
 415 1163 415 1163 385 1014 c 0,104,105
 353 858 353 858 352 734 c 0,106,107
 350 607 350 607 380 513 c 0,108,109
 396 458 396 458 422 420 c 0,110,111
 447 381 447 381 491 355 c 0,112,113
 562 316 562 316 684 316 c 2,114,-1
 704 316 l 2,67,68
EndSplineSet
EndChar

StartChar: P
Encoding: 80 80 46
Width: 1481
GlyphClass: 2
Flags: W
LayerCount: 2
Fore
SplineSet
1085 1913 m 2,0,1
 1133 1913 1133 1913 1174.5 1903.5 c 128,-1,2
 1216 1894 1216 1894 1253 1872 c 0,3,4
 1328 1829 1328 1829 1374 1752 c 0,5,6
 1420 1678 1420 1678 1435 1574 c 0,7,8
 1443 1523 1443 1523 1441 1468.5 c 128,-1,9
 1439 1414 1439 1414 1426 1356 c 0,10,11
 1404 1239 1404 1239 1345 1138 c 0,12,13
 1316 1087 1316 1087 1282 1044 c 128,-1,14
 1248 1001 1248 1001 1209 963 c 0,15,16
 1133 889 1133 889 1041 845 c 0,17,18
 996 824 996 824 951.5 812.5 c 128,-1,19
 907 801 907 801 862 800 c 2,20,-1
 859 800 l 2,21,22
 822 799 822 799 790 800 c 128,-1,23
 758 801 758 801 731 804 c 0,24,25
 703 807 703 807 676 811.5 c 128,-1,26
 649 816 649 816 622 823 c 0,27,28
 579 835 579 835 559 848 c 0,29,30
 549 855 549 855 542 860 c 128,-1,31
 535 865 535 865 530 868 c 1,32,-1
 380 0 l 1,33,-1
 100 0 l 1,34,35
 121 87 121 87 141 170.5 c 128,-1,36
 161 254 161 254 181 335 c 0,37,38
 189 370 189 370 198.5 405.5 c 128,-1,39
 208 441 208 441 217 479 c 0,40,41
 226 516 226 516 234.5 552 c 128,-1,42
 243 588 243 588 252 623 c 0,43,44
 260 658 260 658 267.5 692 c 128,-1,45
 275 726 275 726 282 759 c 0,46,47
 290 791 290 791 296.5 820.5 c 128,-1,48
 303 850 303 850 309 876 c 256,49,50
 315 902 315 902 322 933 c 128,-1,51
 329 964 329 964 337 999 c 0,52,53
 344 1035 344 1035 352 1073 c 128,-1,54
 360 1111 360 1111 368 1153 c 0,55,56
 378 1195 378 1195 386.5 1237.5 c 128,-1,57
 395 1280 395 1280 404 1325 c 256,58,59
 413 1370 413 1370 421.5 1413.5 c 128,-1,60
 430 1457 430 1457 438 1499 c 2,61,-1
 522 1913 l 1,62,-1
 713 1913 l 1,63,-1
 700 1823 l 1,64,-1
 710 1833 l 2,65,66
 727 1848 727 1848 751 1860.5 c 128,-1,67
 775 1873 775 1873 801 1883 c 0,68,69
 831 1895 831 1895 879 1905 c 0,70,71
 905 1912 905 1912 939 1913 c 2,72,-1
 1085 1913 l 2,0,1
928 1081 m 2,73,74
 974 1081 974 1081 1022 1105 c 0,75,76
 1045 1118 1045 1118 1066 1134 c 128,-1,77
 1087 1150 1087 1150 1107 1172 c 0,78,79
 1126 1192 1126 1192 1143 1216 c 128,-1,80
 1160 1240 1160 1240 1174 1268 c 0,81,82
 1203 1321 1203 1321 1215 1382 c 0,83,84
 1220 1412 1220 1412 1222 1440.5 c 128,-1,85
 1224 1469 1224 1469 1219 1495 c 0,86,87
 1213 1549 1213 1549 1190 1592 c 0,88,89
 1178 1613 1178 1613 1163.5 1629.5 c 128,-1,90
 1149 1646 1149 1646 1130 1658 c 0,91,92
 1095 1683 1095 1683 1048 1683 c 0,93,94
 1000 1683 1000 1683 960 1682.5 c 128,-1,95
 920 1682 920 1682 887 1681 c 0,96,97
 819 1679 819 1679 777 1665 c 0,98,99
 757 1657 757 1657 738 1647 c 128,-1,100
 719 1637 719 1637 700 1623 c 0,101,102
 664 1596 664 1596 652 1556 c 1,103,-1
 582 1169 l 2,104,105
 574 1125 574 1125 615 1099 c 0,106,107
 629 1092 629 1092 663 1087 c 0,108,109
 680 1085 680 1085 698.5 1083.5 c 128,-1,110
 717 1082 717 1082 738 1082 c 0,111,112
 760 1081 760 1081 783 1081 c 128,-1,113
 806 1081 806 1081 830 1081 c 2,114,-1
 928 1081 l 2,73,74
EndSplineSet
EndChar

StartChar: Q
Encoding: 81 81 47
Width: 1466
GlyphClass: 2
Flags: W
LayerCount: 2
Fore
SplineSet
1335 163 m 1,0,-1
 1304 0 l 1,1,-1
 1123 0 l 1,2,-1
 1028 184 l 1,3,4
 942 89 942 89 842 36 c 0,5,6
 728 -25 728 -25 594 -25 c 2,7,-1
 540 -25 l 2,8,9
 405 -25 405 -25 315 36 c 0,10,11
 227 93 227 93 170 220 c 0,12,13
 142 286 142 286 125 358.5 c 128,-1,14
 108 431 108 431 100 511 c 0,15,16
 94 598 94 598 103 711 c 0,17,18
 109 767 109 767 116.5 820.5 c 128,-1,19
 124 874 124 874 134 926 c 0,20,21
 155 1032 155 1032 193 1151 c 0,22,23
 211 1211 211 1211 231.5 1263.5 c 128,-1,24
 252 1316 252 1316 274 1364 c 0,25,26
 316 1452 316 1452 365 1529.5 c 128,-1,27
 414 1607 414 1607 471 1676 c 0,28,29
 578 1807 578 1807 699 1872 c 0,30,31
 760 1906 760 1906 822 1918 c 0,32,33
 854 1924 854 1924 887 1926.5 c 128,-1,34
 920 1929 920 1929 955 1931 c 2,35,-1
 961 1931 l 2,36,37
 995 1929 995 1929 1026.5 1926.5 c 128,-1,38
 1058 1924 1058 1924 1087 1918 c 0,39,40
 1145 1906 1145 1906 1192 1872 c 0,41,42
 1240 1839 1240 1839 1278 1790.5 c 128,-1,43
 1316 1742 1316 1742 1342 1676 c 0,44,45
 1371 1604 1371 1604 1389.5 1526.5 c 128,-1,46
 1408 1449 1408 1449 1414 1364 c 0,47,48
 1417 1316 1417 1316 1416 1263.5 c 128,-1,49
 1415 1211 1415 1211 1410 1151 c 0,50,51
 1401 1035 1401 1035 1378 926 c 0,52,53
 1368 874 1368 874 1354 820.5 c 128,-1,54
 1340 767 1340 767 1322 711 c 0,55,56
 1304 654 1304 654 1285 604.5 c 128,-1,57
 1266 555 1266 555 1245 511 c 0,58,59
 1239 499 1239 499 1232.5 486.5 c 128,-1,60
 1226 474 1226 474 1220 462 c 0,61,62
 1213 449 1213 449 1206.5 437 c 128,-1,63
 1200 425 1200 425 1193 413 c 1,64,-1
 1335 163 l 1,0,-1
1065 640 m 1,65,66
 1084 680 1084 680 1099.5 723.5 c 128,-1,67
 1115 767 1115 767 1129 813 c 0,68,69
 1143 860 1143 860 1155.5 910 c 128,-1,70
 1168 960 1168 960 1179 1014 c 0,71,72
 1193 1089 1193 1089 1199.5 1156 c 128,-1,73
 1206 1223 1206 1223 1204 1285 c 0,74,75
 1201 1411 1201 1411 1170 1501 c 0,76,77
 1161 1528 1161 1528 1149.5 1551.5 c 128,-1,78
 1138 1575 1138 1575 1124 1593 c 0,79,80
 1097 1630 1097 1630 1062 1657 c 0,81,82
 1026 1680 1026 1680 991 1693 c 0,83,84
 953 1704 953 1704 917 1704 c 2,85,-1
 906 1704 l 2,86,87
 872 1704 872 1704 828 1693 c 0,88,89
 785 1679 785 1679 743 1657 c 0,90,91
 722 1644 722 1644 700 1628.5 c 128,-1,92
 678 1613 678 1613 656 1593 c 0,93,94
 614 1557 614 1557 572 1501 c 0,95,96
 505 1410 505 1410 452 1285 c 0,97,98
 397 1160 397 1160 369 1014 c 0,99,100
 352 936 352 936 343.5 866.5 c 128,-1,101
 335 797 335 797 333 734 c 0,102,103
 329 611 329 611 353 513 c 0,104,105
 366 461 366 461 390 420 c 0,106,107
 401 400 401 400 416.5 384 c 128,-1,108
 432 368 432 368 451 355 c 0,109,110
 517 316 517 316 626 316 c 2,111,-1
 643 316 l 2,112,113
 752 316 752 316 834 355 c 0,114,115
 844 360 844 360 853.5 367 c 128,-1,116
 863 374 863 374 873 382 c 0,117,118
 893 397 893 397 909 415 c 1,119,-1
 726 771 l 1,120,-1
 894 943 l 1,121,-1
 1065 640 l 1,65,66
EndSplineSet
EndChar

StartChar: R
Encoding: 82 82 48
Width: 1587
GlyphClass: 2
Flags: W
LayerCount: 2
Fore
SplineSet
1334 0 m 1,0,-1
 1059 0 l 1,1,-1
 887 669 l 2,2,3
 885 676 885 676 882 685 c 128,-1,4
 879 694 879 694 874 705 c 0,5,6
 866 727 866 727 851 748 c 0,7,8
 836 770 836 770 811 785 c 0,9,10
 787 800 787 800 748 800 c 2,11,-1
 517 800 l 1,12,-1
 376 0 l 1,13,-1
 100 0 l 1,14,-1
 525 1913 l 1,15,-1
 1162 1913 l 1,16,-1
 1173 1913 l 2,17,18
 1224 1913 1224 1913 1267.5 1903 c 128,-1,19
 1311 1893 1311 1893 1350 1871 c 0,20,21
 1428 1827 1428 1827 1472 1750 c 0,22,23
 1495 1711 1495 1711 1510.5 1666.5 c 128,-1,24
 1526 1622 1526 1622 1533 1571 c 0,25,26
 1547 1470 1547 1470 1524 1356 c 0,27,28
 1514 1310 1514 1310 1499.5 1265.5 c 128,-1,29
 1485 1221 1485 1221 1463 1179 c 0,30,31
 1423 1095 1423 1095 1365 1023 c 0,32,33
 1308 952 1308 952 1240 902 c 0,34,35
 1169 848 1169 848 1099 823 c 1,36,-1
 1360 126 l 1,37,-1
 1334 0 l 1,0,-1
1020 1079 m 2,38,39
 1066 1079 1066 1079 1113 1105 c 0,40,41
 1159 1131 1159 1131 1200 1175 c 0,42,43
 1239 1217 1239 1217 1270 1274 c 0,44,45
 1284 1303 1284 1303 1294 1332 c 128,-1,46
 1304 1361 1304 1361 1311 1391 c 0,47,48
 1323 1448 1323 1448 1318 1503 c 0,49,50
 1314 1556 1314 1556 1291 1596 c 0,51,52
 1270 1635 1270 1635 1232 1659 c 0,53,54
 1193 1683 1193 1683 1141 1683 c 2,55,-1
 675 1683 l 1,56,-1
 566 1079 l 1,57,-1
 1020 1079 l 2,38,39
EndSplineSet
EndChar

StartChar: S
Encoding: 83 83 49
Width: 1431
GlyphClass: 2
Flags: W
LayerCount: 2
Fore
SplineSet
977 490 m 0,0,1
 984 502 984 502 990 512 c 128,-1,2
 996 522 996 522 1001 533 c 128,-1,3
 1006 544 1006 544 1010 557.5 c 128,-1,4
 1014 571 1014 571 1018 589 c 0,5,6
 1026 624 1026 624 1026 657 c 128,-1,7
 1026 690 1026 690 1018 722 c 0,8,9
 1010 748 1010 748 996.5 765.5 c 128,-1,10
 983 783 983 783 963 800 c 0,11,12
 953 809 953 809 917 834.5 c 128,-1,13
 881 860 881 860 831.5 895 c 128,-1,14
 782 930 782 930 725 969.5 c 128,-1,15
 668 1009 668 1009 615.5 1045.5 c 128,-1,16
 563 1082 563 1082 522 1111 c 128,-1,17
 481 1140 481 1140 463 1154 c 0,18,19
 433 1178 433 1178 409 1202 c 128,-1,20
 385 1226 385 1226 369.5 1257.5 c 128,-1,21
 354 1289 354 1289 348.5 1331 c 128,-1,22
 343 1373 343 1373 350 1432 c 0,23,24
 357 1497 357 1497 369.5 1548 c 128,-1,25
 382 1599 382 1599 406 1644 c 0,26,27
 431 1690 431 1690 468 1729.5 c 128,-1,28
 505 1769 505 1769 548 1807 c 0,29,30
 591 1844 591 1844 638.5 1864.5 c 128,-1,31
 686 1885 686 1885 734 1902 c 0,32,33
 782 1917 782 1917 837.5 1924 c 128,-1,34
 893 1931 893 1931 959 1931 c 0,35,36
 1038 1931 1038 1931 1099 1921.5 c 128,-1,37
 1160 1912 1160 1912 1205 1891 c 0,38,39
 1255 1867 1255 1867 1289.5 1838 c 128,-1,40
 1324 1809 1324 1809 1347 1764 c 0,41,42
 1362 1735 1362 1735 1372.5 1701.5 c 128,-1,43
 1383 1668 1383 1668 1388 1629 c 0,44,45
 1397 1553 1397 1553 1380 1475 c 1,46,-1
 1168 1475 l 1,47,48
 1171 1494 1171 1494 1171.5 1513.5 c 128,-1,49
 1172 1533 1172 1533 1169 1553 c 0,50,51
 1165 1595 1165 1595 1140 1627 c 0,52,53
 1118 1661 1118 1661 1063 1682 c 0,54,55
 1010 1704 1010 1704 895 1704 c 0,56,57
 818 1704 818 1704 761 1678 c 0,58,59
 732 1665 732 1665 707 1649.5 c 128,-1,60
 682 1634 682 1634 659 1614 c 0,61,62
 630 1587 630 1587 613 1553.5 c 128,-1,63
 596 1520 596 1520 589 1486 c 0,64,65
 583 1458 583 1458 582.5 1428 c 128,-1,66
 582 1398 582 1398 596 1374 c 0,67,68
 599 1368 599 1368 608 1359 c 128,-1,69
 617 1350 617 1350 629.5 1339.5 c 128,-1,70
 642 1329 642 1329 656 1319 c 128,-1,71
 670 1309 670 1309 683 1301 c 0,72,73
 749 1265 749 1265 817 1224.5 c 128,-1,74
 885 1184 885 1184 943.5 1148 c 128,-1,75
 1002 1112 1002 1112 1046 1084 c 128,-1,76
 1090 1056 1090 1056 1109 1045 c 0,77,78
 1133 1031 1133 1031 1162.5 1009 c 128,-1,79
 1192 987 1192 987 1215 967 c 0,80,81
 1244 939 1244 939 1269.5 904 c 128,-1,82
 1295 869 1295 869 1310 808 c 0,83,84
 1316 782 1316 782 1320 760 c 128,-1,85
 1324 738 1324 738 1324.5 713 c 128,-1,86
 1325 688 1325 688 1320.5 655 c 128,-1,87
 1316 622 1316 622 1306 573 c 0,88,89
 1279 458 1279 458 1226 360 c 0,90,91
 1200 311 1200 311 1161 265 c 128,-1,92
 1122 219 1122 219 1077 175 c 0,93,94
 1030 130 1030 130 974 97.5 c 128,-1,95
 918 65 918 65 855 36 c 0,96,97
 817 19 817 19 784 9 c 128,-1,98
 751 -1 751 -1 715 -9 c 256,99,100
 679 -17 679 -17 643 -21 c 128,-1,101
 607 -25 607 -25 570 -25 c 0,102,103
 530 -25 530 -25 494.5 -21 c 128,-1,104
 459 -17 459 -17 427 -10 c 0,105,106
 395 -2 395 -2 366.5 7.5 c 128,-1,107
 338 17 338 17 313 34 c 0,108,109
 268 62 268 62 233 95.5 c 128,-1,110
 198 129 198 129 169 173 c 0,111,112
 157 192 157 192 147 213 c 128,-1,113
 137 234 137 234 129 253 c 0,114,115
 121 271 121 271 116.5 289.5 c 128,-1,116
 112 308 112 308 108 328 c 0,117,118
 103 347 103 347 101.5 367 c 128,-1,119
 100 387 100 387 100 409 c 0,120,121
 99 430 99 430 100.5 454.5 c 128,-1,122
 102 479 102 479 105 505 c 1,123,-1
 385 505 l 1,124,125
 386 493 386 493 387.5 484 c 128,-1,126
 389 475 389 475 391 468 c 256,127,128
 393 461 393 461 395 455 c 128,-1,129
 397 449 397 449 400 442 c 0,130,131
 412 410 412 410 432.5 387 c 128,-1,132
 453 364 453 364 481 348 c 256,133,134
 509 332 509 332 551 323.5 c 128,-1,135
 593 315 593 315 651 315 c 0,136,137
 691 315 691 315 727.5 322 c 128,-1,138
 764 329 764 329 797 342 c 0,139,140
 853 363 853 363 900.5 401.5 c 128,-1,141
 948 440 948 440 977 490 c 0,0,1
EndSplineSet
EndChar

StartChar: T
Encoding: 84 84 50
Width: 1375
GlyphClass: 2
Flags: W
LayerCount: 2
Fore
SplineSet
1299 1683 m 1,0,-1
 798 1683 l 1,1,-1
 499 0 l 1,2,-1
 224 0 l 1,3,-1
 599 1683 l 1,4,-1
 100 1683 l 1,5,-1
 147 1913 l 1,6,-1
 1345 1913 l 1,7,-1
 1299 1683 l 1,0,-1
EndSplineSet
EndChar

StartChar: U
Encoding: 85 85 51
Width: 1610
GlyphClass: 2
Flags: W
LayerCount: 2
Fore
SplineSet
397 659 m 2,0,1
 395 651 395 651 392.5 639 c 128,-1,2
 390 627 390 627 387 613 c 0,3,4
 385 598 385 598 383 583.5 c 128,-1,5
 381 569 381 569 379 552 c 0,6,7
 377 536 377 536 376.5 520 c 128,-1,8
 376 504 376 504 378 489 c 0,9,10
 379 472 379 472 381.5 452.5 c 128,-1,11
 384 433 384 433 389 421 c 0,12,13
 400 399 400 399 412.5 381.5 c 128,-1,14
 425 364 425 364 440 352 c 0,15,16
 473 327 473 327 502 316 c 0,17,18
 518 311 518 311 533.5 307 c 128,-1,19
 549 303 549 303 563 302 c 0,20,21
 579 301 579 301 591.5 300.5 c 128,-1,22
 604 300 604 300 615 300 c 0,23,24
 650 300 650 300 683.5 309.5 c 128,-1,25
 717 319 717 319 749 336 c 0,26,27
 781 355 781 355 814 378.5 c 128,-1,28
 847 402 847 402 874 425 c 0,29,30
 926 473 926 473 981 541 c 0,31,32
 995 558 995 558 1014.5 592.5 c 128,-1,33
 1034 627 1034 627 1055 670 c 128,-1,34
 1076 713 1076 713 1095 760 c 128,-1,35
 1114 807 1114 807 1127 850 c 0,36,37
 1129 855 1129 855 1140 903 c 128,-1,38
 1151 951 1151 951 1168.5 1027 c 128,-1,39
 1186 1103 1186 1103 1207.5 1198 c 128,-1,40
 1229 1293 1229 1293 1251 1391 c 0,41,42
 1303 1622 1303 1622 1369 1913 c 1,43,-1
 1560 1913 l 1,44,45
 1528 1730 1528 1730 1498.5 1565.5 c 128,-1,46
 1469 1401 1469 1401 1442 1252 c 0,47,48
 1431 1188 1431 1188 1420 1125 c 128,-1,49
 1409 1062 1409 1062 1398 998 c 0,50,51
 1387 935 1387 935 1377 877.5 c 128,-1,52
 1367 820 1367 820 1358 767 c 256,53,54
 1349 714 1349 714 1340.5 669.5 c 128,-1,55
 1332 625 1332 625 1326 587 c 256,56,57
 1320 549 1320 549 1316.5 524 c 128,-1,58
 1313 499 1313 499 1312 485 c 0,59,60
 1308 459 1308 459 1306 425.5 c 128,-1,61
 1304 392 1304 392 1302 350 c 0,62,63
 1301 308 1301 308 1300 268.5 c 128,-1,64
 1299 229 1299 229 1297 190 c 0,65,66
 1296 143 1296 143 1298.5 96 c 128,-1,67
 1301 49 1301 49 1301 0 c 1,68,-1
 1075 0 l 1,69,-1
 1031 117 l 1,70,-1
 1090 418 l 1,71,72
 1089 416 1089 416 1083 404.5 c 128,-1,73
 1077 393 1077 393 1068 377 c 128,-1,74
 1059 361 1059 361 1048.5 342.5 c 128,-1,75
 1038 324 1038 324 1028 309 c 0,76,77
 989 243 989 243 942 186 c 128,-1,78
 895 129 895 129 843 89 c 0,79,80
 749 19 749 19 669 -10 c 0,81,82
 629 -24 629 -24 585.5 -33 c 128,-1,83
 542 -42 542 -42 495 -42 c 0,84,85
 336 -42 336 -42 238 27 c 0,86,87
 189 62 189 62 158 112 c 128,-1,88
 127 162 127 162 113 224 c 0,89,90
 105 259 105 259 103 305.5 c 128,-1,91
 101 352 101 352 106 400 c 0,92,93
 111 447 111 447 119 499.5 c 128,-1,94
 127 552 127 552 138 610 c 2,95,-1
 429 1913 l 1,96,-1
 621 1913 l 1,97,-1
 397 659 l 2,0,1
EndSplineSet
EndChar

StartChar: V
Encoding: 86 86 52
Width: 1422
GlyphClass: 2
Flags: W
LayerCount: 2
Fore
SplineSet
500 0 m 1,0,-1
 218 0 l 1,1,-1
 100 1913 l 1,2,-1
 291 1913 l 1,3,-1
 457 488 l 1,4,-1
 1191 1913 l 1,5,-1
 1382 1913 l 1,6,-1
 500 0 l 1,0,-1
EndSplineSet
EndChar

StartChar: W
Encoding: 87 87 53
Width: 2058
GlyphClass: 2
Flags: W
LayerCount: 2
Fore
SplineSet
1075 1369 m 1,0,-1
 1140 328 l 1,1,-1
 1789 1913 l 1,2,-1
 2018 1913 l 1,3,-1
 1220 0 l 1,4,-1
 928 0 l 1,5,-1
 904 1140 l 1,6,-1
 424 0 l 1,7,-1
 132 0 l 1,8,-1
 100 1913 l 1,9,-1
 328 1913 l 1,10,-1
 343 328 l 1,11,-1
 825 1369 l 1,12,-1
 1075 1369 l 1,0,-1
EndSplineSet
EndChar

StartChar: X
Encoding: 88 88 54
Width: 1850
GlyphClass: 2
Flags: W
LayerCount: 2
Fore
SplineSet
1137 1000 m 1,0,-1
 1470 0 l 1,1,-1
 1131 0 l 1,2,-1
 931 738 l 1,3,-1
 440 0 l 1,4,-1
 100 0 l 1,5,-1
 810 1004 l 1,6,-1
 537 1913 l 1,7,-1
 800 1913 l 1,8,-1
 1023 1217 l 1,9,-1
 1528 1913 l 1,10,-1
 1800 1913 l 1,11,-1
 1137 1000 l 1,0,-1
EndSplineSet
EndChar

StartChar: Y
Encoding: 89 89 55
Width: 1331
GlyphClass: 2
Flags: W
LayerCount: 2
Fore
SplineSet
620 819 m 1,0,1
 574 640 574 640 537 500 c 0,2,3
 522 440 522 440 507 382.5 c 128,-1,4
 492 325 492 325 480 280 c 128,-1,5
 468 235 468 235 461 207 c 128,-1,6
 454 179 454 179 454 179 c 2,7,8
 454 178 454 178 447 170 c 128,-1,9
 440 162 440 162 428.5 149.5 c 128,-1,10
 417 137 417 137 403 121 c 128,-1,11
 389 105 389 105 374 88 c 0,12,13
 340 49 340 49 297 0 c 1,14,-1
 129 0 l 1,15,-1
 389 819 l 1,16,-1
 100 1913 l 1,17,-1
 289 1913 l 1,18,-1
 536 997 l 1,19,-1
 1082 1913 l 1,20,-1
 1301 1913 l 1,21,-1
 620 819 l 1,0,1
EndSplineSet
EndChar

StartChar: Z
Encoding: 90 90 56
Width: 1742
GlyphClass: 2
Flags: W
LayerCount: 2
Fore
SplineSet
1639 1651 m 1,0,-1
 533 314 l 1,1,-1
 1419 314 l 1,2,-1
 1449 0 l 1,3,-1
 100 0 l 1,4,-1
 172 329 l 1,5,-1
 1376 1683 l 1,6,-1
 553 1683 l 1,7,-1
 599 1913 l 1,8,-1
 1692 1913 l 1,9,-1
 1639 1651 l 1,0,-1
EndSplineSet
EndChar

StartChar: question
Encoding: 63 63 57
Width: 1378
GlyphClass: 2
Flags: W
LayerCount: 2
Fore
SplineSet
700 161 m 0,0,1
 693 120 693 120 673 82 c 0,2,3
 653 45 653 45 626 18 c 256,4,5
 599 -9 599 -9 565 -26 c 256,6,7
 531 -43 531 -43 498 -43 c 256,8,9
 465 -43 465 -43 437 -26 c 0,10,11
 411 -9 411 -9 394 18 c 0,12,13
 386 32 386 32 380.5 48 c 128,-1,14
 375 64 375 64 373 82 c 0,15,16
 369 119 369 119 376 161 c 0,17,18
 394 247 394 247 452 306 c 0,19,20
 513 365 513 365 580 365 c 0,21,22
 648 365 648 365 683 306 c 0,23,24
 718 245 718 245 700 161 c 0,0,1
552 1790 m 0,25,26
 623 1855 623 1855 709 1885 c 0,27,28
 796 1914 796 1914 892 1914 c 0,29,30
 915 1914 915 1914 937.5 1912 c 128,-1,31
 960 1910 960 1910 983 1906 c 256,32,33
 1006 1902 1006 1902 1026.5 1897 c 128,-1,34
 1047 1892 1047 1892 1067 1885 c 0,35,36
 1087 1877 1087 1877 1104.5 1868.5 c 128,-1,37
 1122 1860 1122 1860 1138 1849 c 0,38,39
 1170 1828 1170 1828 1192 1799 c 0,40,41
 1278 1683 1278 1683 1242 1507 c 0,42,43
 1232 1455 1232 1455 1212 1387 c 0,44,45
 1193 1323 1193 1323 1157 1276 c 0,46,47
 1138 1253 1138 1253 1117.5 1230.5 c 128,-1,48
 1097 1208 1097 1208 1075 1187 c 0,49,50
 1052 1166 1052 1166 1023 1139 c 128,-1,51
 994 1112 994 1112 956 1079 c 0,52,53
 930 1055 930 1055 907.5 1030 c 128,-1,54
 885 1005 885 1005 868 978 c 0,55,56
 850 951 850 951 836.5 928.5 c 128,-1,57
 823 906 823 906 812 889 c 0,58,59
 801 870 801 870 791 835 c 0,60,61
 785 817 785 817 779.5 797 c 128,-1,62
 774 777 774 777 769 754 c 256,63,64
 764 731 764 731 759 708.5 c 128,-1,65
 754 686 754 686 749 663 c 256,66,67
 744 640 744 640 740.5 621 c 128,-1,68
 737 602 737 602 734 586 c 1,69,-1
 499 586 l 1,70,71
 503 604 503 604 508 625.5 c 128,-1,72
 513 647 513 647 519 673 c 0,73,74
 525 698 525 698 531.5 722.5 c 128,-1,75
 538 747 538 747 545 772 c 0,76,77
 553 797 553 797 560 819.5 c 128,-1,78
 567 842 567 842 575 864 c 0,79,80
 590 906 590 906 602 930 c 0,81,82
 607 941 607 941 615.5 954 c 128,-1,83
 624 967 624 967 635 984 c 0,84,85
 646 1000 646 1000 658.5 1017 c 128,-1,86
 671 1034 671 1034 685 1052 c 0,87,88
 711 1086 711 1086 744 1123 c 0,89,90
 777 1161 777 1161 810 1188 c 2,91,-1
 891 1260 l 2,92,93
 912 1278 912 1278 929 1295 c 0,94,95
 937 1303 937 1303 947 1314 c 128,-1,96
 957 1325 957 1325 968 1339 c 0,97,98
 992 1373 992 1373 1013 1424 c 0,99,100
 1033 1477 1033 1477 1039 1509 c 0,101,102
 1044 1535 1044 1535 1047.5 1557.5 c 128,-1,103
 1051 1580 1051 1580 1052 1599 c 0,104,105
 1055 1637 1055 1637 1034 1674 c 0,106,107
 1013 1710 1013 1710 965 1728 c 0,108,109
 918 1745 918 1745 855 1745 c 0,110,111
 777 1745 777 1745 729 1727 c 0,112,113
 680 1709 680 1709 643 1655 c 0,114,115
 629 1638 629 1638 620 1614 c 0,116,117
 615 1601 615 1601 611.5 1590 c 128,-1,118
 608 1579 608 1579 604 1568 c 0,119,120
 601 1557 601 1557 598.5 1547.5 c 128,-1,121
 596 1538 596 1538 594 1530 c 0,122,123
 591 1512 591 1512 590 1511 c 2,124,-1
 425 1511 l 1,125,126
 427 1524 427 1524 429.5 1538.5 c 128,-1,127
 432 1553 432 1553 436 1570 c 0,128,129
 443 1602 443 1602 459 1642 c 0,130,131
 467 1661 467 1661 476 1680 c 128,-1,132
 485 1699 485 1699 496 1719 c 0,133,134
 508 1738 508 1738 521.5 1755.5 c 128,-1,135
 535 1773 535 1773 552 1790 c 0,25,26
EndSplineSet
EndChar

StartChar: quotesinglbase
Encoding: 8218 8218 58
Width: 813
GlyphClass: 2
Flags: W
LayerCount: 2
Fore
SplineSet
447 365 m 0,0,1
 515 365 515 365 552 305 c 0,2,3
 586 248 586 248 569 161 c 0,4,5
 557 99 557 99 546 48 c 128,-1,6
 535 -3 535 -3 524 -43 c 0,7,8
 514 -84 514 -84 504 -117.5 c 128,-1,9
 494 -151 494 -151 484 -179 c 0,10,11
 474 -206 474 -206 464 -228.5 c 128,-1,12
 454 -251 454 -251 444 -268 c 256,13,14
 434 -285 434 -285 423 -300.5 c 128,-1,15
 412 -316 412 -316 401 -330 c 0,16,17
 374 -360 374 -360 343 -380 c 0,18,19
 328 -389 328 -389 314.5 -397 c 128,-1,20
 301 -405 301 -405 287 -412 c 0,21,22
 256 -426 256 -426 226 -432 c 1,23,-1
 232 -301 l 1,24,25
 267 -290 267 -290 291 -272 c 0,26,27
 317 -255 317 -255 343 -224 c 0,28,29
 357 -207 357 -207 367 -188 c 128,-1,30
 377 -169 377 -169 386 -148 c 0,31,32
 401 -107 401 -107 416 -33 c 1,33,34
 411 -36 411 -36 405.5 -37.5 c 128,-1,35
 400 -39 400 -39 393 -41 c 0,36,37
 385 -42 385 -42 378 -42.5 c 128,-1,38
 371 -43 371 -43 366 -43 c 0,39,40
 297 -43 297 -43 263 16 c 0,41,42
 227 74 227 74 244 161 c 0,43,44
 254 204 254 204 272.5 240 c 128,-1,45
 291 276 291 276 320 305 c 0,46,47
 380 365 380 365 447 365 c 0,0,1
EndSplineSet
EndChar

StartChar: comma
Encoding: 44 44 59
Width: 813
GlyphClass: 2
Flags: W
LayerCount: 2
Fore
SplineSet
410 365 m 0,0,1
 478 365 478 365 515 305 c 0,2,3
 549 248 549 248 532 161 c 0,4,5
 520 99 520 99 509 48 c 128,-1,6
 498 -3 498 -3 487 -43 c 0,7,8
 477 -84 477 -84 467 -117.5 c 128,-1,9
 457 -151 457 -151 447 -179 c 0,10,11
 437 -206 437 -206 427 -228.5 c 128,-1,12
 417 -251 417 -251 407 -268 c 256,13,14
 397 -285 397 -285 386 -300.5 c 128,-1,15
 375 -316 375 -316 364 -330 c 0,16,17
 337 -360 337 -360 306 -380 c 0,18,19
 291 -389 291 -389 277.5 -397 c 128,-1,20
 264 -405 264 -405 250 -412 c 0,21,22
 219 -426 219 -426 189 -432 c 1,23,-1
 195 -301 l 1,24,25
 230 -290 230 -290 254 -272 c 0,26,27
 280 -255 280 -255 306 -224 c 0,28,29
 320 -207 320 -207 330 -188 c 128,-1,30
 340 -169 340 -169 349 -148 c 0,31,32
 364 -107 364 -107 379 -33 c 1,33,34
 374 -36 374 -36 368.5 -37.5 c 128,-1,35
 363 -39 363 -39 356 -41 c 0,36,37
 348 -42 348 -42 341 -42 c 128,-1,38
 334 -42 334 -42 329 -42 c 0,39,40
 260 -42 260 -42 226 16 c 0,41,42
 190 74 190 74 207 161 c 0,43,44
 217 204 217 204 235.5 240 c 128,-1,45
 254 276 254 276 283 305 c 0,46,47
 343 365 343 365 410 365 c 0,0,1
EndSplineSet
EndChar

StartChar: period
Encoding: 46 46 60
Width: 817
GlyphClass: 2
Flags: W
LayerCount: 2
Fore
SplineSet
549 178 m 0,0,1
 540 137 540 137 521 100 c 0,2,3
 503 62 503 62 474 35 c 0,4,5
 444 6 444 6 413 -9 c 0,6,7
 382 -25 382 -25 346 -25 c 0,8,9
 311 -25 311 -25 286 -9 c 0,10,11
 259 8 259 8 243 35 c 0,12,13
 227 61 227 61 221 100 c 0,14,15
 216 138 216 138 225 178 c 0,16,17
 242 265 242 265 301 323 c 0,18,19
 360 383 360 383 428 383 c 0,20,21
 498 383 498 383 532 323 c 0,22,23
 566 266 566 266 549 178 c 0,0,1
EndSplineSet
EndChar

StartChar: parenleft
Encoding: 40 40 61
Width: 997
GlyphClass: 2
Flags: W
LayerCount: 2
Fore
SplineSet
966 1912 m 1,0,1
 914 1809 914 1809 872 1719.5 c 128,-1,2
 830 1630 830 1630 797 1554 c 0,3,4
 764 1477 764 1477 738.5 1415.5 c 128,-1,5
 713 1354 713 1354 695 1304 c 0,6,7
 679 1266 679 1266 664.5 1228 c 128,-1,8
 650 1190 650 1190 636 1152 c 0,9,10
 622 1115 622 1115 609 1077 c 128,-1,11
 596 1039 596 1039 584 999 c 0,12,13
 573 960 573 960 561 919 c 128,-1,14
 549 878 549 878 538 836 c 0,15,16
 527 793 527 793 517 747 c 128,-1,17
 507 701 507 701 497 652 c 0,18,19
 487 602 487 602 478.5 552.5 c 128,-1,20
 470 503 470 503 464 452 c 0,21,22
 450 349 450 349 443 253 c 0,23,24
 439 205 439 205 436.5 157.5 c 128,-1,25
 434 110 434 110 432 64 c 0,26,27
 430 17 430 17 428.5 -26 c 128,-1,28
 427 -69 427 -69 427 -111 c 0,29,30
 427 -162 427 -162 430.5 -223 c 128,-1,31
 434 -284 434 -284 441 -356 c 256,32,33
 448 -428 448 -428 456.5 -511.5 c 128,-1,34
 465 -595 465 -595 476 -690 c 1,35,-1
 285 -690 l 1,36,37
 272 -612 272 -612 261 -549 c 128,-1,38
 250 -486 250 -486 242 -436 c 0,39,40
 234 -385 234 -385 228.5 -350 c 128,-1,41
 223 -315 223 -315 220 -295 c 0,42,43
 218 -274 218 -274 215 -248 c 128,-1,44
 212 -222 212 -222 208 -193 c 256,45,46
 204 -164 204 -164 201.5 -131 c 128,-1,47
 199 -98 199 -98 198 -61 c 0,48,49
 196 -9 196 -9 196 42.5 c 128,-1,50
 196 94 196 94 197 148 c 256,51,52
 198 202 198 202 201.5 256.5 c 128,-1,53
 205 311 205 311 213 369 c 0,54,55
 218 399 218 399 222.5 433 c 128,-1,56
 227 467 227 467 234 505 c 0,57,58
 246 582 246 582 257 635 c 0,59,60
 298 837 298 837 353 997 c 0,61,62
 381 1078 381 1078 411.5 1157.5 c 128,-1,63
 442 1237 442 1237 477 1316 c 0,64,65
 519 1417 519 1417 603 1565 c 0,66,67
 645 1639 645 1639 694 1726 c 128,-1,68
 743 1813 743 1813 800 1913 c 1,69,-1
 966 1913 l 1,70,-1
 966 1912 l 1,0,1
EndSplineSet
EndChar

StartChar: parenright
Encoding: 41 41 62
Width: 889
GlyphClass: 2
Flags: W
LayerCount: 2
Fore
SplineSet
727 1912 m 1,0,1
 745 1812 745 1812 760 1726 c 128,-1,2
 775 1640 775 1640 786 1566 c 0,3,4
 810 1417 810 1417 813 1318 c 0,5,6
 815 1239 815 1239 814 1159.5 c 128,-1,7
 813 1080 813 1080 809 999 c 0,8,9
 804 918 804 918 791.5 828.5 c 128,-1,10
 779 739 779 739 759 637 c 0,11,12
 754 611 754 611 747 578.5 c 128,-1,13
 740 546 740 546 732 507 c 0,14,15
 724 469 724 469 714.5 435 c 128,-1,16
 705 401 705 401 697 371 c 0,17,18
 681 313 681 313 663 258.5 c 128,-1,19
 645 204 645 204 625 150 c 0,20,21
 584 41 584 41 540 -59 c 0,22,23
 525 -96 525 -96 509.5 -129 c 128,-1,24
 494 -162 494 -162 479 -191 c 0,25,26
 462 -221 462 -221 449 -246.5 c 128,-1,27
 436 -272 436 -272 425 -293 c 0,28,29
 413 -313 413 -313 394 -348 c 128,-1,30
 375 -383 375 -383 347 -433 c 0,31,32
 318 -483 318 -483 282 -546.5 c 128,-1,33
 246 -610 246 -610 199 -690 c 1,34,-1
 10 -690 l 1,35,36
 58 -593 58 -593 100.5 -509.5 c 128,-1,37
 143 -426 143 -426 179 -354 c 0,38,39
 214 -282 214 -282 242.5 -221 c 128,-1,40
 271 -160 271 -160 291 -109 c 0,41,42
 308 -67 308 -67 324.5 -24 c 128,-1,43
 341 19 341 19 358 66 c 0,44,45
 375 112 375 112 390.5 159.5 c 128,-1,46
 406 207 406 207 422 255 c 0,47,48
 437 304 437 304 451.5 353.5 c 128,-1,49
 466 403 466 403 480 454 c 256,50,51
 494 505 494 505 506 554.5 c 128,-1,52
 518 604 518 604 528 654 c 0,53,54
 538 703 538 703 546 749 c 128,-1,55
 554 795 554 795 560 838 c 0,56,57
 572 921 572 921 578 1001 c 0,58,59
 586 1081 586 1081 587 1154 c 0,60,61
 590 1231 590 1231 590 1306 c 0,62,63
 592 1405 592 1405 587 1555 c 0,64,65
 584 1630 584 1630 578 1720 c 128,-1,66
 572 1810 572 1810 562 1913 c 1,67,-1
 727 1913 l 1,68,-1
 727 1912 l 1,0,1
EndSplineSet
EndChar

StartChar: slash
Encoding: 47 47 63
Width: 1176
GlyphClass: 2
Flags: W
LayerCount: 2
Fore
SplineSet
1147 1913 m 1,0,-1
 294 -86 l 1,1,-1
 42 -86 l 1,2,-1
 959 1913 l 1,3,-1
 1147 1913 l 1,0,-1
EndSplineSet
EndChar

StartChar: zero
Encoding: 48 48 64
Width: 1350
GlyphClass: 2
Flags: W
LayerCount: 2
Fore
SplineSet
857 1500 m 0,0,1
 1114 1500 1114 1500 1145 1163 c 0,2,3
 1160 981 1160 981 1110 729 c 0,4,5
 1044 402 1044 402 920 209 c 0,6,7
 769 -25 769 -25 556 -25 c 2,8,-1
 554 -25 l 2,9,10
 342 -25 342 -25 285 209 c 0,11,12
 237 401 237 401 302 729 c 0,13,14
 316 793 316 793 330.5 851.5 c 128,-1,15
 345 910 345 910 362 964 c 0,16,17
 378 1018 378 1018 398 1067.5 c 128,-1,18
 418 1117 418 1117 441 1163 c 0,19,20
 604 1500 604 1500 857 1500 c 0,0,1
830 1335 m 1,21,22
 797 1335 797 1335 763.5 1322 c 128,-1,23
 730 1309 730 1309 697 1286 c 0,24,25
 634 1244 634 1244 590 1161 c 0,26,27
 579 1141 579 1141 570 1122.5 c 128,-1,28
 561 1104 561 1104 554 1087 c 0,29,30
 546 1070 546 1070 539.5 1051.5 c 128,-1,31
 533 1033 533 1033 526 1013 c 0,32,33
 520 993 520 993 514 970.5 c 128,-1,34
 508 948 508 948 503 922 c 0,35,36
 497 896 497 896 490 864.5 c 128,-1,37
 483 833 483 833 475 795 c 0,38,39
 464 737 464 737 458.5 684 c 128,-1,40
 453 631 453 631 452 583 c 0,41,42
 452 533 452 533 455 492.5 c 128,-1,43
 458 452 458 452 466 420 c 0,44,45
 471 390 471 390 482.5 365.5 c 128,-1,46
 494 341 494 341 510 323 c 0,47,48
 545 282 545 282 616 282 c 2,49,-1
 619 282 l 2,50,51
 656 282 656 282 685.5 292.5 c 128,-1,52
 715 303 715 303 738 323 c 0,53,54
 785 358 785 358 822 420 c 0,55,56
 842 452 842 452 862 492.5 c 128,-1,57
 882 533 882 533 901 583 c 0,58,59
 921 631 921 631 936 684 c 128,-1,60
 951 737 951 737 963 795 c 0,61,62
 971 833 971 833 976.5 864.5 c 128,-1,63
 982 896 982 896 986 922 c 0,64,65
 991 948 991 948 993 970.5 c 128,-1,66
 995 993 995 993 997 1013 c 0,67,68
 1002 1052 1002 1052 1000 1087 c 0,69,70
 999 1104 999 1104 997 1122.5 c 128,-1,71
 995 1141 995 1141 993 1161 c 0,72,73
 982 1244 982 1244 936 1286 c 0,74,75
 913 1309 913 1309 884.5 1322 c 128,-1,76
 856 1335 856 1335 822 1335 c 1,77,-1
 830 1335 l 1,21,22
EndSplineSet
EndChar

StartChar: one
Encoding: 49 49 65
Width: 1350
GlyphClass: 2
Flags: W
LayerCount: 2
Fore
SplineSet
484 1119 m 1,0,-1
 515 1274 l 1,1,2
 600 1283 600 1283 661 1301 c 0,3,4
 692 1309 692 1309 716 1317.5 c 128,-1,5
 740 1326 740 1326 759 1336 c 0,6,7
 776 1346 776 1346 791 1357 c 128,-1,8
 806 1368 806 1368 821 1382 c 0,9,10
 829 1390 829 1390 835 1399 c 128,-1,11
 841 1408 841 1408 848 1419 c 2,12,-1
 865 1453 l 2,13,14
 870 1463 870 1463 875 1475 c 1,15,-1
 991 1475 l 1,16,-1
 745 0 l 1,17,-1
 488 0 l 1,18,-1
 762 1119 l 1,19,-1
 484 1119 l 1,0,-1
EndSplineSet
EndChar

StartChar: two
Encoding: 50 50 66
Width: 1350
GlyphClass: 2
Flags: W
LayerCount: 2
Fore
SplineSet
276 348 m 0,0,1
 297 384 297 384 327 420.5 c 128,-1,2
 357 457 357 457 396 495 c 256,3,4
 435 533 435 533 477.5 566 c 128,-1,5
 520 599 520 599 565 629 c 2,6,-1
 746 741 l 2,7,8
 776 761 776 761 802 779 c 128,-1,9
 828 797 828 797 850 813 c 0,10,11
 872 830 872 830 890 845.5 c 128,-1,12
 908 861 908 861 922 875 c 0,13,14
 963 917 963 917 984 963 c 0,15,16
 994 984 994 984 1002.5 1008 c 128,-1,17
 1011 1032 1011 1032 1017 1060 c 0,18,19
 1024 1092 1024 1092 1027.5 1119 c 128,-1,20
 1031 1146 1031 1146 1032 1165 c 0,21,22
 1032 1188 1032 1188 1029.5 1209 c 128,-1,23
 1027 1230 1027 1230 1016 1252 c 0,24,25
 1005 1273 1005 1273 991.5 1287 c 128,-1,26
 978 1301 978 1301 958 1312 c 0,27,28
 937 1323 937 1323 907.5 1329 c 128,-1,29
 878 1335 878 1335 850 1335 c 0,30,31
 816 1335 816 1335 789 1327 c 128,-1,32
 762 1319 762 1319 741 1310 c 0,33,34
 719 1300 719 1300 704.5 1287 c 128,-1,35
 690 1274 690 1274 673 1257 c 0,36,37
 662 1246 662 1246 652 1232.5 c 128,-1,38
 642 1219 642 1219 633 1202 c 0,39,40
 624 1190 624 1190 619 1173.5 c 128,-1,41
 614 1157 614 1157 609 1140 c 1,42,-1
 447 1140 l 1,43,44
 451 1176 451 1176 465.5 1213.5 c 128,-1,45
 480 1251 480 1251 503 1288 c 0,46,47
 517 1312 517 1312 535 1334.5 c 128,-1,48
 553 1357 553 1357 572.5 1376.5 c 128,-1,49
 592 1396 592 1396 611 1411.5 c 128,-1,50
 630 1427 630 1427 645 1438 c 0,51,52
 689 1467 689 1467 750 1484 c 0,53,54
 780 1493 780 1493 814.5 1496.5 c 128,-1,55
 849 1500 849 1500 889 1500 c 0,56,57
 940 1500 940 1500 982.5 1491.5 c 128,-1,58
 1025 1483 1025 1483 1058 1464 c 0,59,60
 1123 1428 1123 1428 1157 1359 c 0,61,62
 1174 1324 1174 1324 1184 1286.5 c 128,-1,63
 1194 1249 1194 1249 1197 1206 c 0,64,65
 1203 1125 1203 1125 1186 1036 c 0,66,67
 1176 992 1176 992 1162.5 953.5 c 128,-1,68
 1149 915 1149 915 1130 880 c 0,69,70
 1093 811 1093 811 1029 753 c 0,71,72
 965 690 965 690 912 648 c 0,73,74
 886 628 886 628 858 605.5 c 128,-1,75
 830 583 830 583 801 559 c 0,76,77
 776 541 776 541 753 523 c 128,-1,78
 730 505 730 505 709 488 c 0,79,80
 690 473 690 473 672 459 c 128,-1,81
 654 445 654 445 637 430 c 0,82,83
 619 416 619 416 607 405.5 c 128,-1,84
 595 395 595 395 588 389 c 0,85,86
 561 368 561 368 548 343 c 0,87,88
 540 331 540 331 534.5 320.5 c 128,-1,89
 529 310 529 310 525 301 c 0,90,91
 520 290 520 290 517 280 c 128,-1,92
 514 270 514 270 514 262 c 1,93,-1
 1024 262 l 1,94,-1
 972 0 l 1,95,-1
 164 0 l 1,96,97
 175 48 175 48 186.5 94.5 c 128,-1,98
 198 141 198 141 210 186 c 0,99,100
 234 276 234 276 276 348 c 0,0,1
EndSplineSet
EndChar

StartChar: three
Encoding: 51 51 67
Width: 1350
GlyphClass: 2
Flags: W
LayerCount: 2
Fore
SplineSet
253 122 m 0,0,1
 226 175 226 175 220 236 c 0,2,3
 217 266 217 266 218.5 305.5 c 128,-1,4
 220 345 220 345 228 394 c 1,5,-1
 428 394 l 1,6,7
 426 377 426 377 435 351 c 128,-1,8
 444 325 444 325 468 308 c 0,9,10
 485 297 485 297 522 290.5 c 128,-1,11
 559 284 559 284 597 284 c 0,12,13
 626 284 626 284 654.5 285.5 c 128,-1,14
 683 287 683 287 708 292 c 0,15,16
 734 297 734 297 753 303.5 c 128,-1,17
 772 310 772 310 788 327 c 0,18,19
 829 370 829 370 844 411 c 0,20,21
 851 431 851 431 858 457 c 128,-1,22
 865 483 865 483 872 515 c 0,23,24
 880 554 880 554 881 578 c 0,25,26
 883 589 883 589 883 601.5 c 128,-1,27
 883 614 883 614 879 626 c 0,28,29
 874 641 874 641 866.5 654 c 128,-1,30
 859 667 859 667 842 681 c 256,31,32
 825 695 825 695 807 704.5 c 128,-1,33
 789 714 789 714 770 719 c 0,34,35
 728 730 728 730 663 730 c 0,36,37
 652 730 652 730 641 730 c 0,38,39
 631 730 631 730 621 730 c 128,-1,40
 611 730 611 730 603 728 c 1,41,-1
 636 894 l 1,42,43
 643 893 643 893 649 892.5 c 128,-1,44
 655 892 655 892 666 891 c 0,45,46
 671 891 671 891 677.5 890.5 c 128,-1,47
 684 890 684 890 691 890 c 0,48,49
 699 890 699 890 707 890 c 0,50,51
 749 891 749 891 785.5 899 c 128,-1,52
 822 907 822 907 851 924 c 0,53,54
 905 952 905 952 935 991 c 0,55,56
 951 1011 951 1011 963.5 1038.5 c 128,-1,57
 976 1066 976 1066 984 1104 c 0,58,59
 989 1131 989 1131 993 1157.5 c 128,-1,60
 997 1184 997 1184 995 1206 c 0,61,62
 991 1252 991 1252 966 1277 c 0,63,64
 939 1310 939 1310 898 1323 c 0,65,66
 875 1329 875 1329 851.5 1332.5 c 128,-1,67
 828 1336 828 1336 807 1335 c 0,68,69
 731 1333 731 1333 692 1303 c 0,70,71
 670 1287 670 1287 655 1272 c 128,-1,72
 640 1257 640 1257 629 1242 c 0,73,74
 624 1234 624 1234 617.5 1221 c 128,-1,75
 611 1208 611 1208 607 1196 c 0,76,77
 602 1184 602 1184 599.5 1171 c 128,-1,78
 597 1158 597 1158 595 1141 c 1,79,-1
 423 1141 l 1,80,81
 428 1190 428 1190 445 1233 c 128,-1,82
 462 1276 462 1276 478 1300 c 0,83,84
 541 1401 541 1401 631 1452 c 0,85,86
 677 1478 677 1478 728 1489 c 128,-1,87
 779 1500 779 1500 836 1500 c 0,88,89
 929 1500 929 1500 993 1474.5 c 128,-1,90
 1057 1449 1057 1449 1095 1401 c 0,91,92
 1135 1350 1135 1350 1146 1279.5 c 128,-1,93
 1157 1209 1157 1209 1141 1112 c 0,94,95
 1136 1077 1136 1077 1129 1050 c 128,-1,96
 1122 1023 1122 1023 1111 993 c 0,97,98
 1100 967 1100 967 1085.5 945.5 c 128,-1,99
 1071 924 1071 924 1048 902 c 0,100,101
 1021 876 1021 876 989.5 861 c 128,-1,102
 958 846 958 846 928 833 c 1,103,104
 972 816 972 816 1003 784.5 c 128,-1,105
 1034 753 1034 753 1052 708 c 0,106,107
 1062 685 1062 685 1064.5 660 c 128,-1,108
 1067 635 1067 635 1069 610 c 0,109,110
 1070 585 1070 585 1066.5 556.5 c 128,-1,111
 1063 528 1063 528 1057 495 c 0,112,113
 1036 389 1036 389 992 281 c 0,114,115
 947 174 947 174 877 105 c 0,116,117
 811 40 811 40 720 7 c 0,118,119
 675 -8 675 -8 627 -16.5 c 128,-1,120
 579 -25 579 -25 528 -25 c 0,121,122
 324 -25 324 -25 253 122 c 0,0,1
EndSplineSet
EndChar

StartChar: four
Encoding: 52 52 68
Width: 1350
GlyphClass: 2
Flags: W
LayerCount: 2
Fore
SplineSet
602 0 m 1,0,-1
 678 253 l 1,1,-1
 187 253 l 1,2,-1
 239 517 l 1,3,-1
 970 1475 l 1,4,-1
 1096 1475 l 1,5,-1
 912 497 l 1,6,-1
 1074 497 l 1,7,-1
 1025 253 l 1,8,-1
 877 253 l 1,9,-1
 848 0 l 1,10,-1
 602 0 l 1,0,-1
734 497 m 1,11,-1
 929 1242 l 1,12,-1
 397 497 l 1,13,-1
 734 497 l 1,11,-1
EndSplineSet
EndChar

StartChar: five
Encoding: 53 53 69
Width: 1350
GlyphClass: 2
Flags: W
LayerCount: 2
Fore
SplineSet
416 377 m 1,0,1
 412 362 412 362 417 337 c 0,2,3
 422 314 422 314 451 299 c 0,4,5
 462 293 462 293 474 290 c 0,6,7
 481 288 481 288 487.5 287 c 128,-1,8
 494 286 494 286 502 285 c 256,9,10
 510 284 510 284 519 283.5 c 128,-1,11
 528 283 528 283 539 283 c 2,12,-1
 595 283 l 2,13,14
 662 283 662 283 710 298 c 0,15,16
 756 311 756 311 801 367 c 0,17,18
 823 393 823 393 837 416.5 c 128,-1,19
 851 440 851 440 860 465 c 0,20,21
 871 490 871 490 877 516.5 c 128,-1,22
 883 543 883 543 890 575 c 0,23,24
 898 615 898 615 901.5 650.5 c 128,-1,25
 905 686 905 686 903 717 c 0,26,27
 902 780 902 780 873 825 c 0,28,29
 843 869 843 869 808 885 c 0,30,31
 770 901 770 901 719 901 c 0,32,33
 699 901 699 901 684 900 c 128,-1,34
 669 899 669 899 658 896 c 0,35,36
 633 890 633 890 608 878 c 128,-1,37
 583 866 583 866 559 850 c 0,38,39
 540 838 540 838 523 821.5 c 128,-1,40
 506 805 506 805 492 788 c 1,41,-1
 344 788 l 1,42,-1
 485 1475 l 1,43,-1
 1185 1475 l 1,44,-1
 1151 1308 l 1,45,-1
 600 1308 l 1,46,-1
 533 977 l 1,47,48
 545 988 545 988 556.5 997 c 128,-1,49
 568 1006 568 1006 580 1014 c 0,50,51
 601 1028 601 1028 622 1038 c 0,52,53
 698 1073 698 1073 782 1073 c 0,54,55
 945 1073 945 1073 1029 938 c 0,56,57
 1074 872 1074 872 1083 777 c 0,58,59
 1092 680 1092 680 1070 578 c 0,60,61
 1056 502 1056 502 1037 439 c 128,-1,62
 1018 376 1018 376 996 323 c 256,63,64
 974 270 974 270 945.5 223.5 c 128,-1,65
 917 177 917 177 882 134 c 0,66,67
 847 93 847 93 807.5 63 c 128,-1,68
 768 33 768 33 722 13 c 0,69,70
 629 -25 629 -25 518 -25 c 0,71,72
 480 -25 480 -25 447 -20.5 c 128,-1,73
 414 -16 414 -16 384 -8 c 0,74,75
 327 8 327 8 281 63 c 0,76,77
 257 89 257 89 243 123.5 c 128,-1,78
 229 158 229 158 223 202 c 0,79,80
 212 288 212 288 224 377 c 1,81,-1
 416 377 l 1,0,1
EndSplineSet
EndChar

StartChar: six
Encoding: 54 54 70
Width: 1350
GlyphClass: 2
Flags: W
LayerCount: 2
Fore
SplineSet
1162 1314 m 0,0,1
 1167 1288 1167 1288 1169 1258 c 0,2,3
 1170 1231 1170 1231 1166 1204 c 1,4,-1
 1019 1204 l 1,5,6
 1020 1223 1020 1223 1018.5 1247 c 128,-1,7
 1017 1271 1017 1271 1003 1288 c 0,8,9
 978 1321 978 1321 940 1328 c 128,-1,10
 902 1335 902 1335 860 1335 c 0,11,12
 840 1335 840 1335 823.5 1334 c 128,-1,13
 807 1333 807 1333 790 1329 c 0,14,15
 723 1316 723 1316 680 1276 c 0,16,17
 667 1265 667 1265 654.5 1250 c 128,-1,18
 642 1235 642 1235 628 1217 c 0,19,20
 603 1181 603 1181 581.5 1134 c 128,-1,21
 560 1087 560 1087 540 1030 c 0,22,23
 521 974 521 974 504.5 919.5 c 128,-1,24
 488 865 488 865 473 797 c 1,25,26
 508 845 508 845 544 873.5 c 128,-1,27
 580 902 580 902 623 927 c 0,28,29
 665 947 665 947 706.5 957.5 c 128,-1,30
 748 968 748 968 790 968 c 0,31,32
 939 968 939 968 1026 848 c 0,33,34
 1112 729 1112 729 1065 493 c 0,35,36
 1025 292 1025 292 889 135 c 0,37,38
 820 57 820 57 738 16 c 128,-1,39
 656 -25 656 -25 559 -25 c 0,40,41
 475 -25 475 -25 412.5 16.5 c 128,-1,42
 350 58 350 58 305 137 c 0,43,44
 217 297 217 297 292 668 c 0,45,46
 319 805 319 805 355.5 921.5 c 128,-1,47
 392 1038 392 1038 438 1138 c 0,48,49
 527 1322 527 1322 639 1411 c 128,-1,50
 751 1500 751 1500 889 1500 c 0,51,52
 965 1500 965 1500 1011 1480 c 128,-1,53
 1057 1460 1057 1460 1084 1436 c 0,54,55
 1094 1427 1094 1427 1105 1415.5 c 128,-1,56
 1116 1404 1116 1404 1127 1389 c 128,-1,57
 1138 1374 1138 1374 1147 1355.5 c 128,-1,58
 1156 1337 1156 1337 1162 1314 c 0,0,1
912 482 m 0,59,60
 920 508 920 508 927 546 c 128,-1,61
 934 584 934 584 931 635 c 0,62,63
 930 655 930 655 925 673.5 c 128,-1,64
 920 692 920 692 912 712 c 0,65,66
 892 759 892 759 845 777 c 0,67,68
 799 798 799 798 729 798 c 0,69,70
 681 798 681 798 638 781 c 0,71,72
 591 765 591 765 549 725 c 0,73,74
 527 704 527 704 509.5 683.5 c 128,-1,75
 492 663 492 663 480 640 c 0,76,77
 467 617 467 617 455 586.5 c 128,-1,78
 443 556 443 556 433 516 c 0,79,80
 430 503 430 503 428 483 c 128,-1,81
 426 463 426 463 426.5 442 c 128,-1,82
 427 421 427 421 430.5 401 c 128,-1,83
 434 381 434 381 442 366 c 0,84,85
 451 351 451 351 465.5 336.5 c 128,-1,86
 480 322 480 322 501.5 310 c 128,-1,87
 523 298 523 298 553.5 291 c 128,-1,88
 584 284 584 284 624 284 c 0,89,90
 661 284 661 284 691 289 c 128,-1,91
 721 294 721 294 744 300.5 c 128,-1,92
 767 307 767 307 782.5 314.5 c 128,-1,93
 798 322 798 322 805 326 c 0,94,95
 843 349 843 349 869.5 392 c 128,-1,96
 896 435 896 435 912 482 c 0,59,60
EndSplineSet
EndChar

StartChar: seven
Encoding: 55 55 71
Width: 1350
GlyphClass: 2
Flags: W
LayerCount: 2
Fore
SplineSet
1175 1475 m 1,0,-1
 1134 1268 l 1,1,2
 1123 1260 1123 1260 1113 1251 c 128,-1,3
 1103 1242 1103 1242 1092 1234 c 0,4,5
 1082 1226 1082 1226 1072 1215.5 c 128,-1,6
 1062 1205 1062 1205 1050 1194 c 0,7,8
 1039 1183 1039 1183 1027 1169.5 c 128,-1,9
 1015 1156 1015 1156 1002 1141 c 0,10,11
 989 1125 989 1125 974.5 1107 c 128,-1,12
 960 1089 960 1089 943 1067 c 0,13,14
 927 1045 927 1045 912.5 1024.5 c 128,-1,15
 898 1004 898 1004 883 984 c 0,16,17
 869 964 869 964 855.5 944 c 128,-1,18
 842 924 842 924 829 904 c 0,19,20
 801 863 801 863 776 821 c 0,21,22
 763 799 763 799 749.5 776 c 128,-1,23
 736 753 736 753 720 727 c 0,24,25
 698 689 698 689 676 635 c 0,26,27
 665 607 665 607 654 579 c 128,-1,28
 643 551 643 551 632 522 c 256,29,30
 621 493 621 493 612 466.5 c 128,-1,31
 603 440 603 440 595 414 c 0,32,33
 586 388 586 388 579.5 367.5 c 128,-1,34
 573 347 573 347 568 332 c 0,35,36
 560 305 560 305 549.5 271.5 c 128,-1,37
 539 238 539 238 526 197 c 0,38,39
 513 155 513 155 499 107 c 128,-1,40
 485 59 485 59 469 0 c 1,41,-1
 213 0 l 1,42,43
 249 109 249 109 295 219 c 128,-1,44
 341 329 341 329 400 446 c 0,45,46
 458 561 458 561 521 671.5 c 128,-1,47
 584 782 584 782 653 889 c 0,48,49
 694 952 694 952 733.5 1006.5 c 128,-1,50
 773 1061 773 1061 815 1108 c 0,51,52
 856 1156 856 1156 896.5 1204.5 c 128,-1,53
 937 1253 937 1253 979 1305 c 1,54,-1
 322 1305 l 1,55,-1
 356 1475 l 1,56,-1
 1175 1475 l 1,0,-1
EndSplineSet
EndChar

StartChar: eight
Encoding: 56 56 72
Width: 1350
GlyphClass: 2
Flags: W
LayerCount: 2
Fore
SplineSet
426 884 m 0,0,1
 377 969 377 969 404 1099 c 0,2,3
 435 1265 435 1265 555 1383 c 0,4,5
 615 1443 615 1443 688 1471.5 c 128,-1,6
 761 1500 761 1500 850 1500 c 0,7,8
 1019 1500 1019 1500 1093 1393 c 1,9,10
 1166 1279 1166 1279 1137 1130 c 0,11,12
 1123 1061 1123 1061 1098 1005 c 128,-1,13
 1073 949 1073 949 1035 904 c 0,14,15
 1015 881 1015 881 986.5 857.5 c 128,-1,16
 958 834 958 834 920 810 c 1,17,18
 985 767 985 767 1016 712 c 0,19,20
 1073 608 1073 608 1041 442 c 0,21,22
 1001 245 1001 245 869 112 c 1,23,24
 740 -25 740 -25 547 -25 c 0,25,26
 371 -25 371 -25 281 92 c 1,27,28
 184 210 184 210 229 433 c 0,29,30
 256 565 256 565 325 661 c 0,31,32
 360 708 360 708 405 745 c 128,-1,33
 450 782 450 782 507 808 c 1,34,35
 454 838 454 838 426 884 c 0,0,1
828 366 m 0,36,37
 845 384 845 384 864.5 417 c 128,-1,38
 884 450 884 450 892 487 c 0,39,40
 907 559 907 559 896 594 c 0,41,42
 890 611 890 611 880.5 628.5 c 128,-1,43
 871 646 871 646 857 665 c 0,44,45
 802 740 802 740 693 740 c 0,46,47
 588 740 588 740 504 665 c 0,48,49
 495 655 495 655 485.5 646 c 128,-1,50
 476 637 476 637 468 629 c 0,51,52
 460 620 460 620 453 611 c 128,-1,53
 446 602 446 602 439 592 c 0,54,55
 433 583 433 583 428.5 572.5 c 128,-1,56
 424 562 424 562 419 550 c 0,57,58
 410 528 410 528 404 495 c 0,59,60
 392 448 392 448 397 418 c 0,61,62
 399 404 399 404 403.5 389.5 c 128,-1,63
 408 375 408 375 416 358 c 0,64,65
 427 336 427 336 442 320 c 256,66,67
 457 304 457 304 479 296 c 0,68,69
 491 292 491 292 504.5 289.5 c 128,-1,70
 518 287 518 287 535 286 c 0,71,72
 551 285 551 285 570.5 284.5 c 128,-1,73
 590 284 590 284 612 284 c 0,74,75
 680 284 680 284 737 304 c 0,76,77
 766 314 766 314 787.5 330 c 128,-1,78
 809 346 809 346 828 366 c 0,36,37
893 974 m 0,79,80
 911 991 911 991 924.5 1007.5 c 128,-1,81
 938 1024 938 1024 947 1038 c 0,82,83
 958 1054 958 1054 965 1072.5 c 128,-1,84
 972 1091 972 1091 977 1115 c 0,85,86
 985 1157 985 1157 986 1194 c 0,87,88
 986 1232 986 1232 968 1268 c 1,89,90
 946 1301 946 1301 906 1317 c 0,91,92
 886 1325 886 1325 862.5 1330 c 128,-1,93
 839 1335 839 1335 813 1335 c 0,94,95
 786 1335 786 1335 761 1329.5 c 128,-1,96
 736 1324 736 1324 711 1316 c 0,97,98
 661 1299 661 1299 633 1266 c 0,99,100
 617 1248 617 1248 605 1229.5 c 128,-1,101
 593 1211 593 1211 585 1191 c 256,102,103
 577 1171 577 1171 570.5 1150 c 128,-1,104
 564 1129 564 1129 559 1105 c 0,105,106
 548 1052 548 1052 559 1023 c 0,107,108
 568 995 568 995 594 966 c 0,109,110
 642 906 642 906 726 906 c 0,111,112
 825 906 825 906 893 974 c 0,79,80
EndSplineSet
EndChar

StartChar: nine
Encoding: 57 57 73
Width: 1350
GlyphClass: 2
Flags: W
LayerCount: 2
Fore
SplineSet
389 390 m 1,0,1
 391 379 391 379 392.5 369 c 128,-1,2
 394 359 394 359 396 350 c 0,3,4
 399 332 399 332 409 317 c 0,5,6
 418 304 418 304 435 296.5 c 128,-1,7
 452 289 452 289 481 286 c 0,8,9
 496 284 496 284 512.5 284 c 128,-1,10
 529 284 529 284 537 284 c 2,11,-1
 590 284 l 2,12,13
 604 284 604 284 617.5 285 c 128,-1,14
 631 286 631 286 645 288 c 0,15,16
 658 290 658 290 671 294 c 128,-1,17
 684 298 684 298 698 305 c 0,18,19
 711 311 711 311 723.5 322 c 128,-1,20
 736 333 736 333 748 347 c 256,21,22
 760 361 760 361 771.5 376 c 128,-1,23
 783 391 783 391 793 408 c 256,24,25
 803 425 803 425 813.5 445 c 128,-1,26
 824 465 824 465 835 489 c 0,27,28
 857 537 857 537 876 598 c 0,29,30
 887 629 887 629 898.5 665.5 c 128,-1,31
 910 702 910 702 923 747 c 1,32,33
 889 695 889 695 857 669 c 0,34,35
 825 642 825 642 788 623 c 128,-1,36
 751 604 751 604 700 596 c 0,37,38
 677 593 677 593 656 592 c 128,-1,39
 635 591 635 591 613 591 c 0,40,41
 602 591 602 591 583.5 592 c 128,-1,42
 565 593 565 593 543 596.5 c 128,-1,43
 521 600 521 600 498.5 606.5 c 128,-1,44
 476 613 476 613 458 623 c 0,45,46
 417 646 417 646 392 673.5 c 128,-1,47
 367 701 367 701 352.5 730.5 c 128,-1,48
 338 760 338 760 332 791 c 128,-1,49
 326 822 326 822 322 852 c 0,50,51
 317 894 317 894 321 940.5 c 128,-1,52
 325 987 325 987 335 1039 c 0,53,54
 347 1093 347 1093 359 1131 c 0,55,56
 366 1151 366 1151 374 1170 c 128,-1,57
 382 1189 382 1189 393 1206 c 0,58,59
 403 1225 403 1225 413.5 1243 c 128,-1,60
 424 1261 424 1261 437 1278 c 0,61,62
 449 1296 449 1296 463.5 1313 c 128,-1,63
 478 1330 478 1330 494 1350 c 0,64,65
 622 1500 622 1500 814 1500 c 0,66,67
 917 1500 917 1500 989.5 1452 c 128,-1,68
 1062 1404 1062 1404 1093 1312 c 0,69,70
 1101 1289 1101 1289 1107 1268 c 128,-1,71
 1113 1247 1113 1247 1116 1209 c 0,72,73
 1119 1164 1119 1164 1117.5 1124 c 128,-1,74
 1116 1084 1116 1084 1108 1031 c 0,75,76
 1100 982 1100 982 1091 927 c 128,-1,77
 1082 872 1082 872 1070 810 c 0,78,79
 1056 742 1056 742 1041.5 678.5 c 128,-1,80
 1027 615 1027 615 1010 554 c 0,81,82
 979 433 979 433 924 327 c 0,83,84
 746 -25 746 -25 488 -25 c 0,85,86
 400 -25 400 -25 343.5 4 c 128,-1,87
 287 33 287 33 255 90 c 0,88,89
 221 148 221 148 215 225 c 0,90,91
 211 265 211 265 211 306 c 128,-1,92
 211 347 211 347 220 390 c 1,93,-1
 389 390 l 1,0,1
936 952 m 0,94,95
 948 977 948 977 954.5 1000 c 128,-1,96
 961 1023 961 1023 965 1044 c 0,97,98
 970 1064 970 1064 972 1082 c 128,-1,99
 974 1100 974 1100 976 1114 c 0,100,101
 978 1130 978 1130 978 1143 c 128,-1,102
 978 1156 978 1156 977 1167 c 0,103,104
 974 1192 974 1192 968 1210 c 0,105,106
 964 1221 964 1221 959 1230.5 c 128,-1,107
 954 1240 954 1240 948 1250 c 0,108,109
 935 1271 935 1271 918.5 1287 c 128,-1,110
 902 1303 902 1303 879 1314 c 0,111,112
 836 1335 836 1335 784 1335 c 0,113,114
 731 1335 731 1335 675 1307 c 0,115,116
 623 1279 623 1279 579 1231 c 0,117,118
 536 1184 536 1184 518 1138 c 0,119,120
 496 1090 496 1090 483 1013 c 0,121,122
 480 1000 480 1000 478.5 983.5 c 128,-1,123
 477 967 477 967 478 949 c 128,-1,124
 479 931 479 931 482 913 c 128,-1,125
 485 895 485 895 492 880 c 0,126,127
 501 858 501 858 518.5 842.5 c 128,-1,128
 536 827 536 827 560 816 c 0,129,130
 608 796 608 796 670 796 c 0,131,132
 716 796 716 796 770 812 c 0,133,134
 798 820 798 820 823.5 835 c 128,-1,135
 849 850 849 850 871 869 c 128,-1,136
 893 888 893 888 909.5 909.5 c 128,-1,137
 926 931 926 931 936 952 c 0,94,95
EndSplineSet
EndChar

StartChar: colon
Encoding: 58 58 74
Width: 817
GlyphClass: 2
Flags: W
LayerCount: 2
Fore
SplineSet
488 178 m 0,0,1
 472 92 472 92 413 33 c 0,2,3
 353 -25 353 -25 286 -25 c 0,4,5
 217 -25 217 -25 182 33 c 0,6,7
 146 93 146 93 164 178 c 0,8,9
 182 265 182 265 240 323 c 256,10,11
 298 381 298 381 368 381 c 0,12,13
 435 381 435 381 471 323 c 0,14,15
 506 264 506 264 488 178 c 0,0,1
658 1033 m 0,16,17
 642 947 642 947 583 888 c 256,18,19
 524 829 524 829 456 829 c 256,20,21
 388 829 388 829 352 888 c 0,22,23
 318 946 318 946 334 1033 c 0,24,25
 352 1119 352 1119 410 1177 c 0,26,27
 469 1236 469 1236 538 1236 c 0,28,29
 606 1236 606 1236 641 1177 c 256,30,31
 676 1118 676 1118 658 1033 c 0,16,17
EndSplineSet
EndChar

StartChar: hyphen
Encoding: 45 45 75
Width: 1544
GlyphClass: 2
Flags: W
LayerCount: 2
Fore
SplineSet
1276 482 m 1,0,-1
 210 482 l 1,1,-1
 278 776 l 1,2,-1
 1344 776 l 1,3,-1
 1276 482 l 1,0,-1
EndSplineSet
EndChar

StartChar: semicolon
Encoding: 59 59 76
Width: 817
GlyphClass: 2
Flags: W
LayerCount: 2
Fore
SplineSet
473 327 m 0,0,1
 508 270 508 270 491 182 c 0,2,3
 466 59 466 59 446 -22 c 0,4,5
 436 -63 436 -63 426 -96.5 c 128,-1,6
 416 -130 416 -130 406 -157 c 256,7,8
 396 -184 396 -184 386 -206.5 c 128,-1,9
 376 -229 376 -229 366 -246 c 0,10,11
 356 -264 356 -264 344.5 -279 c 128,-1,12
 333 -294 333 -294 320 -308 c 0,13,14
 307 -324 307 -324 293 -336 c 128,-1,15
 279 -348 279 -348 263 -358 c 0,16,17
 248 -368 248 -368 234 -376 c 128,-1,18
 220 -384 220 -384 207 -391 c 0,19,20
 192 -398 192 -398 177 -402.5 c 128,-1,21
 162 -407 162 -407 146 -411 c 1,22,-1
 154 -280 l 1,23,24
 187 -270 187 -270 213 -251 c 0,25,26
 237 -234 237 -234 265 -203 c 0,27,28
 292 -168 292 -168 307 -127 c 0,29,30
 315 -107 315 -107 322.5 -78 c 128,-1,31
 330 -49 330 -49 337 -11 c 1,32,33
 327 -18 327 -18 313 -19 c 0,34,35
 305 -20 305 -20 299 -20.5 c 128,-1,36
 293 -21 293 -21 288 -21 c 0,37,38
 221 -21 221 -21 184 37 c 0,39,40
 150 97 150 97 166 182 c 0,41,42
 184 269 184 269 242 327 c 0,43,44
 301 386 301 386 370 386 c 0,45,46
 438 386 438 386 473 327 c 0,0,1
643 1178 m 0,47,48
 609 1236 609 1236 540 1236 c 0,49,50
 470 1236 470 1236 412 1178 c 256,51,52
 354 1120 354 1120 336 1033 c 0,53,54
 320 948 320 948 354 889 c 0,55,56
 390 830 390 830 459 830 c 0,57,58
 527 830 527 830 586 889 c 256,59,60
 645 948 645 948 661 1033 c 0,61,62
 678 1121 678 1121 643 1178 c 0,47,48
EndSplineSet
EndChar

StartChar: quotedbl
Encoding: 34 34 78
Width: 1452
GlyphClass: 2
Flags: W
LayerCount: 2
Fore
SplineSet
550 1600 m 0,0,1
 620 1600 620 1600 654 1540 c 0,2,3
 690 1483 690 1483 672 1396 c 0,4,5
 659 1334 659 1334 648.5 1284 c 128,-1,6
 638 1234 638 1234 628 1192 c 0,7,8
 617 1151 617 1151 607 1117.5 c 128,-1,9
 597 1084 597 1084 587 1057 c 0,10,11
 566 1003 566 1003 547 968 c 0,12,13
 537 950 537 950 526 935 c 128,-1,14
 515 920 515 920 504 906 c 0,15,16
 477 878 477 878 446 856 c 0,17,18
 431 846 431 846 417 838.5 c 128,-1,19
 403 831 403 831 390 824 c 0,20,21
 375 816 375 816 359.5 811.5 c 128,-1,22
 344 807 344 807 330 804 c 1,23,-1
 336 935 l 1,24,25
 368 944 368 944 394 963 c 0,26,27
 420 981 420 981 446 1011 c 0,28,29
 473 1047 473 1047 488 1087 c 0,30,31
 504 1125 504 1125 519 1204 c 1,32,33
 512 1198 512 1198 495 1195 c 0,34,35
 487 1193 487 1193 481 1193 c 128,-1,36
 475 1193 475 1193 469 1193 c 0,37,38
 401 1193 401 1193 365 1252 c 0,39,40
 331 1309 331 1309 348 1396 c 0,41,42
 365 1482 365 1482 423 1540 c 0,43,44
 482 1600 482 1600 550 1600 c 0,0,1
1077 1600 m 0,45,46
 1109 1600 1109 1600 1135 1583 c 0,47,48
 1161 1569 1161 1569 1179 1540 c 0,49,50
 1196 1512 1196 1512 1202 1476 c 0,51,52
 1206 1439 1206 1439 1199 1396 c 0,53,54
 1187 1334 1187 1334 1175.5 1284 c 128,-1,55
 1164 1234 1164 1234 1154 1192 c 0,56,57
 1143 1151 1143 1151 1133 1117.5 c 128,-1,58
 1123 1084 1123 1084 1113 1057 c 0,59,60
 1104 1030 1104 1030 1093.5 1008 c 128,-1,61
 1083 986 1083 986 1073 968 c 0,62,63
 1062 950 1062 950 1050.5 935 c 128,-1,64
 1039 920 1039 920 1028 906 c 0,65,66
 1014 891 1014 891 1000 879 c 128,-1,67
 986 867 986 867 971 856 c 0,68,69
 955 846 955 846 941.5 838.5 c 128,-1,70
 928 831 928 831 915 824 c 0,71,72
 900 816 900 816 884.5 811.5 c 128,-1,73
 869 807 869 807 854 804 c 1,74,-1
 862 935 l 1,75,76
 879 940 879 940 893 947 c 128,-1,77
 907 954 907 954 920 963 c 0,78,79
 947 983 947 983 971 1011 c 0,80,81
 985 1029 985 1029 996 1048 c 128,-1,82
 1007 1067 1007 1067 1015 1087 c 0,83,84
 1030 1128 1030 1128 1045 1204 c 1,85,86
 1039 1200 1039 1200 1033 1198.5 c 128,-1,87
 1027 1197 1027 1197 1020 1195 c 256,88,89
 1013 1193 1013 1193 1006.5 1193 c 128,-1,90
 1000 1193 1000 1193 995 1193 c 0,91,92
 926 1193 926 1193 891 1252 c 0,93,94
 855 1310 855 1310 872 1396 c 0,95,96
 881 1439 881 1439 900 1475 c 128,-1,97
 919 1511 919 1511 949 1540 c 0,98,99
 1008 1600 1008 1600 1077 1600 c 0,45,46
EndSplineSet
EndChar

StartChar: idieresis
Encoding: 239 239 85
Width: 1135
GlyphClass: 2
Flags: W
LayerCount: 2
Fore
SplineSet
528 1638 m 0,0,1
 522 1608 522 1608 507 1577 c 128,-1,2
 492 1546 492 1546 469 1521 c 128,-1,3
 446 1496 446 1496 416.5 1480 c 128,-1,4
 387 1464 387 1464 354 1464 c 0,5,6
 298 1464 298 1464 266 1515 c 0,7,8
 235 1568 235 1568 250 1638 c 0,9,10
 256 1669 256 1669 271 1700 c 128,-1,11
 286 1731 286 1731 308.5 1756 c 128,-1,12
 331 1781 331 1781 360.5 1796.5 c 128,-1,13
 390 1812 390 1812 424 1812 c 0,14,15
 453 1812 453 1812 475.5 1800 c 128,-1,16
 498 1788 498 1788 512 1762 c 0,17,18
 526 1735 526 1735 531 1704.5 c 128,-1,19
 536 1674 536 1674 528 1638 c 0,0,1
931 1638 m 0,20,21
 925 1608 925 1608 910 1577 c 128,-1,22
 895 1546 895 1546 872 1521 c 128,-1,23
 849 1496 849 1496 819.5 1480 c 128,-1,24
 790 1464 790 1464 757 1464 c 0,25,26
 701 1464 701 1464 669 1515 c 0,27,28
 638 1568 638 1568 653 1638 c 0,29,30
 659 1669 659 1669 674 1700 c 128,-1,31
 689 1731 689 1731 711.5 1756 c 128,-1,32
 734 1781 734 1781 763.5 1796.5 c 128,-1,33
 793 1812 793 1812 827 1812 c 0,34,35
 856 1812 856 1812 878.5 1800 c 128,-1,36
 901 1788 901 1788 915 1762 c 0,37,38
 929 1735 929 1735 934 1704.5 c 128,-1,39
 939 1674 939 1674 931 1638 c 0,20,21
618 1214 m 1,40,-1
 428 0 l 1,41,-1
 214 0 l 1,42,-1
 447 1214 l 1,43,-1
 618 1214 l 1,40,-1
EndSplineSet
EndChar

StartChar: underscore
Encoding: 95 95 86
Width: 1858
GlyphClass: 2
Flags: W
LayerCount: 2
Fore
SplineSet
1685 -284 m 1,0,-1
 95 -284 l 1,1,-1
 173 -50 l 1,2,-1
 1763 -50 l 1,3,-1
 1685 -284 l 1,0,-1
EndSplineSet
EndChar

StartChar: exclam
Encoding: 33 33 87
Width: 1227
GlyphClass: 2
Flags: W
LayerCount: 2
Fore
SplineSet
675 161 m 0,0,1
 671 140 671 140 664 121 c 128,-1,2
 657 102 657 102 647 83 c 0,3,4
 628 46 628 46 600 18 c 0,5,6
 570 -11 570 -11 539 -26 c 0,7,8
 522 -34 522 -34 505.5 -38.5 c 128,-1,9
 489 -43 489 -43 472 -43 c 256,10,11
 455 -43 455 -43 440 -38.5 c 128,-1,12
 425 -34 425 -34 411 -26 c 0,13,14
 387 -10 387 -10 368 18 c 0,15,16
 352 45 352 45 347 83 c 256,17,18
 342 121 342 121 351 161 c 0,19,20
 368 248 368 248 426 306 c 0,21,22
 485 365 485 365 554 365 c 0,23,24
 622 365 622 365 657 306 c 0,25,26
 692 249 692 249 675 161 c 0,0,1
779 1913 m 1,27,-1
 951 1913 l 1,28,-1
 716 579 l 1,29,-1
 480 579 l 1,30,-1
 779 1913 l 1,27,-1
EndSplineSet
EndChar

StartChar: fraction
Encoding: 8260 8260 88
Width: 1208
GlyphClass: 2
Flags: W
LayerCount: 2
Fore
SplineSet
438 0 m 1,0,-1
 123 0 l 1,1,-1
 770 1999 l 1,2,-1
 1004 1999 l 1,3,-1
 438 0 l 1,0,-1
EndSplineSet
EndChar

StartChar: backslash
Encoding: 92 92 89
Width: 1208
GlyphClass: 2
Flags: W
LayerCount: 2
Fore
SplineSet
407 1999 m 1,0,-1
 595 1999 l 1,1,-1
 712 0 l 1,2,-1
 459 0 l 1,3,-1
 407 1998 l 1,4,-1
 407 1999 l 1,0,-1
EndSplineSet
EndChar

StartChar: igrave
Encoding: 236 236 96
Width: 1141
GlyphClass: 2
Flags: W
LayerCount: 2
Fore
SplineSet
655 1914 m 1,0,-1
 872 1523 l 1,1,-1
 706 1356 l 1,2,-1
 464 1723 l 1,3,-1
 655 1914 l 1,0,-1
768 1213 m 1,4,-1
 578 0 l 1,5,-1
 364 0 l 1,6,-1
 597 1213 l 1,7,-1
 768 1213 l 1,4,-1
EndSplineSet
EndChar

StartChar: iacute
Encoding: 237 237 97
Width: 844
GlyphClass: 2
Flags: W
LayerCount: 2
Fore
SplineSet
434 1364 m 1,0,-1
 337 1531 l 1,1,-1
 701 1914 l 1,2,-1
 814 1723 l 1,3,-1
 434 1364 l 1,0,-1
508 1213 m 1,4,-1
 318 0 l 1,5,-1
 104 0 l 1,6,-1
 337 1213 l 1,7,-1
 508 1213 l 1,4,-1
EndSplineSet
EndChar

StartChar: minus
Encoding: 8722 8722 98
Width: 1350
GlyphClass: 2
Flags: W
LayerCount: 2
Fore
SplineSet
1173 409 m 1,0,-1
 106 409 l 1,1,-1
 175 702 l 1,2,-1
 1242 702 l 1,3,-1
 1173 409 l 1,0,-1
EndSplineSet
EndChar

StartChar: quotedblright
Encoding: 8221 8221 99
Width: 1526
GlyphClass: 2
Flags: W
LayerCount: 2
Fore
SplineSet
1144 1563 m 0,0,1
 1214 1563 1214 1563 1247 1504 c 0,2,3
 1283 1447 1283 1447 1266 1360 c 0,4,5
 1241 1236 1241 1236 1220 1155 c 0,6,7
 1201 1074 1201 1074 1181 1020 c 0,8,9
 1160 966 1160 966 1141 931 c 0,10,11
 1120 895 1120 895 1097 869 c 0,12,13
 1070 841 1070 841 1039 819 c 0,14,15
 1025 809 1025 809 1010.5 801.5 c 128,-1,16
 996 794 996 794 984 787 c 0,17,18
 953 773 953 773 922 767 c 1,19,-1
 929 898 l 1,20,21
 946 903 946 903 960.5 910.5 c 128,-1,22
 975 918 975 918 988 927 c 0,23,24
 1000 936 1000 936 1013 948 c 128,-1,25
 1026 960 1026 960 1039 974 c 0,26,27
 1067 1011 1067 1011 1081 1051 c 0,28,29
 1089 1071 1089 1071 1097 1100 c 128,-1,30
 1105 1129 1105 1129 1112 1167 c 1,31,32
 1103 1159 1103 1159 1088 1158 c 0,33,34
 1081 1157 1081 1157 1074.5 1156.5 c 128,-1,35
 1068 1156 1068 1156 1062 1156 c 0,36,37
 994 1156 994 1156 958 1215 c 0,38,39
 925 1276 925 1276 941 1360 c 0,40,41
 958 1446 958 1446 1017 1504 c 0,42,43
 1076 1563 1076 1563 1144 1563 c 0,0,1
487 1563 m 256,44,45
 555 1563 555 1563 591 1504 c 0,46,47
 626 1447 626 1447 609 1360 c 0,48,49
 597 1297 597 1297 585.5 1247 c 128,-1,50
 574 1197 574 1197 564 1155 c 0,51,52
 554 1114 554 1114 544 1080.5 c 128,-1,53
 534 1047 534 1047 524 1020 c 0,54,55
 505 966 505 966 484 931 c 0,56,57
 464 895 464 895 440 869 c 0,58,59
 426 854 426 854 411.5 842 c 128,-1,60
 397 830 397 830 383 819 c 0,61,62
 367 809 367 809 353.5 801.5 c 128,-1,63
 340 794 340 794 326 787 c 0,64,65
 311 779 311 779 296 774.5 c 128,-1,66
 281 770 281 770 266 767 c 1,67,-1
 272 898 l 1,68,69
 289 903 289 903 303.5 910.5 c 128,-1,70
 318 918 318 918 332 927 c 0,71,72
 354 944 354 944 383 974 c 0,73,74
 396 992 396 992 406.5 1011 c 128,-1,75
 417 1030 417 1030 425 1051 c 0,76,77
 433 1071 433 1071 440.5 1100 c 128,-1,78
 448 1129 448 1129 456 1167 c 1,79,80
 446 1160 446 1160 432 1158 c 0,81,82
 425 1157 425 1157 418.5 1156.5 c 128,-1,83
 412 1156 412 1156 405 1156 c 0,84,85
 337 1156 337 1156 302 1215 c 256,86,87
 267 1274 267 1274 285 1360 c 0,88,89
 302 1447 302 1447 360 1504 c 0,90,91
 419 1563 419 1563 487 1563 c 256,44,45
EndSplineSet
EndChar

StartChar: quotedblleft
Encoding: 8220 8220 101
Width: 1522
GlyphClass: 2
Flags: W
LayerCount: 2
Fore
SplineSet
402 807 m 0,0,1
 333 807 333 807 298 865 c 0,2,3
 264 923 264 923 280 1010 c 0,4,5
 292 1072 292 1072 303.5 1122.5 c 128,-1,6
 315 1173 315 1173 325 1214 c 0,7,8
 335 1254 335 1254 345 1287.5 c 128,-1,9
 355 1321 355 1321 364 1349 c 0,10,11
 374 1376 374 1376 384 1398 c 128,-1,12
 394 1420 394 1420 404 1437 c 256,13,14
 414 1454 414 1454 425.5 1469.5 c 128,-1,15
 437 1485 437 1485 449 1499 c 0,16,17
 461 1514 461 1514 475.5 1526 c 128,-1,18
 490 1538 490 1538 505 1548 c 0,19,20
 521 1559 521 1559 534.5 1567 c 128,-1,21
 548 1575 548 1575 562 1581 c 0,22,23
 577 1588 577 1588 592.5 1593.5 c 128,-1,24
 608 1599 608 1599 623 1603 c 1,25,-1
 616 1469 l 1,26,27
 583 1457 583 1457 557 1441 c 0,28,29
 544 1432 544 1432 532 1420.5 c 128,-1,30
 520 1409 520 1409 506 1395 c 0,31,32
 480 1360 480 1360 464 1319 c 0,33,34
 456 1298 456 1298 449 1269 c 128,-1,35
 442 1240 442 1240 434 1202 c 1,36,37
 439 1205 439 1205 444 1207 c 128,-1,38
 449 1209 449 1209 457 1211 c 0,39,40
 464 1212 464 1212 471 1212.5 c 128,-1,41
 478 1213 478 1213 483 1213 c 0,42,43
 553 1213 553 1213 586 1154 c 0,44,45
 622 1096 622 1096 605 1010 c 0,46,47
 587 923 587 923 529 865 c 0,48,49
 469 807 469 807 402 807 c 0,0,1
927 807 m 0,50,51
 858 807 858 807 823 865 c 0,52,53
 787 923 787 923 805 1010 c 0,54,55
 818 1072 818 1072 828.5 1122.5 c 128,-1,56
 839 1173 839 1173 849 1214 c 0,57,58
 860 1254 860 1254 869.5 1287.5 c 128,-1,59
 879 1321 879 1321 889 1349 c 0,60,61
 900 1376 900 1376 910 1398 c 128,-1,62
 920 1420 920 1420 930 1437 c 0,63,64
 941 1454 941 1454 952 1469.5 c 128,-1,65
 963 1485 963 1485 974 1499 c 0,66,67
 1001 1529 1001 1529 1032 1548 c 0,68,69
 1047 1559 1047 1559 1061 1567 c 128,-1,70
 1075 1575 1075 1575 1088 1581 c 0,71,72
 1103 1588 1103 1588 1118.5 1593.5 c 128,-1,73
 1134 1599 1134 1599 1149 1603 c 1,74,-1
 1140 1469 l 1,75,76
 1124 1463 1124 1463 1109.5 1456 c 128,-1,77
 1095 1449 1095 1449 1082 1441 c 0,78,79
 1055 1423 1055 1423 1033 1395 c 0,80,81
 1003 1359 1003 1359 989 1319 c 0,82,83
 973 1278 973 1278 958 1202 c 1,84,85
 963 1205 963 1205 969.5 1207 c 128,-1,86
 976 1209 976 1209 983 1211 c 0,87,88
 991 1212 991 1212 997 1212.5 c 128,-1,89
 1003 1213 1003 1213 1008 1213 c 0,90,91
 1076 1213 1076 1213 1111 1154 c 0,92,93
 1146 1097 1146 1097 1129 1010 c 0,94,95
 1121 966 1121 966 1102 930 c 128,-1,96
 1083 894 1083 894 1054 865 c 0,97,98
 994 807 994 807 927 807 c 0,50,51
EndSplineSet
EndChar

StartChar: Euro
Encoding: 8364 8364 102
Width: 1814
GlyphClass: 2
Flags: W
LayerCount: 2
Fore
SplineSet
1605 486 m 1,0,1
 1596 443 1596 443 1584.5 405.5 c 128,-1,2
 1573 368 1573 368 1557 336 c 0,3,4
 1527 271 1527 271 1490 221 c 0,5,6
 1471 195 1471 195 1452.5 173.5 c 128,-1,7
 1434 152 1434 152 1414 135 c 0,8,9
 1373 97 1373 97 1340 74 c 0,10,11
 1288 36 1288 36 1232.5 12 c 128,-1,12
 1177 -12 1177 -12 1117 -22 c 256,13,14
 1057 -32 1057 -32 995 -37.5 c 128,-1,15
 933 -43 933 -43 869 -43 c 0,16,17
 724 -43 724 -43 615 22 c 0,18,19
 561 54 561 54 518.5 103 c 128,-1,20
 476 152 476 152 446 220 c 0,21,22
 424 269 424 269 408 324 c 128,-1,23
 392 379 392 379 383 441 c 0,24,25
 365 566 365 566 375 706 c 1,26,-1
 100 706 l 1,27,-1
 143 921 l 1,28,-1
 404 921 l 1,29,30
 415 974 415 974 427.5 1023.5 c 128,-1,31
 440 1073 440 1073 455 1121 c 1,32,-1
 183 1121 l 1,33,-1
 220 1304 l 1,34,-1
 522 1304 l 1,35,36
 565 1404 565 1404 618 1488.5 c 128,-1,37
 671 1573 671 1573 737 1644 c 0,38,39
 798 1712 798 1712 864 1762.5 c 128,-1,40
 930 1813 930 1813 1003 1847 c 0,41,42
 1077 1881 1077 1881 1149.5 1897 c 128,-1,43
 1222 1913 1222 1913 1295 1913 c 0,44,45
 1546 1913 1546 1913 1670 1765 c 1,46,47
 1755 1657 1755 1657 1764 1455 c 1,48,-1
 1509 1455 l 1,49,50
 1512 1494 1512 1494 1503 1526 c 0,51,52
 1494 1559 1494 1559 1481 1580 c 0,53,54
 1464 1609 1464 1609 1443.5 1630 c 128,-1,55
 1423 1651 1423 1651 1394 1663 c 0,56,57
 1366 1676 1366 1676 1331 1681.5 c 128,-1,58
 1296 1687 1296 1687 1251 1687 c 0,59,60
 1189 1687 1189 1687 1130 1664 c 0,61,62
 1101 1653 1101 1653 1071 1637 c 128,-1,63
 1041 1621 1041 1621 1012 1599 c 0,64,65
 953 1556 953 1556 903 1498 c 0,66,67
 877 1469 877 1469 854 1436.5 c 128,-1,68
 831 1404 831 1404 811 1367 c 0,69,70
 806 1359 806 1359 802 1351.5 c 128,-1,71
 798 1344 798 1344 794 1336 c 0,72,73
 789 1328 789 1328 785.5 1320 c 128,-1,74
 782 1312 782 1312 778 1304 c 1,75,-1
 1296 1304 l 1,76,-1
 1259 1121 l 1,77,-1
 703 1121 l 1,78,79
 695 1095 695 1095 688 1063 c 128,-1,80
 681 1031 681 1031 673 994 c 0,81,82
 671 985 671 985 670 976 c 128,-1,83
 669 967 669 967 667 957 c 0,84,85
 665 949 665 949 664 939.5 c 128,-1,86
 663 930 663 930 661 921 c 1,87,-1
 1220 921 l 1,88,-1
 1177 706 l 1,89,-1
 653 706 l 1,90,91
 654 679 654 679 656 655 c 128,-1,92
 658 631 658 631 663 611 c 0,93,94
 669 568 669 568 675 543 c 0,95,96
 677 532 677 532 680.5 516 c 128,-1,97
 684 500 684 500 689 480 c 0,98,99
 698 438 698 438 725 399 c 0,100,101
 751 360 751 360 806 328 c 0,102,103
 863 297 863 297 955 297 c 0,104,105
 975 297 975 297 994.5 298 c 128,-1,106
 1014 299 1014 299 1032 301 c 0,107,108
 1069 305 1069 305 1103 313 c 0,109,110
 1119 316 1119 316 1133.5 320 c 128,-1,111
 1148 324 1148 324 1161 329 c 0,112,113
 1188 339 1188 339 1200 349 c 0,114,115
 1230 371 1230 371 1253 407 c 0,116,117
 1265 424 1265 424 1273.5 444 c 128,-1,118
 1282 464 1282 464 1288 486 c 1,119,-1
 1605 486 l 1,0,1
EndSplineSet
EndChar

StartChar: ampersand
Encoding: 38 38 103
Width: 1465
GlyphClass: 2
Flags: W
LayerCount: 2
Fore
SplineSet
538 1335 m 0,0,1
 531 1380 531 1380 534 1429 c 0,2,3
 537 1475 537 1475 546 1520 c 0,4,5
 556 1566 556 1566 568 1604.5 c 128,-1,6
 580 1643 580 1643 594 1672 c 0,7,8
 610 1701 610 1701 633.5 1731 c 128,-1,9
 657 1761 657 1761 689 1792 c 0,10,11
 813 1913 813 1913 980 1913 c 0,12,13
 1063 1913 1063 1913 1118 1887 c 0,14,15
 1176 1860 1176 1860 1207 1801 c 0,16,17
 1219 1775 1219 1775 1228 1749 c 128,-1,18
 1237 1723 1237 1723 1241 1696 c 0,19,20
 1250 1640 1250 1640 1234 1565 c 0,21,22
 1225 1519 1225 1519 1213.5 1478 c 128,-1,23
 1202 1437 1202 1437 1187 1402 c 0,24,25
 1173 1367 1173 1367 1150 1332 c 128,-1,26
 1127 1297 1127 1297 1097 1262 c 0,27,28
 1080 1241 1080 1241 1056.5 1217.5 c 128,-1,29
 1033 1194 1033 1194 1004 1166 c 0,30,31
 946 1109 946 1109 874 1057 c 1,32,-1
 1027 679 l 1,33,34
 1038 696 1038 696 1045.5 708 c 128,-1,35
 1053 720 1053 720 1058 731 c 0,36,37
 1063 740 1063 740 1069 752.5 c 128,-1,38
 1075 765 1075 765 1082 780 c 0,39,40
 1088 790 1088 790 1101 824 c 0,41,42
 1114 854 1114 854 1125 903 c 1,43,-1
 1315 903 l 1,44,45
 1307 880 1307 880 1301 859 c 128,-1,46
 1295 838 1295 838 1289 820 c 256,47,48
 1283 802 1283 802 1276.5 784.5 c 128,-1,49
 1270 767 1270 767 1264 751 c 0,50,51
 1257 734 1257 734 1250 717.5 c 128,-1,52
 1243 701 1243 701 1234 684 c 0,53,54
 1226 667 1226 667 1217.5 648 c 128,-1,55
 1209 629 1209 629 1198 608 c 0,56,57
 1189 592 1189 592 1182 579 c 128,-1,58
 1175 566 1175 566 1168 553 c 0,59,60
 1157 533 1157 533 1144 513 c 0,61,62
 1138 504 1138 504 1132 496.5 c 128,-1,63
 1126 489 1126 489 1121 483 c 1,64,-1
 1327 0 l 1,65,-1
 1034 0 l 1,66,-1
 950 231 l 1,67,68
 924 195 924 195 899.5 166.5 c 128,-1,69
 875 138 875 138 852 115 c 0,70,71
 827 93 827 93 804.5 75 c 128,-1,72
 782 57 782 57 762 42 c 0,73,74
 745 30 745 30 728.5 19.5 c 128,-1,75
 712 9 712 9 696 0 c 0,76,77
 680 -8 680 -8 664.5 -14.5 c 128,-1,78
 649 -21 649 -21 632 -26 c 0,79,80
 601 -35 601 -35 567 -40 c 0,81,82
 550 -42 550 -42 531 -43 c 128,-1,83
 512 -44 512 -44 491 -44 c 0,84,85
 255 -44 255 -44 178 116 c 0,86,87
 140 197 140 197 130.5 286.5 c 128,-1,88
 121 376 121 376 142 479 c 0,89,90
 163 589 163 589 214 692 c 0,91,92
 238 743 238 743 266.5 787.5 c 128,-1,93
 295 832 295 832 327 872 c 0,94,95
 366 924 366 924 434 991 c 0,96,97
 501 1057 501 1057 603 1122 c 1,98,99
 586 1158 586 1158 574.5 1188 c 128,-1,100
 563 1218 563 1218 557 1241 c 256,101,102
 551 1264 551 1264 546 1288 c 128,-1,103
 541 1312 541 1312 538 1335 c 0,0,1
755 358 m 0,104,105
 770 368 770 368 787 384.5 c 128,-1,106
 804 401 804 401 820 418.5 c 128,-1,107
 836 436 836 436 848.5 450.5 c 128,-1,108
 861 465 861 465 866 472 c 1,109,-1
 682 956 l 1,110,111
 637 926 637 926 607 905 c 0,112,113
 592 894 592 894 579 884.5 c 128,-1,114
 566 875 566 875 555 867 c 0,115,116
 544 858 544 858 534 850.5 c 128,-1,117
 524 843 524 843 516 835 c 0,118,119
 507 828 507 828 499.5 820.5 c 128,-1,120
 492 813 492 813 485 805 c 0,121,122
 460 777 460 777 444 755 c 0,123,124
 436 744 436 744 428 732 c 128,-1,125
 420 720 420 720 415 709 c 0,126,127
 409 698 409 698 403.5 685 c 128,-1,128
 398 672 398 672 393 658 c 256,129,130
 388 644 388 644 382.5 628.5 c 128,-1,131
 377 613 377 613 372 595 c 0,132,133
 352 525 352 525 350 482 c 0,134,135
 348 438 348 438 362 408 c 0,136,137
 374 375 374 375 397 355 c 0,138,139
 408 344 408 344 420 335.5 c 128,-1,140
 432 327 432 327 446 320 c 0,141,142
 459 313 459 313 473.5 308.5 c 128,-1,143
 488 304 488 304 502 300 c 0,144,145
 532 294 532 294 557 294 c 0,146,147
 610 294 610 294 661 311 c 0,148,149
 685 319 685 319 708.5 330 c 128,-1,150
 732 341 732 341 755 358 c 0,104,105
964 1356 m 0,151,152
 987 1376 987 1376 1003.5 1397.5 c 128,-1,153
 1020 1419 1020 1419 1033 1444 c 0,154,155
 1057 1494 1057 1494 1069 1547 c 0,156,157
 1073 1567 1073 1567 1074 1585.5 c 128,-1,158
 1075 1604 1075 1604 1073 1620 c 0,159,160
 1069 1653 1069 1653 1051 1684 c 0,161,162
 1034 1716 1034 1716 1007 1724 c 0,163,164
 980 1733 980 1733 943 1733 c 0,165,166
 885 1733 885 1733 841 1715 c 0,167,168
 819 1705 819 1705 800 1689 c 128,-1,169
 781 1673 781 1673 764 1649 c 0,170,171
 756 1637 756 1637 749.5 1624.5 c 128,-1,172
 743 1612 743 1612 738 1601 c 256,173,174
 733 1590 733 1590 729 1576.5 c 128,-1,175
 725 1563 725 1563 721 1549 c 0,176,177
 712 1507 712 1507 715 1471 c 0,178,179
 716 1435 716 1435 727 1397 c 0,180,181
 732 1378 732 1378 737.5 1360.5 c 128,-1,182
 743 1343 743 1343 749 1329 c 0,183,184
 754 1313 754 1313 759 1300 c 128,-1,185
 764 1287 764 1287 769 1276 c 0,186,187
 775 1263 775 1263 779.5 1252.5 c 128,-1,188
 784 1242 784 1242 789 1231 c 1,189,190
 794 1235 794 1235 802.5 1240.5 c 128,-1,191
 811 1246 811 1246 822 1254 c 0,192,193
 833 1261 833 1261 845 1269 c 128,-1,194
 857 1277 857 1277 870 1286 c 0,195,196
 882 1295 882 1295 895 1303.5 c 128,-1,197
 908 1312 908 1312 921 1321 c 0,198,199
 935 1331 935 1331 945.5 1339.5 c 128,-1,200
 956 1348 956 1348 964 1356 c 0,151,152
EndSplineSet
EndChar

StartChar: at
Encoding: 64 64 104
Width: 2445
GlyphClass: 2
Flags: W
LayerCount: 2
Fore
SplineSet
427 285 m 0,0,1
 362 419 362 419 345 567 c 256,2,3
 328 715 328 715 364 888 c 0,4,5
 384 993 384 993 419 1088.5 c 128,-1,6
 454 1184 454 1184 502 1272 c 256,7,8
 550 1360 550 1360 609 1439.5 c 128,-1,9
 668 1519 668 1519 740 1593 c 0,10,11
 1054 1914 1054 1914 1469 1914 c 0,12,13
 1514 1914 1514 1914 1556.5 1911.5 c 128,-1,14
 1599 1909 1599 1909 1641 1904 c 0,15,16
 1682 1899 1682 1899 1719.5 1890.5 c 128,-1,17
 1757 1882 1757 1882 1792 1869 c 0,18,19
 1827 1857 1827 1857 1856 1839 c 128,-1,20
 1885 1821 1885 1821 1912 1801 c 0,21,22
 1939 1779 1939 1779 1962.5 1753.5 c 128,-1,23
 1986 1728 1986 1728 2005 1697 c 256,24,25
 2024 1666 2024 1666 2035 1636.5 c 128,-1,26
 2046 1607 2046 1607 2057 1578 c 0,27,28
 2077 1518 2077 1518 2081 1455 c 0,29,30
 2084 1424 2084 1424 2083.5 1390 c 128,-1,31
 2083 1356 2083 1356 2080 1321 c 0,32,33
 2077 1285 2077 1285 2071.5 1246 c 128,-1,34
 2066 1207 2066 1207 2058 1164 c 0,35,36
 2028 1017 2028 1017 1977 914 c 0,37,38
 1926 809 1926 809 1841 706 c 0,39,40
 1754 596 1754 596 1648 538 c 0,41,42
 1544 480 1544 480 1458 480 c 0,43,44
 1406 480 1406 480 1371 496 c 0,45,46
 1337 512 1337 512 1326 557 c 0,47,48
 1320 587 1320 587 1323 620 c 0,49,50
 1325 637 1325 637 1327.5 653 c 128,-1,51
 1330 669 1330 669 1335 683 c 0,52,53
 1341 714 1341 714 1348 734 c 0,54,55
 1351 745 1351 745 1353 751 c 128,-1,56
 1355 757 1355 757 1356 759 c 1,57,58
 1334 721 1334 721 1316 690.5 c 128,-1,59
 1298 660 1298 660 1281 635 c 0,60,61
 1264 611 1264 611 1244.5 589.5 c 128,-1,62
 1225 568 1225 568 1201 549 c 0,63,64
 1156 513 1156 513 1109 497 c 0,65,66
 1086 488 1086 488 1058.5 484 c 128,-1,67
 1031 480 1031 480 999 480 c 0,68,69
 938 480 938 480 884 513 c 0,70,71
 832 546 832 546 804 605 c 0,72,73
 776 660 776 660 772 720 c 0,74,75
 770 750 770 750 775 791 c 128,-1,76
 780 832 780 832 790 884 c 0,77,78
 817 1012 817 1012 875 1127 c 0,79,80
 931 1240 931 1240 1018 1338 c 0,81,82
 1106 1436 1106 1436 1188 1484 c 0,83,84
 1270 1531 1270 1531 1347 1531 c 0,85,86
 1452 1531 1452 1531 1503 1455 c 0,87,88
 1555 1381 1555 1381 1539 1277 c 1,89,-1
 1645 1488 l 1,90,-1
 1775 1488 l 1,91,92
 1755 1451 1755 1451 1736 1414.5 c 128,-1,93
 1717 1378 1717 1378 1698 1342 c 0,94,95
 1682 1311 1682 1311 1665.5 1278 c 128,-1,96
 1649 1245 1649 1245 1632 1209 c 0,97,98
 1615 1172 1615 1172 1600.5 1139 c 128,-1,99
 1586 1106 1586 1106 1573 1076 c 0,100,101
 1560 1045 1560 1045 1547.5 1014.5 c 128,-1,102
 1535 984 1535 984 1524 953 c 0,103,104
 1513 921 1513 921 1503.5 892 c 128,-1,105
 1494 863 1494 863 1487 837 c 0,106,107
 1473 782 1473 782 1470 748 c 0,108,109
 1468 729 1468 729 1471 718.5 c 128,-1,110
 1474 708 1474 708 1480 703 c 0,111,112
 1485 697 1485 697 1493 693.5 c 128,-1,113
 1501 690 1501 690 1510 687 c 0,114,115
 1524 685 1524 685 1537 686 c 0,116,117
 1594 694 1594 694 1638 720 c 0,118,119
 1660 735 1660 735 1686 758 c 128,-1,120
 1712 781 1712 781 1741 813 c 0,121,122
 1797 875 1797 875 1836 961 c 0,123,124
 1856 1005 1856 1005 1873 1057 c 128,-1,125
 1890 1109 1890 1109 1901 1170 c 0,126,127
 1916 1243 1916 1243 1922 1301 c 0,128,129
 1925 1329 1925 1329 1925.5 1355.5 c 128,-1,130
 1926 1382 1926 1382 1924 1406 c 0,131,132
 1922 1431 1922 1431 1920 1455.5 c 128,-1,133
 1918 1480 1918 1480 1912 1503 c 0,134,135
 1905 1529 1905 1529 1894.5 1550.5 c 128,-1,136
 1884 1572 1884 1572 1867 1598 c 0,137,138
 1838 1644 1838 1644 1798 1678 c 128,-1,139
 1758 1712 1758 1712 1704 1730 c 0,140,141
 1598 1764 1598 1764 1455 1764 c 0,142,143
 1359 1764 1359 1764 1273 1744 c 128,-1,144
 1187 1724 1187 1724 1109.5 1687 c 128,-1,145
 1032 1650 1032 1650 961 1597.5 c 128,-1,146
 890 1545 890 1545 824 1480 c 0,147,148
 765 1422 765 1422 719 1354.5 c 128,-1,149
 673 1287 673 1287 644 1212 c 0,150,151
 615 1136 615 1136 591.5 1054.5 c 128,-1,152
 568 973 568 973 551 882 c 0,153,154
 538 798 538 798 536 735 c 0,155,156
 536 704 536 704 538.5 676 c 128,-1,157
 541 648 541 648 546 623 c 0,158,159
 555 572 555 572 575 534 c 0,160,161
 584 514 584 514 594.5 495 c 128,-1,162
 605 476 605 476 616 457 c 0,163,164
 691 332 691 332 805 275 c 0,165,166
 920 217 920 217 1101 217 c 0,167,168
 1143 217 1143 217 1183 219 c 128,-1,169
 1223 221 1223 221 1260 224 c 0,170,171
 1298 227 1298 227 1336 236.5 c 128,-1,172
 1374 246 1374 246 1413 263 c 0,173,174
 1494 298 1494 298 1570 340 c 0,175,176
 1648 385 1648 385 1719 439 c 1,177,-1
 1752 189 l 1,178,179
 1699 137 1699 137 1630 99 c 0,180,181
 1596 80 1596 80 1555 59.5 c 128,-1,182
 1514 39 1514 39 1464 16 c 0,183,184
 1364 -29 1364 -29 1250 -35 c 0,185,186
 1192 -40 1192 -40 1136.5 -41.5 c 128,-1,187
 1081 -43 1081 -43 1025 -43 c 0,188,189
 813 -43 813 -43 661 38 c 0,190,191
 509 120 509 120 427 285 c 0,0,1
1461 1336 m 0,192,193
 1453 1353 1453 1353 1443 1367 c 128,-1,194
 1433 1381 1433 1381 1419 1392 c 256,195,196
 1405 1403 1405 1403 1388.5 1409 c 128,-1,197
 1372 1415 1372 1415 1353 1415 c 0,198,199
 1297 1415 1297 1415 1231 1369 c 0,200,201
 1199 1346 1199 1346 1167.5 1314 c 128,-1,202
 1136 1282 1136 1282 1106 1238 c 0,203,204
 1076 1195 1076 1195 1055 1155 c 128,-1,205
 1034 1115 1034 1115 1020 1077 c 0,206,207
 1007 1039 1007 1039 995.5 999 c 128,-1,208
 984 959 984 959 976 916 c 0,209,210
 970 884 970 884 967 859.5 c 128,-1,211
 964 835 964 835 966 817 c 0,212,213
 967 799 967 799 971 781 c 128,-1,214
 975 763 975 763 983 746 c 0,215,216
 1017 680 1017 680 1079 680 c 0,217,218
 1146 680 1146 680 1211 720 c 0,219,220
 1273 760 1273 760 1332 861 c 0,221,222
 1360 912 1360 912 1383 956.5 c 128,-1,223
 1406 1001 1406 1001 1423 1039 c 0,224,225
 1458 1116 1458 1116 1473 1195 c 0,226,227
 1490 1278 1490 1278 1461 1336 c 0,192,193
EndSplineSet
EndChar

StartChar: dieresis
Encoding: 168 168 105
Width: 1448
GlyphClass: 2
Flags: W
LayerCount: 2
Fore
SplineSet
678 1638 m 0,0,1
 671 1603 671 1603 654.5 1572 c 128,-1,2
 638 1541 638 1541 613 1515 c 0,3,4
 560 1464 560 1464 504 1464 c 256,5,6
 448 1464 448 1464 416 1515 c 0,7,8
 385 1568 385 1568 400 1638 c 0,9,10
 415 1711 415 1711 465 1762 c 0,11,12
 515 1812 515 1812 574 1812 c 0,13,14
 603 1812 603 1812 625.5 1800 c 128,-1,15
 648 1788 648 1788 662 1762 c 0,16,17
 676 1735 676 1735 681 1704.5 c 128,-1,18
 686 1674 686 1674 678 1638 c 0,0,1
1081 1638 m 0,19,20
 1074 1603 1074 1603 1057.5 1572 c 128,-1,21
 1041 1541 1041 1541 1016 1515 c 0,22,23
 963 1464 963 1464 907 1464 c 256,24,25
 851 1464 851 1464 819 1515 c 0,26,27
 788 1568 788 1568 803 1638 c 0,28,29
 818 1711 818 1711 868 1762 c 0,30,31
 918 1812 918 1812 977 1812 c 0,32,33
 1006 1812 1006 1812 1028.5 1800 c 128,-1,34
 1051 1788 1051 1788 1065 1762 c 0,35,36
 1079 1735 1079 1735 1084 1704.5 c 128,-1,37
 1089 1674 1089 1674 1081 1638 c 0,19,20
EndSplineSet
EndChar

StartChar: quoteleft
Encoding: 8216 8216 106
Width: 866
GlyphClass: 2
Flags: W
LayerCount: 2
Fore
SplineSet
381 805 m 0,0,1
 312 805 312 805 277 863 c 0,2,3
 243 921 243 921 259 1008 c 0,4,5
 271 1070 271 1070 282.5 1120.5 c 128,-1,6
 294 1171 294 1171 304 1212 c 0,7,8
 314 1252 314 1252 324 1285.5 c 128,-1,9
 334 1319 334 1319 343 1347 c 0,10,11
 353 1374 353 1374 363 1396 c 128,-1,12
 373 1418 373 1418 383 1435 c 256,13,14
 393 1452 393 1452 404.5 1467.5 c 128,-1,15
 416 1483 416 1483 428 1497 c 0,16,17
 440 1512 440 1512 454.5 1524 c 128,-1,18
 469 1536 469 1536 484 1546 c 0,19,20
 500 1557 500 1557 513.5 1565 c 128,-1,21
 527 1573 527 1573 541 1579 c 0,22,23
 556 1586 556 1586 571.5 1591.5 c 128,-1,24
 587 1597 587 1597 602 1601 c 1,25,-1
 595 1467 l 1,26,27
 562 1455 562 1455 536 1439 c 0,28,29
 523 1430 523 1430 511 1418.5 c 128,-1,30
 499 1407 499 1407 485 1393 c 0,31,32
 459 1358 459 1358 443 1317 c 0,33,34
 435 1296 435 1296 428 1267 c 128,-1,35
 421 1238 421 1238 413 1200 c 1,36,37
 418 1203 418 1203 423 1205 c 128,-1,38
 428 1207 428 1207 436 1209 c 0,39,40
 443 1210 443 1210 450 1211 c 128,-1,41
 457 1212 457 1212 462 1212 c 0,42,43
 531 1212 531 1212 565 1152 c 0,44,45
 601 1094 601 1094 584 1008 c 0,46,47
 566 921 566 921 508 863 c 0,48,49
 448 805 448 805 381 805 c 0,0,1
EndSplineSet
EndChar

StartChar: quoteright
Encoding: 8217 8217 107
Width: 868
GlyphClass: 2
Flags: W
LayerCount: 2
Fore
SplineSet
451 1563 m 0,0,1
 520 1563 520 1563 555 1504 c 0,2,3
 591 1445 591 1445 573 1360 c 0,4,5
 561 1297 561 1297 549.5 1247 c 128,-1,6
 538 1197 538 1197 528 1155 c 0,7,8
 518 1114 518 1114 508.5 1080.5 c 128,-1,9
 499 1047 499 1047 488 1020 c 0,10,11
 469 966 469 966 448 931 c 0,12,13
 428 895 428 895 404 869 c 0,14,15
 390 854 390 854 375.5 842 c 128,-1,16
 361 830 361 830 347 819 c 0,17,18
 332 809 332 809 318 801.5 c 128,-1,19
 304 794 304 794 292 787 c 0,20,21
 261 773 261 773 230 767 c 1,22,-1
 236 898 l 1,23,24
 253 903 253 903 267.5 910.5 c 128,-1,25
 282 918 282 918 296 927 c 0,26,27
 308 936 308 936 321 948 c 128,-1,28
 334 960 334 960 347 974 c 0,29,30
 360 992 360 992 370.5 1011 c 128,-1,31
 381 1030 381 1030 389 1051 c 0,32,33
 397 1071 397 1071 404.5 1100 c 128,-1,34
 412 1129 412 1129 420 1167 c 1,35,36
 415 1163 415 1163 409.5 1161.5 c 128,-1,37
 404 1160 404 1160 396 1158 c 0,38,39
 389 1156 389 1156 382.5 1156 c 128,-1,40
 376 1156 376 1156 369 1156 c 0,41,42
 302 1156 302 1156 266 1215 c 0,43,44
 232 1277 232 1277 249 1360 c 0,45,46
 266 1447 266 1447 324 1504 c 0,47,48
 383 1563 383 1563 451 1563 c 0,0,1
EndSplineSet
EndChar

StartChar: icircumflex
Encoding: 238 238 110
Width: 973
GlyphClass: 2
Flags: W
LayerCount: 2
Fore
SplineSet
831 1565 m 1,0,-1
 698 1432 l 1,1,-1
 581 1631 l 1,2,-1
 386 1432 l 1,3,-1
 306 1565 l 1,4,-1
 639 1914 l 1,5,-1
 831 1565 l 1,0,-1
608 1213 m 1,6,-1
 418 0 l 1,7,-1
 204 0 l 1,8,-1
 437 1213 l 1,9,-1
 608 1213 l 1,6,-1
EndSplineSet
EndChar

StartChar: percent
Encoding: 37 37 112
Width: 1925
GlyphClass: 2
Flags: W
LayerCount: 2
Fore
SplineSet
820 1583 m 0,0,1
 779 1608 779 1608 726 1608 c 256,2,3
 673 1608 673 1608 622 1583 c 0,4,5
 569 1557 569 1557 529 1515 c 0,6,7
 507 1493 507 1493 489 1468.5 c 128,-1,8
 471 1444 471 1444 454 1415 c 0,9,10
 423 1356 423 1356 410 1292 c 0,11,12
 398 1226 398 1226 405 1169 c 0,13,14
 414 1110 414 1110 439 1069 c 0,15,16
 464 1026 464 1026 506 1001 c 0,17,18
 550 976 550 976 600 976 c 256,19,20
 650 976 650 976 703 1001 c 0,21,22
 752 1024 752 1024 797 1069 c 0,23,24
 819 1090 819 1090 837 1115 c 128,-1,25
 855 1140 855 1140 871 1169 c 0,26,27
 903 1229 903 1229 915 1292 c 0,28,29
 929 1359 929 1359 920 1415 c 0,30,31
 912 1472 912 1472 886 1515 c 0,32,33
 861 1557 861 1557 820 1583 c 0,0,1
1496 1780 m 1,34,-1
 713 0 l 1,35,-1
 469 0 l 1,36,-1
 1253 1780 l 1,37,-1
 1496 1780 l 1,34,-1
727 1184 m 0,38,39
 705 1163 705 1163 681.5 1151.5 c 128,-1,40
 658 1140 658 1140 633 1140 c 0,41,42
 583 1140 583 1140 555 1184 c 0,43,44
 529 1230 529 1230 541 1292 c 0,45,46
 555 1357 555 1357 598 1400 c 0,47,48
 642 1444 642 1444 694 1444 c 0,49,50
 744 1444 744 1444 770 1400 c 0,51,52
 797 1356 797 1356 784 1292 c 0,53,54
 772 1231 772 1231 727 1184 c 0,38,39
1478 872 m 0,55,56
 1436 896 1436 896 1384 896 c 0,57,58
 1333 896 1333 896 1280 872 c 0,59,60
 1231 848 1231 848 1187 804 c 0,61,62
 1166 783 1166 783 1147 758 c 128,-1,63
 1128 733 1128 733 1112 704 c 0,64,65
 1097 675 1097 675 1086.5 644.5 c 128,-1,66
 1076 614 1076 614 1068 581 c 0,67,68
 1056 513 1056 513 1063 458 c 0,69,70
 1067 429 1067 429 1075.5 404 c 128,-1,71
 1084 379 1084 379 1097 357 c 0,72,73
 1123 315 1123 315 1164 288 c 0,74,75
 1206 263 1206 263 1257 263 c 0,76,77
 1309 263 1309 263 1361 288 c 0,78,79
 1387 302 1387 302 1410.5 318.5 c 128,-1,80
 1434 335 1434 335 1456 357 c 256,81,82
 1478 379 1478 379 1496.5 404 c 128,-1,83
 1515 429 1515 429 1530 458 c 0,84,85
 1547 487 1547 487 1557.5 517.5 c 128,-1,86
 1568 548 1568 548 1575 581 c 256,87,88
 1582 614 1582 614 1583 644.5 c 128,-1,89
 1584 675 1584 675 1579 704 c 0,90,91
 1571 762 1571 762 1546 804 c 0,92,93
 1518 849 1518 849 1478 872 c 0,55,56
1386 474 m 0,94,95
 1342 430 1342 430 1291 430 c 256,96,97
 1240 430 1240 430 1214 474 c 0,98,99
 1187 517 1187 517 1200 581 c 0,100,101
 1214 646 1214 646 1257 689 c 0,102,103
 1280 710 1280 710 1303 721.5 c 128,-1,104
 1326 733 1326 733 1351 733 c 0,105,106
 1401 733 1401 733 1429 689 c 0,107,108
 1456 644 1456 644 1444 581 c 0,109,110
 1437 549 1437 549 1423 522 c 128,-1,111
 1409 495 1409 495 1386 474 c 0,94,95
EndSplineSet
EndChar

StartChar: divide
Encoding: 247 247 113
Width: 1350
GlyphClass: 2
Flags: W
LayerCount: 2
Fore
SplineSet
1118 510 m 1,0,-1
 208 510 l 1,1,-1
 242 689 l 1,2,-1
 1153 689 l 1,3,-1
 1118 510 l 1,0,-1
755 160 m 0,4,5
 750 140 750 140 743.5 120.5 c 128,-1,6
 737 101 737 101 727 82 c 0,7,8
 716 64 716 64 704.5 48 c 128,-1,9
 693 32 693 32 679 18 c 0,10,11
 652 -9 652 -9 618 -26 c 256,12,13
 584 -43 584 -43 552 -43 c 0,14,15
 519 -43 519 -43 491 -26 c 0,16,17
 466 -9 466 -9 449 18 c 0,18,19
 431 47 431 47 427 82 c 0,20,21
 421 120 421 120 430 160 c 0,22,23
 447 247 447 247 506 306 c 0,24,25
 536 335 536 335 567.5 350.5 c 128,-1,26
 599 366 599 366 634 366 c 0,27,28
 667 366 667 366 693 349 c 0,29,30
 720 332 720 332 736 305 c 0,31,32
 744 291 744 291 749.5 275 c 128,-1,33
 755 259 755 259 758 240 c 0,34,35
 764 203 764 203 755 160 c 0,4,5
934 1051 m 0,36,37
 925 1009 925 1009 904 971 c 0,38,39
 885 936 885 936 856 907 c 256,40,41
 827 878 827 878 796 864 c 0,42,43
 764 848 764 848 731 848 c 0,44,45
 662 848 662 848 626 907 c 0,46,47
 592 966 592 966 608 1051 c 0,48,49
 625 1137 625 1137 684 1195 c 0,50,51
 744 1253 744 1253 812 1253 c 0,52,53
 844 1253 844 1253 871 1238 c 256,54,55
 898 1223 898 1223 914 1195 c 0,56,57
 922 1181 922 1181 928 1164.5 c 128,-1,58
 934 1148 934 1148 937 1131 c 0,59,60
 941 1094 941 1094 934 1051 c 0,36,37
EndSplineSet
EndChar

StartChar: multiply
Encoding: 215 215 114
Width: 1350
GlyphClass: 2
Flags: W
LayerCount: 2
Fore
SplineSet
1049 233 m 1,0,-1
 818 0 l 1,1,-1
 619 335 l 1,2,-1
 283 0 l 1,3,-1
 145 233 l 1,4,-1
 480 568 l 1,5,-1
 278 900 l 1,6,-1
 511 1133 l 1,7,-1
 711 800 l 1,8,-1
 1044 1133 l 1,9,-1
 1182 900 l 1,10,-1
 851 568 l 1,11,-1
 1049 233 l 1,0,-1
EndSplineSet
EndChar

StartChar: equal
Encoding: 61 61 115
Width: 1350
GlyphClass: 2
Flags: W
LayerCount: 2
Fore
SplineSet
1037 220 m 1,0,-1
 129 220 l 1,1,-1
 188 514 l 1,2,-1
 1095 514 l 1,3,-1
 1037 220 l 1,0,-1
1140 737 m 1,4,-1
 232 737 l 1,5,-1
 291 1030 l 1,6,-1
 1198 1030 l 1,7,-1
 1140 737 l 1,4,-1
EndSplineSet
EndChar

StartChar: plus
Encoding: 43 43 116
Width: 1350
GlyphClass: 2
Flags: W
LayerCount: 2
Fore
SplineSet
1164 714 m 1,0,-1
 1106 423 l 1,1,-1
 770 423 l 1,2,-1
 686 0 l 1,3,-1
 452 0 l 1,4,-1
 536 423 l 1,5,-1
 199 423 l 1,6,-1
 256 714 l 1,7,-1
 594 714 l 1,8,-1
 679 1136 l 1,9,-1
 914 1136 l 1,10,-1
 829 714 l 1,11,-1
 1164 714 l 1,0,-1
EndSplineSet
EndChar

StartChar: asterisk
Encoding: 42 42 117
Width: 1419
GlyphClass: 2
Flags: W
LayerCount: 2
Fore
SplineSet
945 1291 m 1,0,-1
 916 1148 l 1,1,-1
 809 1148 l 1,2,-1
 866 1056 l 1,3,-1
 763 953 l 1,4,-1
 708 1047 l 1,5,-1
 682 914 l 1,6,-1
 567 914 l 1,7,-1
 594 1047 l 1,8,-1
 501 953 l 1,9,-1
 440 1056 l 1,10,-1
 533 1148 l 1,11,-1
 428 1148 l 1,12,-1
 456 1291 l 1,13,-1
 562 1291 l 1,14,-1
 505 1383 l 1,15,-1
 608 1487 l 1,16,-1
 662 1392 l 1,17,-1
 689 1523 l 1,18,-1
 804 1523 l 1,19,-1
 777 1392 l 1,20,-1
 870 1487 l 1,21,-1
 932 1383 l 1,22,-1
 837 1291 l 1,23,-1
 945 1291 l 1,0,-1
EndSplineSet
EndChar

StartChar: degree
Encoding: 176 176 118
Width: 905
GlyphClass: 2
Flags: W
LayerCount: 2
Fore
SplineSet
547 1286 m 0,0,1
 591 1286 591 1286 621 1266 c 0,2,3
 654 1246 654 1246 673 1213 c 0,4,5
 694 1180 694 1180 700 1135 c 0,6,7
 706 1089 706 1089 696 1038 c 0,8,9
 691 1012 691 1012 682.5 988 c 128,-1,10
 674 964 674 964 662 942 c 0,11,12
 638 897 638 897 604 863 c 0,13,14
 586 846 586 846 568 832.5 c 128,-1,15
 550 819 550 819 530 810 c 0,16,17
 488 790 488 790 449 790 c 0,18,19
 409 790 409 790 375 810 c 0,20,21
 345 827 345 827 323 863 c 0,22,23
 303 897 303 897 297 942 c 0,24,25
 292 964 292 964 293.5 988 c 128,-1,26
 295 1012 295 1012 300 1038 c 0,27,28
 311 1091 311 1091 334 1135 c 0,29,30
 347 1158 347 1158 361.5 1177 c 128,-1,31
 376 1196 376 1196 393 1213 c 256,32,33
 410 1230 410 1230 428.5 1243 c 128,-1,34
 447 1256 447 1256 467 1266 c 0,35,36
 504 1286 504 1286 547 1286 c 0,0,1
475 919 m 0,37,38
 514 919 514 919 549 954 c 0,39,40
 583 991 583 991 593 1038 c 0,41,42
 603 1086 603 1086 582 1122 c 0,43,44
 562 1157 562 1157 522 1157 c 256,45,46
 482 1157 482 1157 447 1122 c 0,47,48
 430 1104 430 1104 419 1083.5 c 128,-1,49
 408 1063 408 1063 403 1038 c 0,50,51
 394 988 394 988 414 954 c 0,52,53
 435 919 435 919 475 919 c 0,37,38
EndSplineSet
EndChar

StartChar: numbersign
Encoding: 35 35 119
Width: 1884
GlyphClass: 2
Flags: W
LayerCount: 2
Fore
SplineSet
1626 1078 m 1,0,-1
 1372 1078 l 1,1,-1
 1228 691 l 1,2,-1
 1548 691 l 1,3,-1
 1507 486 l 1,4,-1
 1152 486 l 1,5,-1
 973 0 l 1,6,-1
 792 0 l 1,7,-1
 970 486 l 1,8,-1
 661 486 l 1,9,-1
 481 0 l 1,10,-1
 300 0 l 1,11,-1
 478 486 l 1,12,-1
 252 486 l 1,13,-1
 293 691 l 1,14,-1
 555 691 l 1,15,-1
 698 1078 l 1,16,-1
 370 1078 l 1,17,-1
 412 1284 l 1,18,-1
 776 1284 l 1,19,-1
 941 1734 l 1,20,-1
 1123 1734 l 1,21,-1
 957 1284 l 1,22,-1
 1266 1284 l 1,23,-1
 1434 1734 l 1,24,-1
 1615 1734 l 1,25,-1
 1448 1284 l 1,26,-1
 1668 1284 l 1,27,-1
 1626 1078 l 1,0,-1
1047 691 m 1,28,-1
 1190 1078 l 1,29,-1
 880 1078 l 1,30,-1
 737 691 l 1,31,-1
 1047 691 l 1,28,-1
EndSplineSet
EndChar

StartChar: less
Encoding: 60 60 120
Width: 942
GlyphClass: 2
Flags: W
LayerCount: 2
Fore
SplineSet
181 635 m 1,0,-1
 634 1214 l 1,1,-1
 806 1214 l 1,2,-1
 366 635 l 1,3,-1
 565 0 l 1,4,-1
 351 0 l 1,5,-1
 181 635 l 1,0,-1
EndSplineSet
EndChar

StartChar: greater
Encoding: 62 62 121
Width: 948
GlyphClass: 2
Flags: W
LayerCount: 2
Fore
SplineSet
764 635 m 1,0,-1
 341 0 l 1,1,-1
 128 0 l 1,2,-1
 579 635 l 1,3,-1
 371 1214 l 1,4,-1
 543 1214 l 1,5,-1
 764 635 l 1,0,-1
EndSplineSet
EndChar

StartChar: bracketleft
Encoding: 91 91 122
Width: 1182
GlyphClass: 2
Flags: W
LayerCount: 2
Fore
SplineSet
1033 1699 m 1,0,-1
 739 1699 l 1,1,-1
 333 -418 l 1,2,-1
 609 -418 l 1,3,-1
 556 -686 l 1,4,-1
 67 -686 l 1,5,-1
 608 1914 l 1,6,-1
 1076 1914 l 1,7,-1
 1033 1699 l 1,0,-1
EndSplineSet
EndChar

StartChar: bracketright
Encoding: 93 93 123
Width: 1182
GlyphClass: 2
Flags: W
LayerCount: 2
Fore
SplineSet
572 1699 m 1,0,-1
 616 1914 l 1,1,-1
 1083 1914 l 1,2,-1
 584 -686 l 1,3,-1
 95 -686 l 1,4,-1
 149 -418 l 1,5,-1
 427 -418 l 1,6,-1
 867 1699 l 1,7,-1
 572 1699 l 1,0,-1
EndSplineSet
EndChar

StartChar: circumflex
Encoding: 710 710 124
Width: 1151
GlyphClass: 2
Flags: W
LayerCount: 2
Fore
SplineSet
832 1565 m 1,0,-1
 699 1432 l 1,1,-1
 582 1631 l 1,2,-1
 387 1432 l 1,3,-1
 307 1565 l 1,4,-1
 640 1914 l 1,5,-1
 832 1565 l 1,0,-1
EndSplineSet
EndChar

StartChar: bullet
Encoding: 8226 8226 125
Width: 1436
GlyphClass: 2
Flags: W
LayerCount: 2
Fore
SplineSet
948 631 m 0,0,1
 933 555 933 555 898 491 c 0,2,3
 881 459 881 459 860 430 c 128,-1,4
 839 401 839 401 814 376 c 0,5,6
 766 328 766 328 707 299 c 0,7,8
 649 270 649 270 588 270 c 256,9,10
 527 270 527 270 482 299 c 0,11,12
 434 328 434 328 406 376 c 0,13,14
 377 424 377 424 366 491 c 0,15,16
 361 524 361 524 362 558.5 c 128,-1,17
 363 593 363 593 371 631 c 0,18,19
 386 704 386 704 422 771 c 0,20,21
 441 804 441 804 461.5 832.5 c 128,-1,22
 482 861 482 861 507 885 c 0,23,24
 557 935 557 935 615 963 c 0,25,26
 672 991 672 991 732 991 c 0,27,28
 793 991 793 991 839 963 c 256,29,30
 885 935 885 935 916 885 c 0,31,32
 945 836 945 836 954 771 c 256,33,34
 963 706 963 706 948 631 c 0,0,1
EndSplineSet
EndChar

StartChar: braceleft
Encoding: 123 123 126
Width: 1264
GlyphClass: 2
Flags: W
LayerCount: 2
Fore
SplineSet
659 -686 m 1,0,1
 622 -686 622 -686 584 -671 c 0,2,3
 566 -663 566 -663 549 -652.5 c 128,-1,4
 532 -642 532 -642 517 -628 c 0,5,6
 501 -614 501 -614 488 -598.5 c 128,-1,7
 475 -583 475 -583 464 -564 c 0,8,9
 442 -529 442 -529 435 -487 c 0,10,11
 427 -452 427 -452 422 -421.5 c 128,-1,12
 417 -391 417 -391 413 -367 c 0,13,14
 409 -342 409 -342 407 -323 c 128,-1,15
 405 -304 405 -304 403 -291 c 0,16,17
 397 -248 397 -248 391 -189 c 0,18,19
 387 -160 387 -160 384.5 -127 c 128,-1,20
 382 -94 382 -94 381 -57 c 0,21,22
 379 -6 379 -6 379 45.5 c 128,-1,23
 379 97 379 97 380 150 c 0,24,25
 380 202 380 202 384 257 c 128,-1,26
 388 312 388 312 396 370 c 2,27,-1
 402 424 l 2,28,29
 404 439 404 439 402 459 c 128,-1,30
 400 479 400 479 391 499 c 0,31,32
 381 518 381 518 370 534.5 c 128,-1,33
 359 551 359 551 345 565 c 0,34,35
 314 601 314 601 272 628 c 1,36,37
 297 639 297 639 319.5 653.5 c 128,-1,38
 342 668 342 668 364 684 c 0,39,40
 401 714 401 714 436 750 c 0,41,42
 453 767 453 767 466 788 c 128,-1,43
 479 809 479 809 487 839 c 0,44,45
 504 905 504 905 524 965.5 c 128,-1,46
 544 1026 544 1026 565 1083 c 256,47,48
 586 1140 586 1140 609.5 1197.5 c 128,-1,49
 633 1255 633 1255 659 1314 c 0,50,51
 676 1353 676 1353 698 1399 c 128,-1,52
 720 1445 720 1445 749 1498 c 0,53,54
 778 1552 778 1552 811 1612 c 128,-1,55
 844 1672 844 1672 883 1740 c 0,56,57
 930 1817 930 1817 1002 1867 c 0,58,59
 1071 1914 1071 1914 1147 1914 c 2,60,-1
 1149 1914 l 1,61,62
 1096 1809 1096 1809 1053 1719.5 c 128,-1,63
 1010 1630 1010 1630 978 1552 c 0,64,65
 946 1476 946 1476 920.5 1413.5 c 128,-1,66
 895 1351 895 1351 875 1301 c 0,67,68
 852 1244 852 1244 832 1188.5 c 128,-1,69
 812 1133 812 1133 792 1076 c 0,70,71
 772 1020 772 1020 756.5 959 c 128,-1,72
 741 898 741 898 718 825 c 0,73,74
 705 785 705 785 671 748 c 0,75,76
 640 714 640 714 602 684 c 0,77,78
 580 669 580 669 557.5 655 c 128,-1,79
 535 641 535 641 511 628 c 1,80,81
 553 600 553 600 585 566 c 0,82,83
 599 551 599 551 610 534.5 c 128,-1,84
 621 518 621 518 630 499 c 0,85,86
 640 479 640 479 642 459 c 128,-1,87
 644 439 644 439 642 424 c 0,88,89
 624 282 624 282 618 145 c 0,90,91
 615 77 615 77 613 14.5 c 128,-1,92
 611 -48 611 -48 611 -106 c 0,93,94
 611 -157 611 -157 614 -218 c 128,-1,95
 617 -279 617 -279 624 -351 c 0,96,97
 631 -424 631 -424 639.5 -507.5 c 128,-1,98
 648 -591 648 -591 659 -686 c 1,0,1
EndSplineSet
EndChar

StartChar: braceright
Encoding: 125 125 127
Width: 1260
GlyphClass: 2
Flags: W
LayerCount: 2
Fore
SplineSet
123 -686 m 1,0,1
 172 -591 172 -591 214 -507.5 c 128,-1,2
 256 -424 256 -424 292 -351 c 0,3,4
 327 -279 327 -279 355.5 -218 c 128,-1,5
 384 -157 384 -157 405 -106 c 0,6,7
 429 -48 429 -48 452 14.5 c 128,-1,8
 475 77 475 77 499 145 c 0,9,10
 523 214 523 214 544 283 c 128,-1,11
 565 352 565 352 585 424 c 1,12,-1
 583 415 l 1,13,14
 592 457 592 457 626 499 c 0,15,16
 643 518 643 518 661 534.5 c 128,-1,17
 679 551 679 551 698 565 c 0,18,19
 721 583 721 583 745.5 598.5 c 128,-1,20
 770 614 770 614 798 628 c 1,21,22
 778 641 778 641 761.5 655 c 128,-1,23
 745 669 745 669 730 684 c 0,24,25
 717 698 717 698 706 713.5 c 128,-1,26
 695 729 695 729 684 748 c 0,27,28
 664 783 664 783 670 825 c 2,29,-1
 672 839 l 2,30,31
 680 902 680 902 686.5 961 c 128,-1,32
 693 1020 693 1020 697 1077 c 256,33,34
 701 1134 701 1134 702 1190 c 128,-1,35
 703 1246 703 1246 703 1301 c 0,36,37
 705 1400 705 1400 700 1552 c 0,38,39
 698 1630 698 1630 691.5 1719.5 c 128,-1,40
 685 1809 685 1809 674 1914 c 1,41,-1
 676 1914 l 2,42,43
 751 1914 751 1914 801 1867 c 0,44,45
 852 1817 852 1817 870 1740 c 1,46,47
 881 1672 881 1672 890.5 1612 c 128,-1,48
 900 1552 900 1552 908 1498 c 0,49,50
 916 1445 916 1445 919.5 1399 c 128,-1,51
 923 1353 923 1353 925 1314 c 0,52,53
 927 1255 927 1255 928 1197.5 c 128,-1,54
 929 1140 929 1140 927 1083 c 0,55,56
 924 969 924 969 906 839 c 1,57,-1
 906 841 l 1,58,-1
 906 839 l 2,59,60
 906 837 906 837 906 834.5 c 128,-1,61
 906 832 906 832 905 827 c 0,62,63
 902 806 902 806 906 786.5 c 128,-1,64
 910 767 910 767 920 750 c 0,65,66
 931 731 931 731 942.5 715 c 128,-1,67
 954 699 954 699 967 684 c 0,68,69
 981 668 981 668 999 653.5 c 128,-1,70
 1017 639 1017 639 1037 628 c 1,71,72
 1010 614 1010 614 985.5 598.5 c 128,-1,73
 961 583 961 583 938 565 c 0,74,75
 900 538 900 538 866 499 c 0,76,77
 831 459 831 459 823 415 c 1,78,-1
 824 424 l 1,79,80
 823 411 823 411 818 397 c 0,81,82
 816 390 816 390 814 383.5 c 128,-1,83
 812 377 812 377 810 370 c 0,84,85
 779 256 779 256 739 150 c 0,86,87
 697 45 697 45 655 -57 c 0,88,89
 638 -94 638 -94 623 -127 c 128,-1,90
 608 -160 608 -160 591 -189 c 0,91,92
 576 -218 576 -218 563 -243.5 c 128,-1,93
 550 -269 550 -269 539 -291 c 0,94,95
 532 -304 532 -304 521.5 -323 c 128,-1,96
 511 -342 511 -342 497 -367 c 0,97,98
 483 -391 483 -391 466 -421.5 c 128,-1,99
 449 -452 449 -452 428 -487 c 0,100,101
 403 -530 403 -530 368 -564 c 0,102,103
 350 -583 350 -583 331 -598.5 c 128,-1,104
 312 -614 312 -614 291 -628 c 0,105,106
 249 -655 249 -655 205 -671 c 0,107,108
 163 -686 163 -686 123 -686 c 1,0,1
EndSplineSet
EndChar

StartChar: bar
Encoding: 124 124 128
Width: 854
GlyphClass: 2
Flags: W
LayerCount: 2
Fore
SplineSet
119 -43 m 1,0,-1
 531 1914 l 1,1,-1
 703 1914 l 1,2,-1
 334 -43 l 1,3,-1
 119 -43 l 1,0,-1
EndSplineSet
EndChar

StartChar: endash
Encoding: 8211 8211 129
Width: 2382
GlyphClass: 2
Flags: W
LayerCount: 2
Fore
SplineSet
1730 515 m 1,0,-1
 163 515 l 1,1,-1
 242 748 l 1,2,-1
 1808 748 l 1,3,-1
 1730 514 l 1,4,-1
 1730 515 l 1,0,-1
EndSplineSet
EndChar

StartChar: germandbls
Encoding: 223 223 130
Width: 1551
GlyphClass: 3
Flags: W
LayerCount: 2
Fore
SplineSet
1131 1913 m 2,0,1
 1211 1913 1211 1913 1278 1881 c 0,2,3
 1346 1848 1346 1848 1398 1789 c 1,4,5
 1446 1725 1446 1725 1465 1649 c 0,6,7
 1483 1572 1483 1572 1467 1490 c 0,8,9
 1459 1452 1459 1452 1450.5 1419.5 c 128,-1,10
 1442 1387 1442 1387 1432 1358 c 0,11,12
 1421 1329 1421 1329 1408.5 1304 c 128,-1,13
 1396 1279 1396 1279 1382 1257 c 0,14,15
 1351 1212 1351 1212 1309 1178 c 0,16,17
 1267 1145 1267 1145 1207 1114 c 2,18,-1
 1138 1077 l 1,19,-1
 1195 1055 l 2,20,21
 1256 1029 1256 1029 1301 980 c 0,22,23
 1346 929 1346 929 1371 863 c 0,24,25
 1397 798 1397 798 1402 717 c 0,26,27
 1408 639 1408 639 1391 551 c 0,28,29
 1380 495 1380 495 1360.5 443 c 128,-1,30
 1341 391 1341 391 1313 341 c 0,31,32
 1255 240 1255 240 1181 166 c 0,33,34
 1143 128 1143 128 1102 97.5 c 128,-1,35
 1061 67 1061 67 1016 44 c 0,36,37
 972 21 972 21 928 10.5 c 128,-1,38
 884 0 884 0 840 0 c 2,39,-1
 672 0 l 1,40,-1
 716 242 l 1,41,-1
 867 242 l 2,42,43
 925 242 925 242 980 269 c 0,44,45
 1009 283 1009 283 1035 301.5 c 128,-1,46
 1061 320 1061 320 1085 344 c 0,47,48
 1131 390 1131 390 1168 456 c 0,49,50
 1185 488 1185 488 1197.5 522 c 128,-1,51
 1210 556 1210 556 1217 592 c 0,52,53
 1225 629 1225 629 1226 663 c 128,-1,54
 1227 697 1227 697 1222 729 c 0,55,56
 1213 792 1213 792 1184 840 c 0,57,58
 1157 886 1157 886 1109 915 c 0,59,60
 1066 942 1066 942 1007 942 c 2,61,-1
 844 942 l 1,62,-1
 885 1163 l 1,63,-1
 980 1163 l 2,64,65
 1028 1163 1028 1163 1079 1186 c 0,66,67
 1126 1208 1126 1208 1170 1248 c 0,68,69
 1190 1268 1190 1268 1207.5 1291.5 c 128,-1,70
 1225 1315 1225 1315 1240 1341 c 0,71,72
 1270 1390 1270 1390 1282 1450 c 0,73,74
 1306 1566 1306 1566 1252 1658 c 1,75,76
 1194 1746 1194 1746 1095 1746 c 2,77,-1
 896 1746 l 2,78,79
 852 1746 852 1746 802 1724 c 0,80,81
 754 1700 754 1700 715 1658 c 0,82,83
 677 1615 677 1615 652 1564.5 c 128,-1,84
 627 1514 627 1514 616 1454 c 2,85,-1
 349 0 l 1,86,-1
 100 0 l 1,87,-1
 426 1490 l 2,88,89
 443 1575 443 1575 492 1649 c 0,90,91
 539 1724 539 1724 616 1789 c 0,92,93
 689 1849 689 1849 769 1881 c 0,94,95
 811 1898 811 1898 851 1905.5 c 128,-1,96
 891 1913 891 1913 930 1913 c 2,97,-1
 1131 1913 l 2,0,1
EndSplineSet
EndChar

StartChar: Ccedilla
Encoding: 199 199 131
Width: 1546
GlyphClass: 2
Flags: W
LayerCount: 2
Fore
SplineSet
1331 501 m 1,0,1
 1323 459 1323 459 1310.5 422 c 128,-1,2
 1298 385 1298 385 1283 353 c 0,3,4
 1267 321 1267 321 1250.5 291.5 c 128,-1,5
 1234 262 1234 262 1214 236 c 0,6,7
 1196 210 1196 210 1177 188.5 c 128,-1,8
 1158 167 1158 167 1138 149 c 0,9,10
 1119 132 1119 132 1101.5 116.5 c 128,-1,11
 1084 101 1084 101 1067 89 c 0,12,13
 970 19 970 19 862 -2 c 0,14,15
 752 -25 752 -25 636 -26 c 1,16,-1
 620 -100 l 1,17,18
 668 -100 668 -100 703 -122 c 0,19,20
 723 -133 723 -133 737.5 -148 c 128,-1,21
 752 -163 752 -163 764 -183 c 0,22,23
 787 -220 787 -220 793 -273 c 0,24,25
 800 -325 800 -325 790 -382 c 0,26,27
 784 -412 784 -412 774 -439.5 c 128,-1,28
 764 -467 764 -467 749 -493 c 0,29,30
 735 -519 735 -519 718.5 -541 c 128,-1,31
 702 -563 702 -563 684 -582 c 0,32,33
 647 -620 647 -620 600 -642 c 0,34,35
 552 -666 552 -666 508 -666 c 2,36,-1
 361 -666 l 1,37,-1
 388 -532 l 1,38,-1
 534 -532 l 2,39,40
 559 -532 559 -532 582 -520.5 c 128,-1,41
 605 -509 605 -509 627 -488 c 0,42,43
 649 -465 649 -465 663.5 -439 c 128,-1,44
 678 -413 678 -413 684 -382 c 0,45,46
 696 -319 696 -319 669 -277 c 0,47,48
 644 -233 644 -233 594 -233 c 2,49,-1
 494 -233 l 1,50,-1
 535 -24 l 1,51,52
 414 -12 414 -12 319 52 c 0,53,54
 228 116 228 116 173 235 c 0,55,56
 112 369 112 369 100 545 c 0,57,58
 88 723 88 723 128 921 c 0,59,60
 176 1161 176 1161 259 1344 c 0,61,62
 301 1435 301 1435 352 1513.5 c 128,-1,63
 403 1592 403 1592 465 1661 c 0,64,65
 584 1795 584 1795 731 1863 c 0,66,67
 876 1931 876 1931 1022 1931 c 0,68,69
 1272 1931 1272 1931 1396 1780 c 0,70,71
 1417 1753 1417 1753 1434 1720.5 c 128,-1,72
 1451 1688 1451 1688 1463 1650 c 0,73,74
 1487 1574 1487 1574 1486 1470 c 1,75,-1
 1234 1470 l 1,76,77
 1236 1490 1236 1490 1234.5 1511 c 128,-1,78
 1233 1532 1233 1532 1229 1549 c 0,79,80
 1224 1567 1224 1567 1219.5 1578 c 128,-1,81
 1215 1589 1215 1589 1207 1602 c 0,82,83
 1191 1627 1191 1627 1169.5 1647 c 128,-1,84
 1148 1667 1148 1667 1120 1678 c 0,85,86
 1065 1702 1065 1702 978 1702 c 0,87,88
 920 1702 920 1702 857 1679 c 0,89,90
 796 1659 796 1659 737 1615 c 0,91,92
 708 1594 708 1594 681 1568.5 c 128,-1,93
 654 1543 654 1543 628 1513 c 256,94,95
 602 1483 602 1483 580 1450.5 c 128,-1,96
 558 1418 558 1418 538 1382 c 0,97,98
 525 1358 525 1358 514 1337.5 c 128,-1,99
 503 1317 503 1317 492 1297 c 0,100,101
 482 1279 482 1279 473 1259 c 128,-1,102
 464 1239 464 1239 456 1218 c 0,103,104
 448 1198 448 1198 441.5 1175.5 c 128,-1,105
 435 1153 435 1153 428 1128 c 256,106,107
 421 1103 421 1103 414 1074 c 128,-1,108
 407 1045 407 1045 400 1011 c 0,109,110
 387 939 387 939 382 871 c 0,111,112
 380 836 380 836 379.5 804 c 128,-1,113
 379 772 379 772 380 743 c 0,114,115
 381 713 381 713 383 686 c 128,-1,116
 385 659 385 659 388 636 c 0,117,118
 391 611 391 611 394 591.5 c 128,-1,119
 397 572 397 572 401 558 c 0,120,121
 404 547 404 547 407.5 531.5 c 128,-1,122
 411 516 411 516 416 495 c 0,123,124
 425 455 425 455 452 414 c 0,125,126
 466 394 466 394 486 376 c 128,-1,127
 506 358 506 358 533 343 c 0,128,129
 585 312 585 312 682 312 c 0,130,131
 700 312 700 312 719 313 c 128,-1,132
 738 314 738 314 756 316 c 0,133,134
 795 321 795 321 828 328 c 0,135,136
 845 331 845 331 859.5 335 c 128,-1,137
 874 339 874 339 888 344 c 0,138,139
 912 353 912 353 926 364 c 0,140,141
 942 375 942 375 955 389.5 c 128,-1,142
 968 404 968 404 980 422 c 0,143,144
 991 440 991 440 999.5 460 c 128,-1,145
 1008 480 1008 480 1015 501 c 1,146,-1
 1331 501 l 1,0,1
EndSplineSet
EndChar

StartChar: ccedilla
Encoding: 231 231 132
Width: 1352
GlyphClass: 2
Flags: W
LayerCount: 2
Fore
SplineSet
1038 307 m 1,0,1
 1029 265 1029 265 1010 226 c 0,2,3
 999 206 999 206 988 187.5 c 128,-1,4
 977 169 977 169 964 152 c 0,5,6
 939 118 939 118 913 89 c 0,7,8
 899 75 899 75 887 64 c 128,-1,9
 875 53 875 53 864 45 c 0,10,11
 798 -7 798 -7 727 -25 c 0,12,13
 656 -42 656 -42 579 -43 c 1,14,-1
 569 -88 l 1,15,16
 638 -88 638 -88 674 -146 c 0,17,18
 691 -175 691 -175 696 -211 c 128,-1,19
 701 -247 701 -247 691 -291 c 0,20,21
 675 -376 675 -376 617 -435 c 0,22,23
 557 -495 557 -495 489 -495 c 2,24,-1
 384 -495 l 1,25,-1
 403 -399 l 1,26,-1
 508 -399 l 2,27,28
 545 -399 545 -399 576 -368 c 0,29,30
 606 -335 606 -335 615 -291 c 0,31,32
 624 -245 624 -245 605 -215 c 0,33,34
 589 -184 589 -184 551 -184 c 2,35,-1
 478 -184 l 1,36,-1
 507 -41 l 1,37,38
 428 -31 428 -31 362 9 c 0,39,40
 298 50 298 50 264 127 c 0,41,42
 225 216 225 216 219 335 c 0,43,44
 214 456 214 456 241 585 c 0,45,46
 257 666 257 666 279 735 c 128,-1,47
 301 804 301 804 328 864 c 0,48,49
 384 985 384 985 464 1074 c 0,50,51
 543 1163 543 1163 639 1209 c 0,52,53
 733 1253 733 1253 834 1253 c 0,54,55
 997 1253 997 1253 1080 1154 c 0,56,57
 1139 1085 1139 1085 1143 949 c 1,58,-1
 966 949 l 1,59,60
 963 975 963 975 960 994 c 0,61,62
 957 1017 957 1017 948 1030 c 0,63,64
 937 1047 937 1047 922.5 1059 c 128,-1,65
 908 1071 908 1071 892 1080 c 0,66,67
 876 1090 876 1090 854 1094 c 128,-1,68
 832 1098 832 1098 803 1098 c 0,69,70
 764 1098 764 1098 725 1084.5 c 128,-1,71
 686 1071 686 1071 648 1042 c 0,72,73
 610 1014 610 1014 578.5 976 c 128,-1,74
 547 938 547 938 521 890 c 0,75,76
 513 874 513 874 505.5 860.5 c 128,-1,77
 498 847 498 847 493 835 c 0,78,79
 488 822 488 822 482.5 809.5 c 128,-1,80
 477 797 477 797 472 784 c 0,81,82
 465 759 465 759 457 727 c 0,83,84
 453 711 453 711 449 691.5 c 128,-1,85
 445 672 445 672 440 649 c 0,86,87
 421 555 421 555 420 490 c 0,88,89
 418 417 418 417 430 352 c 0,90,91
 432 338 432 338 435 325 c 128,-1,92
 438 312 438 312 441 300 c 0,93,94
 445 289 445 289 451 278 c 128,-1,95
 457 267 457 267 466 258 c 0,96,97
 483 241 483 241 518 229 c 0,98,99
 535 224 535 224 559.5 221.5 c 128,-1,100
 584 219 584 219 616 219 c 0,101,102
 642 219 642 219 666 220.5 c 128,-1,103
 690 222 690 222 713 224 c 0,104,105
 735 226 735 226 750.5 231 c 128,-1,106
 766 236 766 236 777 241 c 0,107,108
 797 250 797 250 808 265 c 0,109,110
 813 272 813 272 818.5 282.5 c 128,-1,111
 824 293 824 293 829 307 c 1,112,-1
 1038 307 l 1,0,1
EndSplineSet
EndChar

StartChar: trademark
Encoding: 8482 8482 133
Width: 1419
GlyphClass: 2
Flags: W
LayerCount: 2
Fore
SplineSet
621 1914 m 1,0,-1
 608 1846 l 1,1,-1
 463 1846 l 1,2,-1
 375 1357 l 1,3,-1
 296 1357 l 1,4,-1
 404 1846 l 1,5,-1
 259 1846 l 1,6,-1
 274 1914 l 1,7,-1
 621 1914 l 1,0,-1
827 1527 m 1,8,-1
 1036 1914 l 1,9,-1
 1111 1914 l 1,10,-1
 1029 1357 l 1,11,-1
 944 1357 l 1,12,-1
 1052 1848 l 1,13,-1
 856 1445 l 1,14,-1
 765 1445 l 1,15,-1
 729 1848 l 1,16,-1
 642 1357 l 1,17,-1
 557 1357 l 1,18,-1
 698 1914 l 1,19,-1
 773 1914 l 1,20,-1
 827 1527 l 1,8,-1
EndSplineSet
EndChar

StartChar: cedilla
Encoding: 184 184 134
Width: 1706
GlyphClass: 2
Flags: W
LayerCount: 2
Fore
SplineSet
720 0 m 1,0,-1
 711 -46 l 1,1,2
 780 -46 780 -46 814 -104 c 0,3,4
 850 -162 850 -162 833 -249 c 0,5,6
 823 -292 823 -292 804.5 -328 c 128,-1,7
 786 -364 786 -364 757 -393 c 0,8,9
 697 -453 697 -453 629 -453 c 2,10,-1
 525 -453 l 1,11,-1
 543 -357 l 1,12,-1
 648 -357 l 2,13,14
 686 -357 686 -357 716 -326 c 0,15,16
 747 -292 747 -292 756 -249 c 0,17,18
 764 -203 764 -203 747 -173 c 0,19,20
 728 -142 728 -142 691 -142 c 2,21,-1
 619 -142 l 1,22,-1
 647 0 l 1,23,-1
 720 0 l 1,0,-1
EndSplineSet
EndChar

StartChar: oslash
Encoding: 248 248 136
Width: 1466
GlyphClass: 2
Flags: W
LayerCount: 2
Fore
SplineSet
1218 1071 m 0,0,1
 1240 1025 1240 1025 1254.5 972 c 128,-1,2
 1269 919 1269 919 1276 858 c 0,3,4
 1290 736 1290 736 1260 584 c 0,5,6
 1230 440 1230 440 1171 326 c 0,7,8
 1142 269 1142 269 1108 220 c 128,-1,9
 1074 171 1074 171 1035 127 c 0,10,11
 885 -43 885 -43 683 -43 c 2,12,-1
 641 -43 l 2,13,14
 596 -43 596 -43 562 -36 c 0,15,16
 545 -32 545 -32 528 -27 c 128,-1,17
 511 -22 511 -22 496 -14 c 1,18,-1
 451 -84 l 1,19,-1
 249 -84 l 1,20,-1
 371 100 l 2,21,22
 369 103 369 103 367.5 106 c 128,-1,23
 366 109 366 109 364 113 c 0,24,25
 362 116 362 116 360 119 c 128,-1,26
 358 122 358 122 356 127 c 0,27,28
 336 171 336 171 322.5 220 c 128,-1,29
 309 269 309 269 301 326 c 0,30,31
 286 440 286 440 314 584 c 0,32,33
 346 737 346 737 409 858 c 0,34,35
 471 978 471 978 552 1071 c 0,36,37
 708 1250 708 1250 918 1254 c 1,38,-1
 928 1254 l 2,39,40
 954 1253 954 1253 977.5 1249.5 c 128,-1,41
 1001 1246 1001 1246 1024 1240 c 0,42,43
 1065 1230 1065 1230 1104 1205 c 1,44,-1
 1162 1295 l 1,45,-1
 1334 1295 l 1,46,-1
 1205 1095 l 1,47,48
 1208 1091 1208 1091 1211.5 1085.5 c 128,-1,49
 1215 1080 1215 1080 1218 1071 c 0,0,1
513 334 m 0,50,51
 513 331 513 331 515 327 c 0,52,53
 515 325 515 325 515.5 323.5 c 128,-1,54
 516 322 516 322 516 319 c 1,55,-1
 1003 1054 l 1,56,57
 980 1070 980 1070 953 1078 c 256,58,59
 926 1086 926 1086 891 1086 c 2,60,-1
 884 1086 l 2,61,62
 810 1086 810 1086 756 1048 c 0,63,64
 728 1029 728 1029 701.5 1003.5 c 128,-1,65
 675 978 675 978 649 944 c 0,66,67
 598 878 598 878 564 806 c 0,68,69
 531 735 531 735 510 633 c 0,70,71
 501 584 501 584 496 542.5 c 128,-1,72
 491 501 491 501 492 467 c 0,73,74
 492 399 492 399 513 334 c 0,50,51
955 334 m 0,75,76
 1002 398 1002 398 1033 465 c 0,77,78
 1049 499 1049 499 1061.5 540.5 c 128,-1,79
 1074 582 1074 582 1085 631 c 0,80,81
 1102 717 1102 717 1100 781 c 0,82,83
 1099 813 1099 813 1095 843 c 128,-1,84
 1091 873 1091 873 1083 901 c 1,85,-1
 648 224 l 1,86,87
 659 220 659 220 675 220 c 2,88,-1
 707 220 l 1,89,-1
 716 220 l 2,90,91
 789 220 789 220 850 244 c 0,92,93
 910 268 910 268 955 334 c 0,75,76
EndSplineSet
EndChar

StartChar: acute
Encoding: 180 180 140
Width: 1706
GlyphClass: 2
Flags: W
LayerCount: 2
Fore
SplineSet
673 1364 m 1,0,-1
 576 1531 l 1,1,-1
 940 1914 l 1,2,-1
 1053 1723 l 1,3,-1
 673 1364 l 1,0,-1
EndSplineSet
EndChar

StartChar: copyright
Encoding: 169 169 141
Width: 1706
GlyphClass: 2
Flags: W
LayerCount: 2
Fore
SplineSet
1003 1256 m 256,0,1
 1112 1256 1112 1256 1195 1204 c 0,2,3
 1237 1179 1237 1179 1271.5 1144.5 c 128,-1,4
 1306 1110 1306 1110 1332 1065 c 0,5,6
 1384 976 1384 976 1402 860 c 0,7,8
 1419 738 1419 738 1392 609 c 0,9,10
 1378 540 1378 540 1355.5 477 c 128,-1,11
 1333 414 1333 414 1300 354 c 0,12,13
 1235 238 1235 238 1149 148 c 0,14,15
 1062 58 1062 58 955 9 c 1,16,17
 852 -43 852 -43 743 -43 c 256,18,19
 634 -43 634 -43 551 9 c 0,20,21
 467 58 467 58 414 148 c 0,22,23
 362 239 362 239 344 354 c 0,24,25
 327 473 327 473 354 609 c 0,26,27
 368 675 368 675 390.5 737.5 c 128,-1,28
 413 800 413 800 445 860 c 0,29,30
 478 919 478 919 515 970 c 128,-1,31
 552 1021 552 1021 596 1065 c 0,32,33
 641 1110 641 1110 688.5 1144.5 c 128,-1,34
 736 1179 736 1179 790 1204 c 0,35,36
 894 1256 894 1256 1003 1256 c 256,0,1
766 71 m 0,37,38
 810 71 810 71 853.5 81 c 128,-1,39
 897 91 897 91 941 112 c 0,40,41
 1030 157 1030 157 1102 227 c 0,42,43
 1138 263 1138 263 1169 306 c 128,-1,44
 1200 349 1200 349 1228 398 c 0,45,46
 1254 448 1254 448 1273 500 c 128,-1,47
 1292 552 1292 552 1303 609 c 0,48,49
 1325 721 1325 721 1310 816 c 0,50,51
 1303 865 1303 865 1289.5 907.5 c 128,-1,52
 1276 950 1276 950 1253 987 c 0,53,54
 1232 1025 1232 1025 1203 1053.5 c 128,-1,55
 1174 1082 1174 1082 1139 1105 c 0,56,57
 1071 1146 1071 1146 981 1146 c 0,58,59
 893 1146 893 1146 805 1105 c 0,60,61
 761 1082 761 1082 721.5 1053.5 c 128,-1,62
 682 1025 682 1025 644 987 c 0,63,64
 607 950 607 950 576 907.5 c 128,-1,65
 545 865 545 865 518 816 c 256,66,67
 491 767 491 767 472.5 715.5 c 128,-1,68
 454 664 454 664 442 609 c 0,69,70
 431 552 431 552 429 500 c 128,-1,71
 427 448 427 448 435 398 c 0,72,73
 447 301 447 301 493 227 c 0,74,75
 535 156 535 156 607 112 c 0,76,77
 674 71 674 71 766 71 c 0,37,38
791 217 m 0,78,79
 733 217 733 217 689 243 c 0,80,81
 667 257 667 257 650.5 276 c 128,-1,82
 634 295 634 295 623 323 c 0,83,84
 599 376 599 376 593 447 c 0,85,86
 591 482 591 482 593.5 518.5 c 128,-1,87
 596 555 596 555 605 594 c 0,88,89
 641 783 641 783 739 888 c 0,90,91
 762 916 762 916 789 935.5 c 128,-1,92
 816 955 816 955 843 969 c 0,93,94
 903 996 903 996 959 996 c 0,95,96
 1054 996 1054 996 1109 936 c 0,97,98
 1125 914 1125 914 1134 884 c 128,-1,99
 1143 854 1143 854 1144 814 c 1,100,-1
 1040 814 l 1,101,102
 1037 838 1037 838 1027 856 c 0,103,104
 1011 877 1011 877 993 884 c 0,105,106
 984 887 984 887 970.5 889 c 128,-1,107
 957 891 957 891 940 891 c 0,108,109
 916 891 916 891 892.5 884 c 128,-1,110
 869 877 869 877 846 864 c 0,111,112
 823 850 823 850 803.5 828 c 128,-1,113
 784 806 784 806 767 777 c 0,114,115
 747 742 747 742 736 713 c 0,116,117
 731 699 731 699 724.5 679 c 128,-1,118
 718 659 718 659 713 631 c 0,119,120
 707 602 707 602 705 576 c 128,-1,121
 703 550 703 550 705 524 c 0,122,123
 707 499 707 499 708.5 481 c 128,-1,124
 710 463 710 463 713 452 c 0,125,126
 713 447 713 447 715 441.5 c 128,-1,127
 717 436 717 436 719 428 c 0,128,129
 723 412 723 412 735 395 c 0,130,131
 745 379 745 379 766 364 c 0,132,133
 788 353 788 353 825 353 c 0,134,135
 841 353 841 353 855 354 c 128,-1,136
 869 355 869 355 883 358 c 0,137,138
 897 362 897 362 907 366.5 c 128,-1,139
 917 371 917 371 923 374 c 0,140,141
 934 384 934 384 942.5 397 c 128,-1,142
 951 410 951 410 956 430 c 1,143,-1
 1082 430 l 1,144,145
 1067 361 1067 361 1037 324 c 0,146,147
 1003 286 1003 286 978 265 c 0,148,149
 956 250 956 250 934.5 240 c 128,-1,150
 913 230 913 230 889 226 c 0,151,152
 844 217 844 217 791 217 c 0,78,79
EndSplineSet
EndChar

StartChar: registered
Encoding: 174 174 142
Width: 1706
GlyphClass: 2
Flags: W
LayerCount: 2
Fore
SplineSet
994 1253 m 0,0,1
 1049 1253 1049 1253 1096.5 1241 c 128,-1,2
 1144 1229 1144 1229 1186 1203 c 256,3,4
 1228 1177 1228 1177 1263 1143.5 c 128,-1,5
 1298 1110 1298 1110 1323 1065 c 0,6,7
 1376 978 1376 978 1394 858 c 0,8,9
 1403 798 1403 798 1400.5 736.5 c 128,-1,10
 1398 675 1398 675 1384 608 c 256,11,12
 1370 541 1370 541 1347.5 477 c 128,-1,13
 1325 413 1325 413 1293 354 c 256,14,15
 1261 295 1261 295 1223.5 244 c 128,-1,16
 1186 193 1186 193 1138 147 c 0,17,18
 1096 102 1096 102 1048 68 c 128,-1,19
 1000 34 1000 34 949 10 c 0,20,21
 841 -43 841 -43 736 -43 c 0,22,23
 628 -43 628 -43 543 10 c 0,24,25
 501 34 501 34 466.5 68 c 128,-1,26
 432 102 432 102 408 147 c 0,27,28
 380 193 380 193 363 244 c 128,-1,29
 346 295 346 295 335 354 c 0,30,31
 318 473 318 473 347 608 c 1,32,33
 371 740 371 740 437 858 c 0,34,35
 470 918 470 918 507.5 969 c 128,-1,36
 545 1020 545 1020 593 1065 c 1,37,38
 635 1110 635 1110 683 1143.5 c 128,-1,39
 731 1177 731 1177 782 1203 c 0,40,41
 835 1229 835 1229 888 1241 c 128,-1,42
 941 1253 941 1253 994 1253 c 0,0,1
756 71 m 0,43,44
 801 71 801 71 846 80.5 c 128,-1,45
 891 90 891 90 933 113 c 0,46,47
 976 134 976 134 1016.5 162 c 128,-1,48
 1057 190 1057 190 1093 227 c 0,49,50
 1130 264 1130 264 1162 305.5 c 128,-1,51
 1194 347 1194 347 1220 397 c 0,52,53
 1247 447 1247 447 1266.5 499.5 c 128,-1,54
 1286 552 1286 552 1295 608 c 0,55,56
 1320 717 1320 717 1305 817 c 0,57,58
 1297 865 1297 865 1283 907.5 c 128,-1,59
 1269 950 1269 950 1244 985 c 1,60,61
 1223 1024 1223 1024 1195.5 1052.5 c 128,-1,62
 1168 1081 1168 1081 1134 1104 c 0,63,64
 1062 1144 1062 1144 974 1144 c 256,65,66
 886 1144 886 1144 798 1104 c 0,67,68
 753 1081 753 1081 713 1052.5 c 128,-1,69
 673 1024 673 1024 635 985 c 0,70,71
 600 950 600 950 568 907.5 c 128,-1,72
 536 865 536 865 509 817 c 0,73,74
 484 766 484 766 464.5 715 c 128,-1,75
 445 664 445 664 436 608 c 0,76,77
 411 498 411 498 426 397 c 0,78,79
 434 347 434 347 447.5 305.5 c 128,-1,80
 461 264 461 264 485 227 c 0,81,82
 527 155 527 155 600 113 c 0,83,84
 635 90 635 90 673.5 80.5 c 128,-1,85
 712 71 712 71 756 71 c 0,43,44
1071 258 m 1,86,-1
 953 258 l 1,87,-1
 897 525 l 2,88,89
 895 529 895 529 892 536 c 128,-1,90
 889 543 889 543 882 555 c 0,91,92
 876 563 876 563 865 569 c 128,-1,93
 854 575 854 575 839 575 c 2,94,-1
 750 575 l 1,95,-1
 692 258 l 1,96,-1
 579 258 l 1,97,-1
 743 1011 l 1,98,-1
 1001 1011 l 1,99,-1
 1009 1011 l 2,100,101
 1049 1011 1049 1011 1077 994 c 0,102,103
 1106 978 1106 978 1124 948 c 0,104,105
 1133 932 1133 932 1138.5 914.5 c 128,-1,106
 1144 897 1144 897 1147 877 c 256,107,108
 1150 857 1150 857 1149 836.5 c 128,-1,109
 1148 816 1148 816 1143 793 c 0,110,111
 1137 755 1137 755 1121.5 722.5 c 128,-1,112
 1106 690 1106 690 1083 661 c 0,113,114
 1058 631 1058 631 1032.5 612.5 c 128,-1,115
 1007 594 1007 594 978 583 c 1,116,-1
 1081 308 l 1,117,-1
 1071 258 l 1,86,-1
949 685 m 2,118,119
 981 685 981 685 1018 716 c 1,120,121
 1053 751 1053 751 1059 797 c 1,122,123
 1071 845 1071 845 1049 875 c 1,124,125
 1032 907 1032 907 991 907 c 2,126,-1
 810 907 l 1,127,-1
 772 685 l 1,128,-1
 949 685 l 2,118,119
EndSplineSet
EndChar

StartChar: tilde
Encoding: 732 732 145
Width: 1706
GlyphClass: 2
Flags: W
LayerCount: 2
Fore
SplineSet
1240 1775 m 1,0,-1
 896 1382 l 1,1,-1
 735 1630 l 1,2,-1
 546 1419 l 1,3,-1
 459 1565 l 1,4,-1
 793 1914 l 1,5,-1
 954 1669 l 1,6,-1
 1158 1914 l 1,7,-1
 1240 1775 l 1,0,-1
EndSplineSet
EndChar

StartChar: asciitilde
Encoding: 126 126 146
Width: 1229
GlyphClass: 2
Flags: W
LayerCount: 2
Fore
SplineSet
998 758 m 1,0,-1
 654 365 l 1,1,-1
 493 613 l 1,2,-1
 304 402 l 1,3,-1
 217 548 l 1,4,-1
 551 897 l 1,5,-1
 712 652 l 1,6,-1
 916 897 l 1,7,-1
 998 758 l 1,0,-1
EndSplineSet
EndChar

StartChar: periodcentered
Encoding: 183 183 147
Width: 799
GlyphClass: 2
Flags: W
LayerCount: 2
Fore
SplineSet
515 645 m 0,0,1
 508 604 508 604 487 567 c 0,2,3
 468 530 468 530 440 502 c 0,4,5
 426 488 426 488 411 477.5 c 128,-1,6
 396 467 396 467 380 458 c 0,7,8
 347 442 347 442 312 442 c 256,9,10
 277 442 277 442 252 458 c 0,11,12
 239 467 239 467 228 477.5 c 128,-1,13
 217 488 217 488 209 502 c 256,14,15
 201 516 201 516 195 532 c 128,-1,16
 189 548 189 548 187 567 c 0,17,18
 183 604 183 604 190 645 c 0,19,20
 208 731 208 731 266 790 c 0,21,22
 326 850 326 850 394 850 c 256,23,24
 462 850 462 850 498 790 c 0,25,26
 531 729 531 729 515 645 c 0,0,1
EndSplineSet
EndChar

StartChar: questiondown
Encoding: 191 191 148
Width: 1378
GlyphClass: 2
Flags: W
LayerCount: 2
Fore
SplineSet
945 -113 m 0,0,1
 909 -145 909 -145 862.5 -178 c 128,-1,2
 816 -211 816 -211 771 -230 c 0,3,4
 727 -248 727 -248 680 -256.5 c 128,-1,5
 633 -265 633 -265 583 -265 c 0,6,7
 560 -265 560 -265 538 -263 c 128,-1,8
 516 -261 516 -261 493 -258 c 0,9,10
 447 -250 447 -250 409 -236 c 0,11,12
 372 -223 372 -223 337 -201 c 0,13,14
 305 -180 305 -180 283 -151 c 256,15,16
 261 -122 261 -122 245.5 -88.5 c 128,-1,17
 230 -55 230 -55 223 -16 c 0,18,19
 215 23 215 23 216.5 64.5 c 128,-1,20
 218 106 218 106 227 151 c 0,21,22
 232 178 232 178 240 207 c 128,-1,23
 248 236 248 236 258 268 c 0,24,25
 269 300 269 300 280 329 c 128,-1,26
 291 358 291 358 305 384 c 0,27,28
 322 417 322 417 342 449 c 0,29,30
 352 464 352 464 363 479 c 128,-1,31
 374 494 374 494 386 509 c 0,32,33
 410 539 410 539 440 569 c 0,34,35
 454 584 454 584 471 599.5 c 128,-1,36
 488 615 488 615 506 632 c 0,37,38
 520 644 520 644 531 653.5 c 128,-1,39
 542 663 542 663 551 670 c 256,40,41
 560 677 560 677 567.5 682.5 c 128,-1,42
 575 688 575 688 581 693 c 0,43,44
 588 698 588 698 594 702 c 128,-1,45
 600 706 600 706 605 710 c 256,46,47
 610 714 610 714 616 719 c 128,-1,48
 622 724 622 724 629 729 c 0,49,50
 645 743 645 743 657 765 c 0,51,52
 670 786 670 786 682 817 c 0,53,54
 688 832 688 832 694 848 c 128,-1,55
 700 864 700 864 705 881 c 256,56,57
 710 898 710 898 715 914.5 c 128,-1,58
 720 931 720 931 725 948 c 0,59,60
 735 987 735 987 744.5 1029.5 c 128,-1,61
 754 1072 754 1072 763 1118 c 1,62,-1
 973 1118 l 1,63,64
 964 1071 964 1071 955 1028.5 c 128,-1,65
 946 986 946 986 937 946 c 0,66,67
 932 929 932 929 928 912 c 128,-1,68
 924 895 924 895 919 878 c 256,69,70
 914 861 914 861 909.5 845 c 128,-1,71
 905 829 905 829 900 815 c 0,72,73
 895 800 895 800 890 787 c 128,-1,74
 885 774 885 774 880 763 c 0,75,76
 869 740 869 740 861 729 c 0,77,78
 850 717 850 717 840 706 c 128,-1,79
 830 695 830 695 821 686 c 0,80,81
 813 676 813 676 803.5 666.5 c 128,-1,82
 794 657 794 657 784 648 c 0,83,84
 775 638 775 638 764 628 c 128,-1,85
 753 618 753 618 741 607 c 0,86,87
 730 596 730 596 716 583.5 c 128,-1,88
 702 571 702 571 686 557 c 0,89,90
 657 536 657 536 631 511 c 0,91,92
 619 500 619 500 607 488.5 c 128,-1,93
 595 477 595 477 582 463 c 0,94,95
 568 449 568 449 556.5 435 c 128,-1,96
 545 421 545 421 534 407 c 0,97,98
 519 387 519 387 508 364 c 0,99,100
 503 353 503 353 498.5 341 c 128,-1,101
 494 329 494 329 490 318 c 0,102,103
 482 293 482 293 478 272 c 0,104,105
 476 261 476 261 474 251.5 c 128,-1,106
 472 242 472 242 470 233 c 0,107,108
 465 207 465 207 463 184.5 c 128,-1,109
 461 162 461 162 462 142 c 0,110,111
 464 122 464 122 468.5 103 c 128,-1,112
 473 84 473 84 483 66 c 0,113,114
 503 30 503 30 543 14 c 0,115,116
 580 0 580 0 642 0 c 0,117,118
 661 0 661 0 678 1 c 128,-1,119
 695 2 695 2 710 4 c 0,120,121
 739 7 739 7 766 18 c 256,122,123
 793 29 793 29 813 45 c 0,124,125
 824 54 824 54 833.5 65 c 128,-1,126
 843 76 843 76 854 90 c 0,127,128
 865 105 865 105 875 130 c 0,129,130
 884 155 884 155 890 176 c 0,131,132
 894 187 894 187 896 197 c 128,-1,133
 898 207 898 207 900 215 c 256,134,135
 902 223 902 223 903 227.5 c 128,-1,136
 904 232 904 232 904 233 c 1,137,-1
 1098 233 l 1,138,139
 1098 226 1098 226 1096.5 207 c 128,-1,140
 1095 188 1095 188 1092 164 c 128,-1,141
 1089 140 1089 140 1083 113.5 c 128,-1,142
 1077 87 1077 87 1068 66 c 0,143,144
 1044 9 1044 9 1015.5 -34 c 128,-1,145
 987 -77 987 -77 945 -113 c 0,0,1
834 1514 m 256,146,147
 840 1546 840 1546 854 1569 c 0,148,149
 868 1595 868 1595 887 1614 c 0,150,151
 905 1632 905 1632 929 1645 c 0,152,153
 954 1656 954 1656 976 1656 c 256,154,155
 998 1656 998 1656 1018 1645 c 0,156,157
 1037 1633 1037 1633 1048 1614 c 0,158,159
 1054 1604 1054 1604 1057.5 1593 c 128,-1,160
 1061 1582 1061 1582 1063 1569 c 0,161,162
 1066 1546 1066 1546 1061 1514 c 0,163,164
 1055 1485 1055 1485 1041 1458 c 0,165,166
 1033 1445 1033 1445 1025.5 1434 c 128,-1,167
 1018 1423 1018 1423 1007 1413 c 0,168,169
 989 1394 989 1394 966 1383 c 0,170,171
 942 1371 942 1371 919 1371 c 0,172,173
 895 1371 895 1371 877 1383 c 0,174,175
 859 1394 859 1394 847 1413 c 0,176,177
 835 1433 835 1433 832 1458 c 0,178,179
 828 1482 828 1482 834 1514 c 256,146,147
EndSplineSet
EndChar

StartChar: Oslash
Encoding: 216 216 149
Width: 1681
GlyphClass: 2
Flags: W
LayerCount: 2
Fore
SplineSet
1477 1599 m 0,0,1
 1508 1534 1508 1534 1529 1459 c 128,-1,2
 1550 1384 1550 1384 1560 1297 c 0,3,4
 1583 1122 1583 1122 1538 905 c 0,5,6
 1496 700 1496 700 1412 539 c 0,7,8
 1327 378 1327 378 1218 257 c 0,9,10
 1164 194 1164 194 1105.5 147.5 c 128,-1,11
 1047 101 1047 101 984 67 c 0,12,13
 858 0 858 0 715 0 c 2,14,-1
 653 0 l 2,15,16
 624 0 624 0 596.5 5 c 128,-1,17
 569 10 569 10 545 19 c 0,18,19
 520 27 520 27 496.5 36 c 128,-1,20
 473 45 473 45 450 56 c 1,21,-1
 388 -43 l 1,22,-1
 100 -43 l 1,23,-1
 275 220 l 1,24,25
 261 240 261 240 254 257 c 0,26,27
 195 378 195 378 174 539 c 256,28,29
 153 700 153 700 193 905 c 0,30,31
 215 1015 215 1015 248.5 1112 c 128,-1,32
 282 1209 282 1209 327 1297 c 0,33,34
 417 1469 417 1469 530 1599 c 0,35,36
 757 1856 757 1856 1051 1860 c 1,37,-1
 1065 1860 l 1,38,39
 1213 1856 1213 1856 1315 1790 c 1,40,-1
 1399 1913 l 1,41,-1
 1641 1913 l 1,42,-1
 1460 1632 l 2,43,44
 1462 1628 1462 1628 1464.5 1624 c 128,-1,45
 1467 1620 1467 1620 1469 1617 c 0,46,47
 1474 1608 1474 1608 1477 1599 c 0,0,1
481 531 m 1,48,-1
 1171 1573 l 1,49,50
 1157 1584 1157 1584 1139.5 1592.5 c 128,-1,51
 1122 1601 1122 1601 1103 1607 c 0,52,53
 1083 1613 1083 1613 1060.5 1616.5 c 128,-1,54
 1038 1620 1038 1620 1012 1620 c 2,55,-1
 1004 1620 l 2,56,57
 897 1620 897 1620 819 1566 c 0,58,59
 739 1511 739 1511 669 1421 c 0,60,61
 632 1373 632 1373 602.5 1323.5 c 128,-1,62
 573 1274 573 1274 549 1223 c 256,63,64
 525 1172 525 1172 505.5 1111 c 128,-1,65
 486 1050 486 1050 472 978 c 0,66,67
 459 910 459 910 451 850 c 0,68,69
 447 821 447 821 445.5 794 c 128,-1,70
 444 767 444 767 444 741 c 256,71,72
 444 715 444 715 445.5 690 c 128,-1,73
 447 665 447 665 451 642 c 0,74,75
 460 594 460 594 475 550 c 2,76,-1
 481 531 l 1,48,-1
1105 550 m 0,77,78
 1122 573 1122 573 1137 595.5 c 128,-1,79
 1152 618 1152 618 1165 641 c 0,80,81
 1179 664 1179 664 1191.5 688 c 128,-1,82
 1204 712 1204 712 1215 738 c 0,83,84
 1227 762 1227 762 1236.5 789 c 128,-1,85
 1246 816 1246 816 1254 845 c 0,86,87
 1264 874 1264 874 1271.5 905.5 c 128,-1,88
 1279 937 1279 937 1286 972 c 0,89,90
 1310 1097 1310 1097 1309 1185 c 0,91,92
 1308 1274 1308 1274 1286 1359 c 1,93,-1
 667 394 l 1,94,95
 681 380 681 380 703 377 c 0,96,97
 724 374 724 374 746 374 c 2,98,-1
 761 374 l 2,99,100
 867 374 867 374 952 416 c 0,101,102
 1038 457 1038 457 1105 550 c 0,77,78
EndSplineSet
EndChar

StartChar: ordfeminine
Encoding: 170 170 150
Width: 981
GlyphClass: 2
Flags: W
LayerCount: 2
Fore
SplineSet
708 1209 m 1,0,1
 702 1207 702 1207 697 1206 c 128,-1,2
 692 1205 692 1205 687 1203 c 256,3,4
 682 1201 682 1201 672.5 1199 c 128,-1,5
 663 1197 663 1197 652 1197 c 0,6,7
 638 1197 638 1197 621 1201.5 c 128,-1,8
 604 1206 604 1206 596 1215 c 0,9,10
 589 1224 589 1224 585.5 1235.5 c 128,-1,11
 582 1247 582 1247 579.5 1259 c 128,-1,12
 577 1271 577 1271 576.5 1281 c 128,-1,13
 576 1291 576 1291 575 1295 c 1,14,15
 567 1286 567 1286 559.5 1277.5 c 128,-1,16
 552 1269 552 1269 545 1261 c 0,17,18
 530 1246 530 1246 514 1234 c 0,19,20
 506 1226 506 1226 499 1220 c 128,-1,21
 492 1214 492 1214 484 1210 c 0,22,23
 469 1201 469 1201 453.5 1196 c 128,-1,24
 438 1191 438 1191 421 1189 c 0,25,26
 405 1187 405 1187 390 1186 c 128,-1,27
 375 1185 375 1185 359 1185 c 0,28,29
 280 1185 280 1185 245 1243 c 0,30,31
 236 1257 236 1257 230 1273.5 c 128,-1,32
 224 1290 224 1290 221 1307 c 0,33,34
 218 1326 218 1326 218.5 1346 c 128,-1,35
 219 1366 219 1366 225 1387 c 0,36,37
 228 1404 228 1404 233 1419.5 c 128,-1,38
 238 1435 238 1435 242 1446 c 0,39,40
 248 1458 248 1458 252.5 1469 c 128,-1,41
 257 1480 257 1480 263 1488 c 0,42,43
 276 1510 276 1510 289.5 1525 c 128,-1,44
 303 1540 303 1540 311 1546 c 0,45,46
 326 1559 326 1559 341.5 1569.5 c 128,-1,47
 357 1580 357 1580 374 1590 c 0,48,49
 390 1600 390 1600 405 1606.5 c 128,-1,50
 420 1613 420 1613 440 1615 c 0,51,52
 458 1618 458 1618 480 1620 c 0,53,54
 490 1621 490 1621 499.5 1621 c 128,-1,55
 509 1621 509 1621 520 1621 c 2,56,-1
 561 1621 l 1,57,-1
 596 1621 l 2,58,59
 627 1621 627 1621 634 1633 c 0,60,61
 644 1648 644 1648 648 1670 c 2,62,-1
 657 1708 l 2,63,64
 660 1722 660 1722 660.5 1736 c 128,-1,65
 661 1750 661 1750 660 1762 c 0,66,67
 658 1773 658 1773 654.5 1782 c 128,-1,68
 651 1791 651 1791 643 1797 c 0,69,70
 614 1826 614 1826 554 1826 c 0,71,72
 536 1826 536 1826 522 1824 c 128,-1,73
 508 1822 508 1822 497 1820 c 0,74,75
 486 1817 486 1817 478 1814 c 128,-1,76
 470 1811 470 1811 464 1808 c 0,77,78
 431 1786 431 1786 418 1742 c 1,79,-1
 327 1742 l 1,80,81
 330 1758 330 1758 336 1774.5 c 128,-1,82
 342 1791 342 1791 352 1808 c 0,83,84
 372 1842 372 1842 406 1865 c 0,85,86
 425 1879 425 1879 444.5 1887.5 c 128,-1,87
 464 1896 464 1896 486 1902 c 0,88,89
 530 1914 530 1914 571 1914 c 0,90,91
 620 1914 620 1914 656 1900 c 0,92,93
 693 1888 693 1888 717 1864 c 0,94,95
 769 1818 769 1818 749 1720 c 0,96,97
 727 1611 727 1611 710 1525 c 0,98,99
 703 1488 703 1488 695.5 1452.5 c 128,-1,100
 688 1417 688 1417 683 1389 c 128,-1,101
 678 1361 678 1361 674.5 1343 c 128,-1,102
 671 1325 671 1325 671 1323 c 0,103,104
 673 1314 673 1314 678.5 1311.5 c 128,-1,105
 684 1309 684 1309 690 1309 c 2,106,-1
 695 1309 l 1,107,-1
 717 1261 l 1,108,-1
 708 1209 l 1,0,1
620 1538 m 1,109,-1
 558 1538 l 1,110,-1
 510 1538 l 2,111,112
 497 1538 497 1538 488 1538 c 128,-1,113
 479 1538 479 1538 473 1537 c 0,114,115
 461 1536 461 1536 449.5 1532.5 c 128,-1,116
 438 1529 438 1529 425 1524 c 0,117,118
 413 1518 413 1518 403.5 1511.5 c 128,-1,119
 394 1505 394 1505 386 1498 c 0,120,121
 373 1484 373 1484 364.5 1473.5 c 128,-1,122
 356 1463 356 1463 352 1454 c 0,123,124
 347 1444 347 1444 343 1432 c 128,-1,125
 339 1420 339 1420 336 1406 c 0,126,127
 334 1399 334 1399 334 1393 c 128,-1,128
 334 1387 334 1387 334 1379 c 0,129,130
 334 1368 334 1368 344 1353 c 0,131,132
 357 1337 357 1337 382 1334 c 0,133,134
 405 1331 405 1331 425 1331 c 0,135,136
 438 1331 438 1331 450.5 1332 c 128,-1,137
 463 1333 463 1333 477 1338 c 0,138,139
 504 1342 504 1342 520 1349 c 0,140,141
 528 1352 528 1352 535 1356 c 128,-1,142
 542 1360 542 1360 549 1364 c 0,143,144
 561 1372 561 1372 571 1383 c 0,145,146
 583 1395 583 1395 589 1411 c 0,147,148
 593 1419 593 1419 596 1429.5 c 128,-1,149
 599 1440 599 1440 602 1453 c 2,150,-1
 620 1538 l 1,109,-1
EndSplineSet
EndChar

StartChar: plusminus
Encoding: 177 177 151
Width: 1350
GlyphClass: 2
Flags: W
LayerCount: 2
Fore
SplineSet
897 0 m 1,0,-1
 231 0 l 1,1,-1
 274 217 l 1,2,-1
 941 217 l 1,3,-1
 897 0 l 1,0,-1
1086 945 m 1,4,-1
 1043 730 l 1,5,-1
 795 730 l 1,6,-1
 734 423 l 1,7,-1
 561 423 l 1,8,-1
 622 730 l 1,9,-1
 377 730 l 1,10,-1
 420 945 l 1,11,-1
 665 945 l 1,12,-1
 728 1254 l 1,13,-1
 901 1254 l 1,14,-1
 838 945 l 1,15,-1
 1086 945 l 1,4,-1
EndSplineSet
EndChar

StartChar: ellipsis
Encoding: 8230 8230 157
Width: 2568
GlyphClass: 2
Flags: W
LayerCount: 2
Fore
SplineSet
836 178 m 0,0,1
 832 157 832 157 825 138 c 128,-1,2
 818 119 818 119 808 100 c 256,3,4
 798 81 798 81 786.5 65 c 128,-1,5
 775 49 775 49 761 35 c 256,6,7
 747 21 747 21 732 10 c 128,-1,8
 717 -1 717 -1 701 -9 c 0,9,10
 669 -25 669 -25 633 -25 c 0,11,12
 598 -25 598 -25 573 -9 c 0,13,14
 547 7 547 7 530 35 c 0,15,16
 514 63 514 63 508 100 c 0,17,18
 504 137 504 137 511 178 c 0,19,20
 529 264 529 264 588 323 c 0,21,22
 647 383 647 383 715 383 c 0,23,24
 785 383 785 383 818 323 c 0,25,26
 853 265 853 265 836 178 c 0,0,1
1490 178 m 0,27,28
 1481 137 1481 137 1462 100 c 256,29,30
 1443 63 1443 63 1415 35 c 0,31,32
 1385 7 1385 7 1355 -9 c 0,33,34
 1322 -25 1322 -25 1287 -25 c 256,35,36
 1252 -25 1252 -25 1227 -9 c 0,37,38
 1201 7 1201 7 1184 35 c 0,39,40
 1176 49 1176 49 1170 65 c 128,-1,41
 1164 81 1164 81 1162 100 c 0,42,43
 1158 137 1158 137 1165 178 c 0,44,45
 1183 264 1183 264 1241 323 c 0,46,47
 1300 383 1300 383 1369 383 c 0,48,49
 1437 383 1437 383 1473 323 c 0,50,51
 1506 262 1506 262 1490 178 c 0,27,28
2144 178 m 0,52,53
 2137 138 2137 138 2117 100 c 0,54,55
 2096 62 2096 62 2070 35 c 0,56,57
 2040 6 2040 6 2009 -9 c 0,58,59
 1977 -25 1977 -25 1942 -25 c 0,60,61
 1908 -25 1908 -25 1880 -9 c 0,62,63
 1853 9 1853 9 1838 35 c 0,64,65
 1821 64 1821 64 1817 100 c 0,66,67
 1811 137 1811 137 1820 178 c 0,68,69
 1836 262 1836 262 1896 323 c 0,70,71
 1953 383 1953 383 2024 383 c 0,72,73
 2091 383 2091 383 2127 323 c 0,74,75
 2162 264 2162 264 2144 178 c 0,52,53
EndSplineSet
EndChar

StartChar: guilsinglleft
Encoding: 8249 8249 175
Width: 1706
GlyphClass: 2
Flags: W
LayerCount: 2
Fore
SplineSet
618 634 m 1,0,-1
 1071 1214 l 1,1,-1
 1243 1214 l 1,2,-1
 803 634 l 1,3,-1
 1001 0 l 1,4,-1
 787 0 l 1,5,-1
 618 634 l 1,0,-1
EndSplineSet
EndChar

StartChar: guilsinglright
Encoding: 8250 8250 176
Width: 1706
GlyphClass: 2
Flags: W
LayerCount: 2
Fore
SplineSet
1044 634 m 1,0,-1
 620 0 l 1,1,-1
 408 0 l 1,2,-1
 859 634 l 1,3,-1
 651 1214 l 1,4,-1
 822 1214 l 1,5,-1
 1044 634 l 1,0,-1
EndSplineSet
EndChar

StartChar: lozenge
Encoding: 9674 9674 177
Width: 1706
GlyphClass: 2
Flags: W
LayerCount: 2
Fore
SplineSet
1090 1214 m 1,0,-1
 1313 635 l 1,1,-1
 890 0 l 1,2,-1
 677 0 l 1,3,-1
 462 0 l 1,4,-1
 294 635 l 1,5,-1
 745 1214 l 1,6,-1
 917 1214 l 1,7,-1
 479 635 l 1,8,-1
 677 0 l 1,9,-1
 1127 635 l 1,10,-1
 919 1214 l 1,11,-1
 1090 1214 l 1,0,-1
EndSplineSet
EndChar

StartChar: hungarumlaut
Encoding: 733 733 183
Width: 1958
GlyphClass: 2
Flags: W
LayerCount: 2
Fore
SplineSet
1471 1724 m 1,0,-1
 1083 1357 l 1,1,-1
 986 1523 l 1,2,-1
 1358 1914 l 1,3,-1
 1471 1724 l 1,0,-1
881 1724 m 1,4,-1
 493 1357 l 1,5,-1
 396 1523 l 1,6,-1
 768 1914 l 1,7,-1
 881 1724 l 1,4,-1
EndSplineSet
EndChar

StartChar: ogonek
Encoding: 731 731 184
Width: 1706
GlyphClass: 2
Flags: W
LayerCount: 2
Fore
SplineSet
750 0 m 1,0,-1
 723 -140 l 1,1,-1
 650 -140 l 2,2,3
 634 -140 634 -140 615 -148 c 0,4,5
 607 -153 607 -153 599 -158.5 c 128,-1,6
 591 -164 591 -164 584 -172 c 0,7,8
 569 -184 569 -184 558 -206 c 0,9,10
 548 -226 548 -226 543 -248 c 0,11,12
 541 -259 541 -259 540.5 -269 c 128,-1,13
 540 -279 540 -279 541 -290 c 0,14,15
 544 -309 544 -309 553 -324 c 0,16,17
 561 -338 561 -338 575 -347 c 0,18,19
 591 -355 591 -355 607 -355 c 2,20,-1
 712 -355 l 1,21,-1
 692 -453 l 1,22,-1
 588 -453 l 2,23,24
 555 -453 555 -453 527 -436 c 0,25,26
 500 -420 500 -420 485 -392 c 0,27,28
 469 -365 469 -365 464 -328 c 0,29,30
 458 -290 458 -290 467 -248 c 0,31,32
 471 -227 471 -227 477.5 -207 c 128,-1,33
 484 -187 484 -187 495 -169 c 0,34,35
 506 -150 506 -150 517.5 -134 c 128,-1,36
 529 -118 529 -118 543 -104 c 0,37,38
 570 -77 570 -77 603 -61 c 0,39,40
 635 -45 635 -45 670 -45 c 1,41,-1
 679 0 l 1,42,-1
 750 0 l 1,0,-1
EndSplineSet
EndChar

StartChar: guillemotleft
Encoding: 171 171 185
Width: 2011
GlyphClass: 2
Flags: W
LayerCount: 2
Fore
SplineSet
384 634 m 1,0,-1
 837 1214 l 1,1,-1
 1009 1214 l 1,2,-1
 570 634 l 1,3,-1
 768 0 l 1,4,-1
 554 0 l 1,5,-1
 384 634 l 1,0,-1
989 634 m 1,6,-1
 1442 1214 l 1,7,-1
 1613 1214 l 1,8,-1
 1174 634 l 1,9,-1
 1373 0 l 1,10,-1
 1159 0 l 1,11,-1
 989 634 l 1,6,-1
EndSplineSet
EndChar

StartChar: guillemotright
Encoding: 187 187 186
Width: 2011
GlyphClass: 2
Flags: W
LayerCount: 2
Fore
SplineSet
1019 634 m 1,0,-1
 596 0 l 1,1,-1
 383 0 l 1,2,-1
 834 634 l 1,3,-1
 626 1214 l 1,4,-1
 798 1214 l 1,5,-1
 1019 634 l 1,0,-1
1623 634 m 1,6,-1
 1199 0 l 1,7,-1
 987 0 l 1,8,-1
 1438 634 l 1,9,-1
 1229 1214 l 1,10,-1
 1401 1214 l 1,11,-1
 1623 634 l 1,6,-1
EndSplineSet
EndChar

